<?xml version="1.0" encoding="UTF-8"?>
<svg id="Layer_2" data-name="Layer 2" xmlns="http://www.w3.org/2000/svg" xmlns:xlink="http://www.w3.org/1999/xlink" viewBox="0 0 2879.92 1863">
  <defs>
    <style>
      .cls-1 {
        fill: none;
      }

      .cls-2 {
        clip-path: url(#clippath);
      }

      .cls-3 {
        fill: #22487b;
      }
    </style>
    <clipPath id="clippath">
      <rect class="cls-1" width="2879.92" height="1863"/>
    </clipPath>
  </defs>
  <g id="Capa_1" data-name="Capa 1">
    <g class="cls-2">
      <path class="cls-3" d="M2956.92,1874c-519-15.36-679-123.88-2223-16.38-313.32,21.81-951.48-41.74-960-72.69-8.54-31.02,44.98-61.38,37.53-167.69C-219.07,1182.37-239.89,257.31-245.53-15,197.15,36.72,885.33,239.22,2203.31,37.79c97.04-14.83,192.17-22.39,279.79-25.51,194.32,8.26,347.69,17.51,436.52,27.84,13.66,1.59,25.8,3.2,36.32,4.84,0,57.27,.01,118.04,.02,181.59,.14,440.44,.66,1014.72,.87,1486.96,.04,81.51,.07,86.27,.09,160.49Z"/>
    </g>
  </g>
</svg>