<?xml version="1.0" encoding="UTF-8"?>
<svg id="Layer_2" data-name="Layer 2" xmlns="http://www.w3.org/2000/svg" viewBox="0 0 1023.79 20.44">
  <defs>
    <style>
      .cls-1 {
        fill: #98c6b3;
      }
    </style>
  </defs>
  <g id="Capa_1" data-name="Capa 1">
    <g>
      <path class="cls-1" d="M1023.56,15.28c.52-.37,.18-1.13-1.3-.92l-.99,1.37,2.29-.45Z"/>
      <path class="cls-1" d="M1013.46,13.25c-1.72,.71-3.68,1.93-2.5,3.09,1.67-1.34,2.12-.83,3.91-2.42,1.48-.22,2.61,.32,2.38,.81,.51-.36,2.32,.19,3.08-.67-1.98-.94-4.43-.88-6.95,.07-.56-.27-.04-.64,.07-.89Z"/>
      <path class="cls-1" d="M868.34,14.21l.94,.15c-.26-.09-.58-.13-.94-.15Z"/>
      <path class="cls-1" d="M778.45,13.4c.68-.03,.97-.16,1.01-.28-.64,.08-1.16,.16-1.01,.28Z"/>
      <path class="cls-1" d="M763.11,11.85c.33,.04,.61,.07,.9,.1-.34-.12-.69-.2-.9-.1Z"/>
      <path class="cls-1" d="M868.34,14.21l-2.4-.41c-.17,.43,1.23,.32,2.4,.41Z"/>
      <path class="cls-1" d="M993.57,17.24c.5-.08,.92-.22,1.29-.39-.41,.07-.81,.13-1.22,.18-.02,.07-.04,.13-.07,.21Z"/>
      <path class="cls-1" d="M907.96,12.81h.73c.21-.17,.41-.35,.6-.56l-1.33,.56Z"/>
      <path class="cls-1" d="M938.36,12.16c-.69-.03-.91,1.09-1.16,1.59,.38-.47,.88-.7,1.49-.8,0-.21-.09-.47-.32-.79Z"/>
      <path class="cls-1" d="M986.6,12.9l.85-.18c-.22,.05-.59,.11-.85,.18Z"/>
      <path class="cls-1" d="M886.2,12.76c-.05-.17-.16-.31-.28-.4,0,.14,.11,.27,.28,.4Z"/>
      <path class="cls-1" d="M35.57,11.2c.02-.08-.01-.13,0-.2-.17,.12-.22,.2,0,.2Z"/>
      <path class="cls-1" d="M.17,7.37l.48-.09c.03-.22,.07-.43,.05-.63l-.54,.73Z"/>
      <path class="cls-1" d="M735.03,10.17c.05,0,.07,.01,.12,.02,.74-.12,.32-.1-.12-.02Z"/>
      <path class="cls-1" d="M477.16,6.79c2.9,1.06-4.78,1.19-.41,2.4-.4-.45,4.03-1.67,.41-2.4Z"/>
      <path class="cls-1" d="M992.78,17.12c-.41,.03-.83,.05-1.25,.05,.57,.02,.95,0,1.25-.05Z"/>
      <path class="cls-1" d="M476.76,9.19h0s.45,.12,.45,.12c-.19-.05-.29-.08-.45-.12Z"/>
      <path class="cls-1" d="M670.31,10.08c.13,.2,.39,.35,.65,.5-.02-.12-.17-.26-.65-.5Z"/>
      <path class="cls-1" d="M718.51,12.27l-1.19-.16c.47,.11,.86,.15,1.19,.16Z"/>
      <path class="cls-1" d="M645.25,11.3c-.65-.1-.87-.25-1.75-.12,.08,.06,.16,.1,.27,.14,.32-.15,.75-.21,1.49-.02Z"/>
      <path class="cls-1" d="M619.19,10.9c.14,.09,.32,.16,.48,.23,.26-.01,.56-.03,.83-.05l-1.3-.19Z"/>
      <path class="cls-1" d="M114.61,9.94c-.57-.32-.92-.67-1.2-1.01,.4,.8-3.43,1.08,1.2,1.01Z"/>
      <path class="cls-1" d="M993.54,16.61c-.14,.29-.36,.44-.76,.51,.3-.02,.59-.05,.87-.09,.07-.17,.08-.33-.11-.42Z"/>
      <path class="cls-1" d="M644.06,20.16l-4.14-.23c1.16,.13,2.66,.21,4.14,.23Z"/>
      <path class="cls-1" d="M301.51,12.4l-.95,.12c.37,.03,.7,0,.95-.12Z"/>
      <path class="cls-1" d="M627.63,19.9c-.73-.41-1.51-.65-2.32-.81-.17,.09-.37,.15-.49,.28l2.81,.53Z"/>
      <path class="cls-1" d="M113.4,8.92s0,.01,0,.01c0,0,0,0,0-.01Z"/>
      <path class="cls-1" d="M86.16,11.59c3.94,.01,1.85-1.46,2.68-2.31,4.7-.44,2.18,1.08,3.78,1.82,2.94-.39,5.19-1.74,7.38-1.68,.16,.24,.59,.33,.09,.64,3.11-1.17,9.22-.04,12.84-1.51,.27,.13,.4,.26,.47,.37-.58-.74-.67-1.49-.55-2.03,1.77-.02,3.29-.93,3.95,.04-1.08-.03-1.18,.36-1.68,.66l1.85-.42c1.66,1.39-2.53,.48-2.53,1.5,3.61-.45,7.83-1.57,10.6-1.16,.57,1.36-6.48,.41-2.79,1.65l-4.28-.54c3.26,2.15-2.6-.16,.4,2.14,5.63,.43,6.31-.65,11.92-.22,1.27-.75-.41-1.12,.86-1.87,8-1.3,6.26,3.46,12.15,1.69,1.53-.89,2.13-2.62,6.31-1.66l-1.44,1.52c5.46,.21,3.14-2.17,8.84-1.08-1.02,.59-4.29,.46-3.47,.65,3.69,1.25,2.63-.84,5.47-.81l.58,1.37c5.81-.15,12.22-1.07,18.66-1.24-.36,.4-1.47,.81,.03,1.25,8.12-.57,17.32,.4,25.14,1.32l3.01-1.13c.7,.02,1.28,.55,.53,.77,3.04,.49,.17-.74,1.64-1.18,1.74-.05,2.28,.71,1.18,1.05,5.4-.91,15.37-1.9,21.02-.55l-1.11,.33c4.41,.55,5.03-2.33,9.1-1.16l-.79,.2c9.58,.68,20.2-.2,27.48,1.7,1.42-1.67,9.48,.92,10.14-1.42,5.45,1.27,3.88,1.67,11.57,2.6,2.06,.15,3.1-1.41,5.65-1.61l.04,1.23,3.48-1.23,1.81,1.51,2.39-.27c-.95-.09-2.01-.59-1.86-.94,3.74-.49,9.08,1.03,9.16,1.67l8.85-.86c-.21,.49-1.69,.63-2.86,.92,4.74-1.16,.83,1.32,5.17,.25-.57-.29,.33-.73,.43-.98,2.14,.79,7.03,.89,10.67,.65l-.71,.84c6.54,.35,13.81-.13,21.15,.04-2.63-.45-1.99-1.91,.17-2.01l.83,1.32c1.41-.78-2.24-.54,.64-1.47,2.74,.21,1.81,1.52,.23,1.91l3.35-.38c.19,.39-.6,.58-.81,1.07,1.39-.78,5.73,1.43,7.74,.06l.18,.39c7.34,.16,10.68-.22,16.67-.16,.14-1.12,2.47-.82,4.28-1.7,4.39,.45,9.25,1.44,14.55,1.45,3.73-.48,1.11-.93,2.8-1.56,.25,1.03,5.55,1.05,2.79,1.72,6.36-.03,8.13-.03,16.18-.7-.86-.44-1.84-.64-1.33-.98,1.46-.14,3.31,.5,3.09,.99l-.39,.1c9.06-1.35,20.77,3.42,28,1.44l-.41,.1,7.48-.96c3.43,.25-2.07,.73,.45,1.41,8.08-1.54,12.7,.51,19.34-.5,5.06,3.12,18.19,.16,25.07,2.23l-.39-.72c1.8-.66,2.15,.45,3.47,.64-.18-.56-1.93-.68-.81-1.04,15.16-.56,31.24,1.66,46.76,2.59,5.68,.3,3.29-3.62,10.42-1.79l-2.06,1.28c11.49-1.36,23.44,.48,34.69-.67-.67,.29-.7,.69-1.8,.67,2.35,1,8.76,.2,8.82-.58,1.75,.12,.39,.71,1.46,1.13,2.37,.61,5.99-1.12,7.24-.14,.21,.16-.67,.3-1.11,.37,1.56-.44,7.22,.24,5.75-.89,4.2,.59,8.07-.36,11.42,.34,2.21-1.2,7.2,.71,7.92-1.03-.33,1.8,7.36,1.58,10.04,.77-.9,.53,2.31,.6,1.25,1.34,3.04,.02,5.83-.27,5.31-1.21,5.57,2.25,11.28-1.59,14.39,1.23,9.04-.85,17.41-1.39,25.53-1.7-.32,1.8-8.98,.06-8.66,1.95,7.72-.63,12.18-2.13,19.82-1.61,1.98,.27-1.13,.77-1.8,1.07,7.71-.66,14.88,.33,21.74-.57-.02,.17-.76,.34-1.46,.47,1.35-.04,3.14,.3,2.99-.52l-1.32,.21c-2.14-1.21,5.39-2.43,5.63-3.05-2.32,2.33,6.76,.66,3.09,3.59,.89-.15,2.01-.53,1.81-1.08,1.32,.17,1.73,.49,.39,1.11,4.84-.4,3.13-1.29,7.51-1.24-.02,.4-.9,.54-1.36,1.01,2.23-.75,4.46-1.51,8.16-1.14-.22,.24,.2,.55-.9,.54,6.36-.07,10.85-1.97,17.82-1.16-2.07,1.71,2.37,.59,2.73,2.08l3.75-.43-1.5-.73c3.29,.04,6.2-1.03,9.02-.53l-2.45,.6,6.16-.25-3.48-.58c3.33-.75-.35-1.89,4.03-1.45-.89,.15,3.29,.04,4.99,.92h-.01c1.63-.46,3.3-.95,5.73-.57,.63,.48-.52,1.65-.11,1.97,1.61-1.24,7.7-.3,9.73-1.62-.68,.31-.72,1.09-.49,1.25l1.35-1.01c1.52,.33,1.74,.48,1.49,1.11,4.58,.19-1.45-1.9,3.98-1.07-.43,.08-.22,.23-1.11,.39,5.46,.43,10.55-.63,15.56-.12,1.48,1.5-4.38,.36-2.69,1.63,7.23-.27,14.97-1.76,21.97-1.43l-1.3-.16c.97-2.12,5.21,1.03,8.75,.02-.87,.16-1.13,1.18-.9,.94,4.79,.33,9.8-.55,17.06-1.24l-.9,.55c2.83,.47,7.44,.27,10.49,.48,.9-.55,2.65-.48,1.58-1.26,9.43,3.02,17.93-1.81,26.3,.7-1,.01-2.37,.5-1.58,.49l7.1-.58c-.57-.92-.94-.55-2.44-1.24,.89-.56,2.89-1.02,4.66-1.04-3.19,.66,.05,1.48,1.43,1.98-.24-.28,.23-.6,.11-.89,3.73,1.59,.6-1.87,5.68-.84l-.26,.49c1.89-.28,3.63-.94,5.68-.83,.86,1.06-2.01,.53-2.13,1.41,2.87-.1,5.64-2.11,8.26-1.08-1.22,.32-2.97,.35-4.19,.66,2.85,1.21,3.18,.89,5.28,1.06l-.21-.03,4.88,.5-1.25-.32c3.55-2.83,7.32-.65,12.12-2.58-4.67,1.83-.76,1.02-1.09,2.24,1.24,.31,3.13,.64,2.6,1,2.27-1.03,3.84,.69,7.04-.81,.15,.39,2.45-.02,1.96,.97,2.97-.37-.72-.66-.48-1.16,4.56-1.45,10.83,1.41,17.38-.64,5.67-.93,6.68-2.28,11.94-3.1,1.8,.57-1.41,1.47-1.41,1.47,2.89,.48,5.05,.31,7.75-.22-.54,.36,.04,.63,.88,1.04,2.17-.17,1.4-1.46,4.29-.98-.48,.46-1.08,1.17-2.12,1.64,2.55-.42,5.06-1.29,7.69-1.74,.73,.65-1.56,1.1-2.48,1.58,2.97-.43,7.7-.94,8.58-2.05l-1.93-.3c1.08-.1,.6,.9-.2,1.13-2.52,.95-3.7-.22-3.86-.6l1.88-.33c-2.03-2.22-7.57,.71-11.38,.67l1.53-1.71-3.85,1.5c-.84-.41-1.44-1.32,.43-1.63-2.75-.74-2.39,.67-4.76-.18-.26-.13-.15-.22,.09-.29l-2.65,.58c.51-.37-.48-1.16,1.16-.97-4.81-.81-7.66,1.49-9.5,.28l.4-.11c-6.61,.77-.6,1.24-5.54,2.83l-3.43-2.92-.62,1.23c-.69-.03-2.04-.09-1.8-.58-2.52,.89,.45,.52-1.01,1.34-3.32-1.04-9.07,.72-9.85-1.21-1.16,.95,3.17,.65-.34,1.37-1.05-2.07-4.06,.45-7.08-.45,.9-1.1,3.76-.59,.73-1.49-1.78,1.86-5.86-.27-8.39,.13-.09,1.47-5.51,.69-9.75,1.24,.26-.49-8.02-.68-11.99-1.15l.11-.25c-.75,1.48-4.84,1.26-7.81,1.61,.11-.88,.64-1.24,2.24-1.65l-2.8,.05c-.65,.48-1.52,.74-3.33,.93l.69-1.11c-3.72,.1-7.48,1.36-12.28,.66-.26,1.03,3.84,2.82-1.22,3.55-.19-.55-.39-1.5,.93-1.74-.43,.08-1.54,.47-2.42,.24l2.01-.95c-2.18-.39-1.13,.79-2.88,.72,.03-.79-1.3-.55-1.05-1.18,.44-.08,1.52,.31,2.19,0-1.97-.13-4.35-.57-5.14-1.16,.17,.45,0,1.06-1.43,1.18-3.72,.09-1.28-.94-3.45-1.33-.9,.56-3.28,0-3.33,1.19-1.09,0-1.29-.55-1.72-.86-1.92,.55-9,.2-6.82,1.45l.49,.08c-.09,.02-.2,.03-.31,.05h0c-6.31,1.19-13.12-.63-19.38-.1v-.4c-3.73,.46-8.31,.29-10.98,1.15-1.11,0-2.61-.72-2.14-1.19-2.86,.29-3.18,.74-7.31,.08,2.87-.69-.99-.61,2.95-.5-3.71-.35-4.56-.98-8.54,.09,1.36-1.01-2.8-1.28-4.56-.98l2.6,.73c-1.99,.14-3.72,.05-5.49-.04l.96-1.33c-7.6-1.64-13.72,2.75-19.49,0-2.01,.92,4.13,.68,2.32,1.76-3.5-.2-7.13-2.13-8.23-2.14-4.79-.76-4.48,1.92-9.49,1.39,.64,.48,1.24,1.75-2.51,2.18-3.5-.19-4.29-2.01-2.08-2.38,.84-.04,1.24,.12,1.21,.28,1.13-.17,2.62-.36,1.23-.88l-.46,.47c-1.73-.49-6.55-.47-5.41-1.24-2.65,.44-1.14,.77,.82,1.03-4.48-.71-7.01-.05-11.63-.55,.73,.27,1.41,.83,.67,.82-6.77-.65-2.99,.87-7.58,1.04-2.6-.75,.95-1.72-3.68-1.15-2.82-.51-.59-1.26,.54-1.64-4.22,.88-7.86-.67-10.26-.86l2.22-.36c-1.33,.22-2.41,.2-3.52,.19l1.26,.96c-1.3-.18-2.4-.19-2.38-.58-1.35,.61,1.01,1.59-1.66,2.42-1.73-.5-5.29,.47-5.88-.79,5.46,.47-.59-1.27,4.03-1.43-.89,.14-1.98,.13-3.28-.05-.19-.14,.19-.26,.54-.33-5.21-1.17-2.41,1.41-7.83,1.33,.69-.7-1.24-1.36-2.13-1.22,2.18,.04,1.03,1.2-.98,1.72-3.47-.59-3.78,.37-5.6,.28l2.07,.28c-.71,.7-2.45,.59-4.87,.79-.2-.56,2.2-.36,1.34-.61-2.7,1.22-6.06-1.36-9.82-.56-1.73-.5-.15-1.34-1.67-1.68-4.21,.87-4.54-1.02-8.96-.31,1.26,.97,1.49,.74-1.63,1.63l7.26-.59-4.67,1.33c2.19,.04,4.63-.55,5.94-.37-2.23,.75-2,.52-.96,1.32-2.98-1.47-5.95,.77-9.41-.24l.14-2.36c-5.19-1.11-9.27,1.09-16.02,.4l2.17,.44c-.92,.93-4.18,.07-6.37,.42,.21-.79-1.15-1.09-2.08-1.6,.11,.59-4.95-.12-5.59,1.45l-3-1.08c-5.45-.5-6.26,2.17-11.51,1.82,1.59-.83-.78-1.43,2.74-1.99-1.75-.03-3.33-.2-3.36,.35-1.02-.51-4.88,.99-6.48,.21-.74,.34-1,1.16-2.97,1.06-.21-.16,.01-.39,.01-.39-.01,.39-3.09,.48-1.38,1.38-5.36-2.55-15.09-.06-19.76-2.25-3.83,.21-8.44,.39-11.92,.38,.23-.23,.02-.39,.67-.3-4.78-.82-2.98,2.22-8.42,1.3-2.76-1.32,2.91-.64,1.18-1.15-.71-2.61-6.58,.24-10.23-1.34l.89-.14c-2.79-.93-6.86,.86-11.44,.6,0,0,.23-.23,.03-.39-3.16,1.27-9.1,1.6-13.51,1.89,1.39-.99,2.01-.5,1.19-1.55-1.98,.11,.55,1.67-3.4,1.88-1.27-.58-4.11-1.12-4.46-2.23h3.72c-1.88-1.45-4.82-.03-6.77-.32l.26-.62c-5.7,.1-5.81,1.66-11.94,1.44l.62,.48c-3.38,1.49-2.79-.93-6.15,.17l-.98-1.6c-2.22,.34-7.77,1.38-11.74,1.6,2.27-1.13,6.91-1.63,9.8-2.27-2.19-.05-7.44-.03-8.6,.73,.89-.13,2-.5,2.87-.24-2.71,1.19-6.26,1.73-10.62,1.61,.83-3.05-11.36-1-14.48-3.44-7.74,.98-15.3-.79-24.3-.79,3.14,2.45-2.63,.01-2.12,2.47-2.1,.11-2.9,.06-3.08-.11l-6.32-1.59c-1.49-.74,2-.5,1.82-1.05-4.58-.28-1.9-1.08-4.92-1.79,.6,.89-1.62,1.22-4.23,.83l3.66,1.2c-6.44,1.17-5.5-2.16-11.98-1.01l2.06-.73c-3.32,.38-12.23-.27-15.52,1.63-.58-.29-1.34-.98,.12-1.13-7.92-.46-17.68,1.72-23.81,.38l.61-.58c-1.48,.14-2.6,1.07-4.43,.43,.1-.25,.61-.58-.08-.63-.79,.19-3.95,.97-5.9,.58l1.69-.64c-7.71-.95-11.9,1.39-18.38,1.66,.05-1.76-6.02-2.46-9.04-2.81l.11-.25c-9-.41-15.32,1.14-23.67,1.66-5.13-2.02-17.51-1.16-25.8-2.4,1.26,.35-.23,1.37-1.72,1.51-1.94-.4-5.42,1.11-5.08-.5l.7,.05c-1.44-1.61-5.46-1.27-8.59-1.38l-.56,2.1c-8.13-3.24-21.48,.71-25.9-2.13-1.99,.49-4.43,.44-6.4,.93l.13-1.13c-5.47-.39-8.2-.59-14.98-.45l1.4-.78c-3.82-.14-4.88,3.18-8.41,3.18l-1.03-1.71c-6.66-.09-13.38-1.7-19.99-.28,.11-.25,.32-.73,1.4-.78-3.13-.11-12.11-1.35-11.01,.99-.05-1.51-6.87-.26-10.48,.35l.58-1.11c-3.06,1.37-3.16,1.76-7.41,2.09-1-.16-.87-.91,.46-.6-3.34-.64-2.63,1.01-6.68,.35l1.52-.69c-3.44-.14-3.18,.24-5.09,1.05-2.17,.42-6.53-.37-7.03-1.39-.47,.61-2.37,1.4-4.4,1.09-.27-.38,.47-.61,.85-.72-5.75-.84-8.58,1.18-12.53,.03-.08-.37-.33-.56-.66-.67,4.58,.09,8.26,.2,7.92,.28,.01-1.03-3.68-1.26-.72-2.64-2.98,.73-8.08,2.35-11.67,1.81-.17-.1-.34-.2-.47-.36l.37-.11c-.83-.11-1.58-.03-2.28,.14-1.15-.18-1.88-.31-2.98-.34-.42-.85-4.24-.5-6.08-.56,.14,1.13-2.27,.92-.02,1.87-.29-.08,.35-.13,1.58-.16,.28-.03,.6-.04,.79-.11-.04,.03-.08,.07-.13,.1,1.21,0,2.79-.02,4.58-.03-1.46,.56-2.99,1.02-5.02,.37-.95,.71-2,1.44-2.59,1.79-2.51-1.6-7.36-2.49-8.03-3.47-5.64,.57-13.27,.27-16.83,2.37-1.6,.26-1.84-.62-2.43-.95,.93-.21,2.03-.17,2.53-.47-3.21,.52-9.49,.15-10.26,1.62-4.03-.69,2.28-1.34-3.27-1.14l.75-.45c-10.9-2.45-17.74,3.71-29.83,.65,.84,.19,1.26,.27,1.43,.52-6.89-.7-14-.31-21.08-.07-7.08,.23-14.13,.45-20.96-.51-3.88-.37-4.28,.58-6.63,1.32l-.86-1.2-4.01,1.48c-5.69,1.18-10-2.73-17.19-.57l.96,.77c-2.61-.04-8.23,.83-7.83-.12-.26,.16-.82,.88-1.85,.5l-.11-.63-6.34,1.36c-4.99-.12,.64-2.56-6.64-2.19C3.95,3.67-.9,5.6,.15,5.95c1.09-.04,2.81,.21,2.94,.83l-2.43,.49c-.3,1.89-1.98,3.91,4.07,4.81l4.07-1.42,1.4,.81-3.49,.29c2.04,.71,3.24-.12,4.62-.73,.36,.46,.96,.75,1.8,.88,1.32-.69,2.67-1.31,4-1.97,.53,.71-1.77,1.52,1,1.81,1.88-.91-1.92-1.55,1.23-2.23,2.04,.76,1.48,1.47,3.8,.65,.35,.47-.13,.79-1.05,1.04,2.06-.66,5.51-.48,6.55-1.51,2.12,.95,7.06-.47,6.9,1.29,.64-.44,3.65-1.48,5.57-1.6-3.46,2.2,7.2-.06,6.32,2.22,2.56-1.96,9.38-.98,13.97-2.1-.26,.15-.76,.47-1.17,.38,2.6,.12,3.36,.68,5.03,1.02,.32-1.57,4.35-2,6.53-2.96,3.2,1.5-1.92,1.85-.91,3.3-.17-1.27,5.52-1.3,4.43-2.35,2.44,.92,2.1,.44,3.36,1.74,.41-1.96,2.26-.34,4.28-1.56,3.53,.95,.91,1.83,4.78,1.22,1.84,.59-1.6,1.3-1.6,1.3Zm92.1-2.85s0,.02,0,.02c-.79,.02-1.47,.03-1.9,.04,.4-.01,.95-.03,1.9-.06Zm7.74,.09c-.94-.06-2.12-.08-3.36-.09-.27-.39,.03-.79,.81-.76-.43,.25,1.4,.5,2.55,.85ZM169.71,.83c1.23-.15,1.64,.08,1.8,.31-.58,.01-1.26,.04-2.15,.11-.04,.04-.11,.09-.15,.14,.12-.21,.26-.41,.49-.56Z"/>
      <path class="cls-1" d="M167.49,2.28c-.18,.02-.28,.07-.51,.08,.25,.1,.49,.19,.73,.26,.15-.12,.3-.24,.44-.35-.22,0-.45,0-.66,.01Z"/>
      <path class="cls-1" d="M869.44,14.39l-.16-.03c.14,.04,.26,.09,.34,.16-.11-.05-.11-.09-.18-.13Z"/>
      <polygon class="cls-1" points="292.87 12.78 292.87 12.5 292.18 12.73 292.87 12.78"/>
      <path class="cls-1" d="M912.14,17.86c.08,.1,.24,.2,.56,.28-.03-.07-.27-.17-.56-.28Z"/>
      <path class="cls-1" d="M930.57,17.85l2.61,.36c-1.13-.21-1.96-.31-2.61-.36Z"/>
      <path class="cls-1" d="M944.76,18.14c.18-.2,.22-.35,.27-.49-.01,0-.02,0-.03,0l-.24,.49Z"/>
      <path class="cls-1" d="M719.4,19.81c-.19,0-.38,.02-.55,.04-1.29,.2-.41,.13,.55-.04Z"/>
      <path class="cls-1" d="M786.47,17.71c-.71,.2-1.41,.4-2.16,.52,1.19,.09,2.12,.12,2.16-.52Z"/>
      <path class="cls-1" d="M644.51,20.18s0,0,0-.02c-.16,0-.3,0-.46,0l.45,.03Z"/>
      <path class="cls-1" d="M781.2,18.2c1.19,.23,2.19,.19,3.12,.04-.98-.08-2.13-.2-3.12-.04Z"/>
      <path class="cls-1" d="M1006.22,16.85l.68,.02c-.01-.07,.02-.14,.07-.18l-.76,.17Z"/>
      <path class="cls-1" d="M1006.98,16.69l.75-.16c-.35,.01-.65,.04-.75,.16Z"/>
      <path class="cls-1" d="M1009.31,16.17l-1.58,.35c.55-.02,1.24-.01,1.58-.35Z"/>
      <path class="cls-1" d="M987.43,17.02l-.2,.41c.11-.09,.19-.22,.2-.41Z"/>
      <path class="cls-1" d="M981.73,17.31c1.36,.05,3.44,.76,5.33,.45l.17-.33c-.87,.63-4.23-.85-5.5-.12Z"/>
      <path class="cls-1" d="M957.81,12.92l4.78,.22c-.85-.42-1.96-.98,.21-1.13-6.05-1.16,1.27,.94-4.99,.91Z"/>
      <path class="cls-1" d="M943,12.62c2.56-.26-.04-.63,.09-.88-1.62,.43-2.01,.54-.09,.88Z"/>
      <path class="cls-1" d="M836.04,13.58l.26-1.02c-1.98,.14-.02,.4-.26,1.02Z"/>
      <polygon class="cls-1" points="815.58 18.84 817.5 19.48 818.42 18.54 815.58 18.84"/>
      <polygon class="cls-1" points="803.51 11.54 804.38 11.39 801.08 11.75 803.51 11.54"/>
      <path class="cls-1" d="M623.85,9.98l.58,1.27c1.34-.2,1.64-1.62-.58-1.27Z"/>
      <path class="cls-1" d="M546.25,9.89c-.83-.65-3.01-1.09-4.36-.5,1.74,.12,3.47,.64,4.36,.5Z"/>
      <polygon class="cls-1" points="313.64 3.08 315.21 2.69 312.27 2.98 313.64 3.08"/>
    </g>
  </g>
</svg>