<?xml version="1.0" encoding="UTF-8"?>
<svg id="Layer_2" data-name="Layer 2" xmlns="http://www.w3.org/2000/svg" viewBox="0 0 1032.69 23.52">
  <defs>
    <style>
      .cls-1 {
        fill: #98c6b3;
      }
    </style>
  </defs>
  <g id="Capa_1" data-name="Capa 1">
    <g>
      <path class="cls-1" d="M1032.09,22.73c.58-.27,.38-1.09-1.13-1.11l-1.22,1.19,2.35-.09Z"/>
      <path class="cls-1" d="M1022.39,19.16c-1.82,.44-3.96,1.33-2.96,2.67,1.87-1.07,2.23-.49,4.26-1.79,1.51,.02,2.55,.72,2.24,1.17,.57-.28,2.27,.55,3.17-.18-1.81-1.24-4.26-1.56-6.92-1.01-.52-.35,.06-.64,.21-.86Z"/>
      <path class="cls-1" d="M876.32,8.03l.94,.19c-.25-.09-.58-.15-.94-.19Z"/>
      <path class="cls-1" d="M785.58,4.99c.69-.02,.98-.14,1.02-.26-.64,.07-1.17,.15-1.02,.26Z"/>
      <path class="cls-1" d="M770.1,3.24c.33,.04,.61,.07,.91,.1-.35-.13-.7-.2-.91-.1Z"/>
      <path class="cls-1" d="M876.32,8.03l-2.41-.49c-.18,.43,1.23,.36,2.41,.49Z"/>
      <path class="cls-1" d="M1002.01,20.32c.51-.02,.94-.1,1.34-.23-.42,.02-.82,.03-1.24,.03-.03,.07-.05,.13-.1,.2Z"/>
      <path class="cls-1" d="M916.36,8.55l.74,.03c.22-.14,.44-.31,.64-.51l-1.37,.48Z"/>
      <path class="cls-1" d="M947.07,9.88c-.69-.09-1,1.02-1.29,1.49,.42-.44,.94-.63,1.56-.68,.02-.21-.05-.47-.27-.81Z"/>
      <path class="cls-1" d="M995.56,15.16l.87-.08c-.23,.03-.61,.04-.87,.08Z"/>
      <path class="cls-1" d="M894.39,7.4c-.05-.17-.15-.32-.26-.41,0,.14,.1,.28,.26,.41Z"/>
      <path class="cls-1" d="M35.99,22.09c.02-.08-.02-.13-.01-.2-.17,.12-.22,.2,.01,.2Z"/>
      <path class="cls-1" d="M.17,18.84l.49-.1c.03-.22,.07-.43,.05-.64l-.54,.73Z"/>
      <path class="cls-1" d="M741.75,1.39c.05,.01,.07,.01,.13,.02,.75-.12,.33-.1-.13-.02Z"/>
      <path class="cls-1" d="M481.32,1.74c2.96,.98-4.79,1.33-.34,2.41-.42-.44,4.02-1.79,.34-2.41Z"/>
      <path class="cls-1" d="M1001.23,20.1c-.41-.02-.83-.05-1.25-.1,.57,.09,.95,.12,1.25,.1Z"/>
      <path class="cls-1" d="M480.98,4.15h0s.46,.11,.46,.11c-.19-.05-.3-.07-.46-.11Z"/>
      <path class="cls-1" d="M676.38,1.43c.13,.2,.39,.35,.66,.5-.02-.12-.17-.26-.66-.5Z"/>
      <path class="cls-1" d="M725.06,3.46l-1.2-.16c.48,.11,.86,.15,1.2,.16Z"/>
      <path class="cls-1" d="M651.09,2.86c-.65-.09-.88-.24-1.77-.1,.08,.06,.16,.1,.27,.14,.32-.15,.76-.22,1.5-.04Z"/>
      <path class="cls-1" d="M624.77,2.79c.14,.09,.32,.15,.48,.23,.26-.02,.57-.04,.83-.06l-1.32-.17Z"/>
      <path class="cls-1" d="M115.75,18.19c-.59-.3-.96-.63-1.25-.97,.43,.78-3.42,1.2,1.25,.97Z"/>
      <path class="cls-1" d="M1002.05,19.68c-.18,.27-.41,.39-.82,.41,.3,.01,.59,.02,.87,.02,.09-.16,.12-.32-.05-.43Z"/>
      <path class="cls-1" d="M649.98,11.73l-4.18-.18c1.17,.11,2.69,.17,4.18,.18Z"/>
      <path class="cls-1" d="M304.33,13.24l-.96,.15c.37,.02,.71-.02,.96-.15Z"/>
      <path class="cls-1" d="M633.4,11.68c-.74-.4-1.53-.63-2.35-.78-.17,.09-.37,.16-.49,.29l2.84,.5Z"/>
      <path class="cls-1" d="M114.49,17.21s0,.01,0,.01c0,0,0,0,0-.01Z"/>
      <path class="cls-1" d="M87.1,20.89c3.98-.12,1.81-1.52,2.62-2.4,4.73-.61,2.24,1,3.88,1.69,2.95-.51,5.17-1.96,7.38-1.97,.17,.24,.61,.31,.11,.63,3.09-1.28,9.3-.38,12.9-1.98,.28,.12,.42,.24,.49,.35-.62-.72-.73-1.47-.63-2.01,1.78-.09,3.28-1.05,3.98-.11-1.09,0-1.17,.4-1.67,.72l1.85-.48c1.73,1.33-2.53,.57-2.5,1.6,3.63-.58,7.84-1.88,10.64-1.58,.63,1.34-6.51,.69-2.75,1.76l-4.34-.37c3.37,2.03-2.63-.06,.48,2.13,5.7,.2,6.33-.92,12.02-.7,1.25-.79-.46-1.1,.79-1.9,8.02-1.61,6.45,3.22,12.32,1.22,1.51-.95,2.05-2.69,6.3-1.91l-1.39,1.58c5.51-.02,3.08-2.31,8.87-1.45-1.01,.63-4.31,.64-3.47,.8,3.77,1.09,2.62-.95,5.49-1.03l.63,1.34c5.86-.38,12.28-1.54,18.77-1.97-.35,.41-1.45,.87,.08,1.24,8.17-.92,17.49-.3,25.4,.31l2.99-1.25c.7,0,1.32,.5,.56,.74,3.09,.37,.14-.75,1.61-1.25,1.75-.13,2.33,.62,1.23,1,5.41-1.14,15.42-2.53,21.18-1.39l-1.11,.37c4.47,.38,4.98-2.52,9.13-1.52l-.79,.23c9.69,.29,20.36-1.03,27.77,.6,1.37-1.72,9.59,.56,10.17-1.81,5.55,1.06,3.97,1.51,11.77,2.14,2.08,.07,3.07-1.54,5.63-1.83l.09,1.23,3.46-1.35,1.88,1.44,2.4-.36c-.96-.06-2.05-.52-1.91-.87,3.75-.63,9.19,.7,9.3,1.33l8.89-1.2c-.19,.5-1.68,.7-2.85,1.03,4.73-1.34,.89,1.28,5.22,.05-.59-.27,.3-.74,.4-.99,2.18,.71,7.13,.63,10.78,.25l-.69,.86c6.61,.11,13.92-.62,21.33-.72-2.67-.35-2.08-1.84,.1-2.01l.89,1.29c1.39-.83-2.28-.46,.59-1.49,2.77,.11,1.88,1.45,.3,1.9l3.36-.5c.2,.39-.58,.6-.78,1.1,1.37-.83,5.83,1.22,7.8-.22l.2,.38c7.41-.11,10.77-.59,16.8-.73,.1-1.13,2.47-.91,4.25-1.84,4.44,.3,9.38,1.12,14.72,.96,3.75-.61,1.09-.97,2.77-1.66,.29,1.02,5.63,.86,2.87,1.63,6.41-.25,8.19-.3,16.3-1.22-.89-.41-1.88-.58-1.37-.94,1.47-.18,3.36,.39,3.15,.89l-.39,.11c9.09-1.63,21.05,2.76,28.28,.56l-.41,.11,7.51-1.17c3.46,.15-2.07,.79,.5,1.4,8.1-1.78,12.82,.14,19.49-1.05,5.19,2.97,18.35-.35,25.34,1.55l-.41-.71c1.8-.71,2.18,.4,3.52,.55-.19-.55-1.96-.63-.84-1.02,15.28-.95,31.55,.87,47.22,1.48,5.73,.18,3.24-3.69,10.47-2.01l-2.05,1.33c11.56-1.63,23.65,.03,34.97-1.32-.68,.3-.69,.7-1.8,.7,2.39,.96,8.84,.05,8.88-.73,1.76,.09,.41,.71,1.49,1.11,2.4,.57,6.02-1.22,7.3-.27,.22,.16-.67,.31-1.11,.39,1.56-.47,7.28,.14,5.79-.98,4.25,.54,8.13-.47,11.52,.2,2.21-1.23,7.27,.62,7.98-1.13-.31,1.81,7.44,1.48,10.13,.64-.9,.54,2.33,.57,1.28,1.33,3.07-.02,5.88-.34,5.35-1.27,5.64,2.2,11.36-1.67,14.53,1.13,9.11-.91,17.55-1.51,25.74-1.88-.31,1.8-9.06,.12-8.72,2.01,7.78-.7,12.27-2.2,19.98-1.68,1.99,.27-1.14,.77-1.82,1.07,7.77-.66,15.01,.32,21.93-.59-.02,.17-.77,.34-1.47,.47,1.36-.04,3.16,.3,3.02-.52l-1.33,.21c-2.16-1.21,5.44-2.43,5.69-3.06-2.34,2.32,6.82,.68,3.11,3.6,.9-.14,2.03-.51,1.83-1.06,1.33,.18,1.75,.51,.39,1.11,4.88-.38,3.16-1.27,7.58-1.19-.02,.4-.91,.54-1.38,1,2.25-.74,4.51-1.48,8.24-1.09-.23,.24,.2,.55-.91,.53,6.41-.03,10.96-1.9,17.99-1.05-2.1,1.7,2.38,.6,2.73,2.1l3.79-.37-1.51-.75c3.31,.09,6.26-.94,9.1-.4l-2.47,.57,6.21-.16-3.5-.63c3.37-.7-.32-1.9,4.08-1.4-.9,.14,3.32,.08,5.03,1h-.01c1.65-.44,3.35-.91,5.79-.49,.63,.49-.55,1.64-.14,1.97,1.64-1.22,7.77-.2,9.84-1.49-.69,.3-.74,1.08-.52,1.25l1.38-.98c1.53,.36,1.75,.52,1.49,1.14,4.61,.3-1.42-1.93,4.04-.98-.43,.07-.23,.23-1.13,.36,5.49,.56,10.65-.38,15.69,.24,1.45,1.54-4.43,.26-2.75,1.57,7.29-.08,15.14-1.46,22.19-.87l-1.31-.21c1.04-2.09,5.22,1.21,8.82,.32-.88,.13-1.18,1.14-.94,.91,4.82,.49,9.89-.22,17.23-.66l-.93,.52c2.83,.56,7.49,.52,10.55,.9,.93-.51,2.69-.35,1.65-1.19,9.36,3.47,18.15-.99,26.45,1.95-1.01-.04-2.42,.36-1.62,.4l7.18-.16c-.52-.95-.91-.6-2.39-1.39,.93-.5,2.97-.83,4.75-.75-3.25,.46-.04,1.48,1.33,2.06-.22-.29,.27-.58,.17-.88,3.66,1.82,.71-1.83,5.77-.48l-.29,.47c1.92-.16,3.72-.72,5.77-.48,.8,1.11-2.06,.4-2.23,1.27,2.9,.08,5.82-1.75,8.38-.57-1.25,.24-3.01,.16-4.26,.4,2.79,1.39,3.14,1.08,5.25,1.39l-.21-.04,4.87,.85-1.23-.41c3.77-2.57,7.4-.08,12.38-1.62-4.84,1.45-.84,.95-1.28,2.14,1.22,.41,3.09,.89,2.53,1.2,2.36-.84,3.8,.99,7.14-.25,.12,.4,2.46,.18,1.88,1.13,3.01-.13-.66-.72-.38-1.19,4.71-1.04,10.72,2.38,17.49,1.02,5.77-.31,6.94-1.63,12.3-1.79,1.74,.78-1.58,1.28-1.58,1.28,2.84,.83,5.02,.92,7.78,.72-.58,.29-.04,.63,.75,1.14,2.19,.09,1.59-1.28,4.41-.45-.53,.39-1.23,1.02-2.32,1.36,2.6-.13,5.21-.62,7.91-.74,.64,.74-1.71,.88-2.69,1.24,1.51,0,3.46-.02,5.16-.08,1.7-.06,3.15-.24,3.67-.72l-1.87-.6c1.09,.07,.46,.98-.36,1.09-2.64,.53-3.65-.75-3.76-1.16l1.92-.07c-1.72-2.47-7.66-.32-11.46-.8l1.74-1.51-4.04,1.02c-.79-.51-1.29-1.48,.63-1.56-2.67-1.06-2.48,.37-4.76-.75-.25-.17-.12-.23,.12-.28l-2.72,.25c.55-.3-.35-1.21,1.28-.82-4.74-1.41-7.86,.66-9.58-.75l.41-.07c-6.73,.08-.74,1.17-5.85,2.24l-3.16-3.25-.74,1.17c-.69-.09-2.04-.28-1.76-.75-2.62,.65,.4,.56-1.14,1.24-1.62-.67-3.92-.71-5.88-.82-1.97-.1-3.61-.26-3.92-1.26-1.25,.86,3.13,.9-.45,1.34-.88-2.15-4.12,.12-7.09-1.01,1-1.02,3.84-.29,.86-1.42-1.94,1.72-5.89-.74-8.47-.54-.2,1.45-5.6,.27-9.92,.53,.3-.48-8.04-1.18-12.02-1.89l.13-.24c-.84,1.43-4.95,.96-7.97,1.12,.16-.87,.71-1.19,2.36-1.51l-2.82-.13c-.69,.44-1.58,.65-3.42,.73l.76-1.06c-3.76-.13-7.62,.95-12.43,.04-.31,1.01,3.73,3-1.41,3.48-.17-.56-.32-1.51,1.03-1.69-.44,.06-1.58,.4-2.45,.13l2.08-.85c-2.18-.49-1.18,.73-2.94,.58,.07-.79-1.28-.61-1-1.23,.45-.06,1.52,.38,2.21,.1-1.98-.22-4.36-.78-5.13-1.41,.16,.46-.04,1.06-1.5,1.11-3.76-.09-1.25-1-3.43-1.49-.93,.51-3.31-.15-3.41,1.03-1.1-.05-1.28-.61-1.7-.94-1.96,.44-9.09-.2-6.94,1.14l.5,.1c-.09,.02-.2,.02-.32,.04h.02s-.02,0-.02,0c-6.41,.98-13.22-1.08-19.56-.77l.02-.4c-3.79,.33-8.41,0-11.13,.77-1.12-.04-2.61-.8-2.12-1.26-2.89,.22-3.23,.66-7.38-.1,2.92-.62-.98-.63,2.99-.43-3.74-.43-4.57-1.09-8.63-.11,1.4-.98-2.79-1.34-4.58-1.09l2.61,.79c-2.01,.1-3.76-.04-5.54-.17l1-1.31c-7.64-1.8-13.91,2.39-19.69-.42-2.05,.89,4.16,.74,2.32,1.79-3.53-.25-7.17-2.23-8.27-2.25-4.82-.83-4.55,1.86-9.6,1.26,.64,.49,1.22,1.77-2.57,2.14-3.53-.24-4.31-2.07-2.07-2.41,.85-.02,1.25,.14,1.22,.3,1.14-.15,2.65-.32,1.26-.87l-.47,.47c-1.74-.52-6.61-.56-5.45-1.32-2.68,.4-1.16,.76,.82,1.04-4.52-.77-7.08-.16-11.74-.7,.74,.27,1.41,.84,.67,.82-6.83-.69-3.03,.86-7.67,1-2.62-.76,.97-1.71-3.71-1.18-2.84-.53-.58-1.27,.55-1.64-4.27,.85-7.94-.72-10.36-.92l2.25-.35c-1.34,.21-2.44,.19-3.56,.17l1.27,.97c-1.31-.19-2.43-.2-2.4-.6-1.36,.6,1.02,1.59-1.69,2.41-1.75-.51-5.35,.44-5.93-.83,5.51,.51-.59-1.27,4.08-1.41-.9,.14-2,.12-3.32-.07-.2-.14,.19-.26,.55-.33-5.26-1.2-2.44,1.39-7.91,1.28,.7-.7-1.25-1.36-2.15-1.22,2.2,.04,1.04,1.2-.99,1.72-3.5-.59-3.82,.37-5.65,.29l2.09,.28c-.72,.7-2.47,.59-4.92,.79-.2-.55,2.22-.36,1.35-.61-2.73,1.22-6.12-1.36-9.91-.55-1.75-.5-.16-1.34-1.69-1.68-4.25,.88-4.58-1.02-9.05-.31,1.28,.97,1.5,.74-1.64,1.63l7.33-.6-4.72,1.34c2.21,.04,4.67-.55,6-.38-2.25,.76-2.02,.52-.96,1.32-3.01-1.46-6.01,.77-9.5-.23l.13-2.36c-5.25-1.12-9.36,1.14-16.18,.5l2.19,.43c-.92,.93-4.22,.1-6.43,.47,.21-.79-1.17-1.09-2.11-1.58,.11,.59-5-.09-5.63,1.49l-3.04-1.06c-5.51-.46-6.31,2.21-11.6,1.9,1.6-.85-.81-1.42,2.75-2.01-1.77-.02-3.36-.17-3.39,.37-1.03-.5-4.91,1.05-6.54,.29-.75,.34-1,1.17-2.98,1.1-.22-.16,0-.39,0-.39,0,.39-3.11,.52-1.38,1.4-5.44-2.48-15.23,.13-19.98-2-3.86,.26-8.52,.48-12.02,.55,.23-.24,.01-.39,.67-.31-4.84-.74-2.98,2.27-8.48,1.45-2.81-1.28,2.92-.69,1.17-1.17-.76-2.6-6.64,.35-10.35-1.16l.9-.15c-2.83-.88-6.91,.98-11.53,.8,0,0,.22-.23,.03-.39-3.16,1.33-9.15,1.75-13.6,2.14,1.38-1.02,2.02-.54,1.17-1.57-1.99,.15,.59,1.66-3.39,1.96-1.3-.55-4.17-1.03-4.55-2.13l3.76-.07c-1.93-1.42-4.86,.06-6.84-.18l.25-.62c-5.76,.22-5.83,1.79-12.02,1.69l.64,.47c-3.37,1.56-2.84-.87-6.2,.3l-1.03-1.58c-2.23,.39-7.81,1.54-11.81,1.86,2.26-1.19,6.94-1.79,9.83-2.5-2.21,0-7.51,.13-8.66,.92,.89-.16,2.01-.55,2.89-.31-2.71,1.25-6.27,1.88-10.68,1.88,.77-3.07-11.49-.71-14.7-3.07-7.79,1.18-15.47-.42-24.55-.15,3.24,2.36-2.65,.09-2.08,2.53-2.11,.17-2.92,.14-3.11-.02l-6.42-1.41c-1.52-.7,2.01-.56,1.81-1.1-4.63-.15-1.95-1.02-5.02-1.65,.64,.87-1.6,1.27-4.24,.95l3.73,1.1c-6.46,1.35-5.61-2.01-12.12-.67l2.06-.79c-3.34,.48-12.35,.09-15.61,2.09-.59-.28-1.38-.94,.09-1.13-8-.21-17.79,2.28-24.02,1.13l.6-.6c-1.49,.19-2.59,1.15-4.46,.57,.09-.25,.59-.6-.1-.63-.79,.21-3.95,1.09-5.93,.76l1.68-.69c-7.81-.69-11.96,1.79-18.49,2.28,0-1.76-6.15-2.25-9.22-2.5l.1-.25c-9.09-.1-15.41,1.66-23.82,2.48-5.25-1.83-17.7-.53-26.11-1.47,1.29,.3-.19,1.38-1.68,1.57-1.98-.33-5.42,1.32-5.14-.3l.7,.02c-1.51-1.56-5.55-1.06-8.71-1.05l-.48,2.12c-8.32-2.93-21.64,1.51-26.2-1.16-1.98,.57-4.46,.61-6.42,1.18l.08-1.13c-5.53-.18-8.3-.26-15.12,.14l1.38-.84c-3.86,0-4.8,3.36-8.35,3.5l-1.1-1.67c-6.72,.15-13.56-1.17-20.17,.51,.1-.25,.29-.74,1.38-.84-3.17,.03-12.27-.87-11.07,1.43-.11-1.51-6.94,0-10.56,.76l.54-1.13c-3.03,1.49-3.12,1.89-7.39,2.39-1.02-.12-.91-.87,.44-.62-3.39-.5-2.61,1.12-6.72,.63l1.51-.75c-3.48,0-3.19,.38-5.09,1.25-2.17,.5-6.6-.11-7.14-1.11-.45,.63-2.34,1.5-4.39,1.26-.29-.37,.45-.63,.83-.75-5.83-.61-8.61,1.51-12.64,.53-.09-.37-.36-.54-.69-.65,4.62-.11,8.34-.14,7.99-.05-.03-1.03-3.76-1.11-.83-2.61-2.98,.85-8.05,2.68-11.7,2.3-.18-.09-.35-.19-.49-.34l.37-.13c-.84-.08-1.59,.04-2.29,.23-1.17-.14-1.91-.24-3.02-.22-.45-.84-4.29-.34-6.15-.33,.19,1.12-2.25,1.01,.05,1.87-.3-.07,.35-.14,1.58-.23,.28-.04,.61-.07,.79-.14-.04,.03-.08,.07-.12,.1,1.22-.05,2.81-.12,4.62-.21-1.45,.61-2.98,1.14-5.05,.57-.93,.75-1.96,1.52-2.54,1.89-2.59-1.5-7.52-2.21-8.23-3.15-5.66,.8-13.37,.83-16.87,3.05-1.61,.32-1.88-.55-2.49-.86,.93-.24,2.04-.24,2.53-.56-3.21,.64-9.56,.51-10.28,2.01-4.09-.54,2.24-1.43-3.34-1.01l.74-.47c-11.08-1.99-17.75,4.38-30.05,1.79,.85,.15,1.28,.23,1.46,.47-13.96-.8-28.59,2.35-42.4,.88-3.92-.25-4.3,.71-6.64,1.53l-.9-1.16-4,1.6c-5.71,1.32-10.15-2.47-17.35-.12l.99,.76c-2.63,0-8.28,.98-7.9,.02-.26,.16-.81,.9-1.86,.54l-.12-.63-6.37,1.48c-5.03-.08,.61-2.56-6.7-2.14-2.7,.45-7.58,2.41-6.53,2.76,1.1-.05,2.83,.18,2.96,.81l-2.45,.51c-.3,1.89-2.02,3.93,4.12,4.78l4.12-1.45,1.42,.8-3.53,.32c2.07,.7,3.29-.15,4.68-.77,.37,.45,.98,.74,1.83,.86,1.33-.7,2.68-1.36,4.02-2.04,.55,.7-1.76,1.55,1.04,1.79,1.89-.94-1.97-1.52,1.21-2.25,2.07,.72,1.53,1.45,3.85,.58,.36,.46-.12,.79-1.05,1.06,2.07-.7,5.57-.58,6.6-1.64,2.16,.9,7.12-.65,7.01,1.11,.64-.46,3.65-1.57,5.59-1.75-3.44,2.29,7.27-.25,6.45,2.06,2.53-2.05,9.44-1.28,14.05-2.54-.25,.16-.75,.49-1.17,.41,2.63,.04,3.41,.58,5.11,.86,.27-1.58,4.33-2.12,6.49-3.18,3.27,1.37-1.87,1.93-.8,3.33-.22-1.27,5.52-1.5,4.39-2.51,2.5,.84,2.14,.37,3.45,1.62,.35-1.98,2.27-.42,4.26-1.7,3.59,.83,.99,1.8,4.87,1.05,1.88,.53-1.56,1.36-1.56,1.36Zm92.8-6.42s0,.02,0,.02c-.8,.05-1.48,.09-1.92,.12,.4-.03,.95-.07,1.92-.14Zm7.81-.24c-.95-.02-2.14,0-3.39,.05-.28-.38,0-.79,.79-.79-.42,.27,1.43,.44,2.6,.74Zm-16.74-7.32c1.23-.19,1.65,.02,1.83,.24-.58,.04-1.27,.09-2.16,.2-.03,.04-.11,.09-.14,.14,.11-.22,.24-.42,.47-.58Z"/>
      <path class="cls-1" d="M168.78,8.45c-.18,.03-.28,.08-.51,.1,.26,.09,.5,.17,.75,.23,.15-.13,.3-.25,.43-.36-.22,.01-.46,.02-.67,.04Z"/>
      <path class="cls-1" d="M877.42,8.25l-.16-.03c.14,.05,.26,.1,.34,.17-.11-.06-.11-.09-.18-.14Z"/>
      <polygon class="cls-1" points="295.63 13.95 295.62 13.67 294.94 13.93 295.63 13.95"/>
      <path class="cls-1" d="M920.28,13.85c.08,.1,.23,.21,.55,.31-.02-.07-.26-.19-.55-.31Z"/>
      <path class="cls-1" d="M938.82,14.98l2.6,.55c-1.12-.29-1.94-.45-2.6-.55Z"/>
      <path class="cls-1" d="M953.05,16.37c.19-.19,.25-.33,.31-.47-.01,0-.02,0-.03,0l-.28,.47Z"/>
      <path class="cls-1" d="M725.96,11c-.19,0-.38,.02-.55,.05-1.3,.2-.42,.13,.55-.05Z"/>
      <path class="cls-1" d="M793.62,9.42c-.72,.19-1.43,.38-2.18,.49,1.2,.11,2.14,.15,2.18-.49Z"/>
      <path class="cls-1" d="M650.44,11.75s0,0,0-.02c-.16,0-.3,0-.47,0l.46,.02Z"/>
      <path class="cls-1" d="M788.29,9.83c1.2,.25,2.21,.22,3.14,.08-.99-.09-2.15-.23-3.14-.08Z"/>
      <path class="cls-1" d="M1014.65,21.6l.68,.12c0-.08,.04-.13,.1-.17l-.78,.05Z"/>
      <path class="cls-1" d="M1015.43,21.55l.77-.05c-.35-.04-.65-.07-.77,.05Z"/>
      <path class="cls-1" d="M1017.82,21.4l-1.62,.1c.55,.07,1.23,.18,1.62-.1Z"/>
      <path class="cls-1" d="M995.91,19.35l-.25,.39c.12-.07,.21-.2,.25-.39Z"/>
      <path class="cls-1" d="M990.19,18.97c1.36,.2,3.35,1.17,5.27,1.08l.2-.31c-.94,.53-4.12-1.36-5.47-.77Z"/>
      <path class="cls-1" d="M966.61,12.22l4.79,.67c-.81-.49-1.88-1.16,.32-1.1-5.98-1.73,1.19,1.06-5.11,.43Z"/>
      <path class="cls-1" d="M951.72,10.72c2.6-.05,0-.63,.16-.87-1.67,.3-2.07,.38-.16,.87Z"/>
      <path class="cls-1" d="M843.73,6.31l.29-1.02c-2,.1-.03,.4-.29,1.02Z"/>
      <polygon class="cls-1" points="822.95 11.09 824.88 11.77 825.82 10.86 822.95 11.09"/>
      <polygon class="cls-1" points="810.93 3.5 811.8 3.38 808.46 3.67 810.93 3.5"/>
      <path class="cls-1" d="M629.46,1.81l.6,1.26c1.35-.22,1.64-1.64-.6-1.26Z"/>
      <path class="cls-1" d="M551.13,3.1c-.85-.63-3.06-1.03-4.42-.4,1.76,.08,3.52,.57,4.42,.4Z"/>
      <polygon class="cls-1" points="316.22 3.48 317.78 3.03 314.82 3.43 316.22 3.48"/>
    </g>
  </g>
</svg>