<?xml version="1.0" encoding="UTF-8"?>
<svg id="Layer_2" data-name="Layer 2" xmlns="http://www.w3.org/2000/svg" viewBox="0 0 1038.89 25.89">
  <defs>
    <style>
      .cls-1 {
        fill: #98c6b3;
      }
    </style>
  </defs>
  <g id="Capa_1" data-name="Capa 1">
    <g>
      <path class="cls-1" d="M1038.68,16.95c.51-.39,.13-1.14-1.36-.86l-.95,1.41,2.3-.54Z"/>
      <path class="cls-1" d="M1028.34,15.34c-1.71,.78-3.66,2.07-2.41,3.19,1.65-1.41,2.12-.92,3.87-2.58,1.49-.28,2.66,.21,2.45,.71,.5-.38,2.36,.1,3.1-.8-2.05-.86-4.53-.7-7.05,.36-.58-.25-.07-.63,.04-.89Z"/>
      <path class="cls-1" d="M881.16,19.41l.95,.15c-.26-.08-.59-.13-.95-.15Z"/>
      <path class="cls-1" d="M789.93,19.04c.69-.03,.99-.16,1.02-.28-.65,.09-1.18,.16-1.02,.28Z"/>
      <path class="cls-1" d="M774.36,17.48c.33,.04,.61,.07,.92,.1-.35-.12-.7-.2-.92-.1Z"/>
      <path class="cls-1" d="M881.16,19.41l-2.44-.39c-.16,.43,1.25,.31,2.44,.39Z"/>
      <path class="cls-1" d="M1008.3,20.08c.51-.09,.92-.24,1.3-.43-.42,.08-.82,.16-1.23,.22-.02,.07-.03,.14-.07,.21Z"/>
      <path class="cls-1" d="M921.33,17.58l.74-.02c.21-.16,.41-.34,.6-.55l-1.34,.57Z"/>
      <path class="cls-1" d="M952.15,16.42c-.7-.03-.9,1.1-1.15,1.6,.38-.48,.88-.71,1.49-.82,0-.21-.1-.47-.34-.79Z"/>
      <path class="cls-1" d="M1001.09,15.96l.86-.21c-.22,.06-.6,.13-.86,.21Z"/>
      <path class="cls-1" d="M899.25,17.81c-.05-.17-.17-.31-.29-.4,0,.14,.12,.27,.29,.4Z"/>
      <path class="cls-1" d="M36.05,9.1c.02-.08-.01-.13,0-.2-.18,.12-.23,.2,0,.2Z"/>
      <path class="cls-1" d="M.17,5.05l.49-.09c.04-.22,.07-.43,.05-.63l-.55,.73Z"/>
      <path class="cls-1" d="M745.88,15.79c.06,.01,.07,.01,.13,.02,.75-.12,.33-.1-.13-.02Z"/>
      <path class="cls-1" d="M484.24,10.61c2.93,1.1-4.86,1.14-.44,2.39-.4-.45,4.11-1.63,.44-2.39Z"/>
      <path class="cls-1" d="M1007.49,19.99c-.42,.04-.84,.07-1.26,.09,.58,0,.97-.03,1.26-.09Z"/>
      <path class="cls-1" d="M483.8,13.01h0s.46,.13,.46,.13c-.19-.05-.3-.08-.46-.13Z"/>
      <path class="cls-1" d="M680.2,15.48c.13,.2,.39,.36,.66,.5-.02-.12-.17-.26-.66-.5Z"/>
      <path class="cls-1" d="M729.1,17.85l-1.21-.17c.48,.11,.87,.15,1.21,.17Z"/>
      <path class="cls-1" d="M654.77,16.57c-.66-.1-.88-.26-1.78-.13,.08,.06,.16,.1,.27,.14,.33-.15,.76-.21,1.51-.01Z"/>
      <path class="cls-1" d="M628.33,16.01c.14,.09,.32,.16,.48,.24,.26-.01,.57-.03,.84-.04l-1.32-.2Z"/>
      <path class="cls-1" d="M116.26,8.86c-.57-.33-.93-.68-1.2-1.03,.39,.81-3.49,1.03,1.2,1.03Z"/>
      <path class="cls-1" d="M1008.25,19.45c-.14,.29-.35,.45-.75,.53,.3-.03,.59-.07,.88-.11,.07-.17,.07-.33-.12-.42Z"/>
      <path class="cls-1" d="M653.51,25.41l-4.2-.25c1.17,.13,2.7,.22,4.2,.25Z"/>
      <path class="cls-1" d="M305.9,14.01l-.97,.1c.37,.04,.71,.02,.97-.1Z"/>
      <path class="cls-1" d="M636.83,25.06c-.74-.41-1.53-.66-2.35-.83-.18,.09-.38,.15-.49,.28l2.84,.55Z"/>
      <path class="cls-1" d="M115.05,7.82s0,.01,0,.01c0,0,0,0,0-.01Z"/>
      <path class="cls-1" d="M87.37,10.12c4,.07,1.89-1.43,2.75-2.27,4.78-.38,2.2,1.1,3.81,1.88,2.98-.36,5.29-1.67,7.51-1.58,.16,.25,.59,.34,.08,.64,3.17-1.13,9.36,.09,13.05-1.33,.27,.14,.41,.26,.47,.37-.58-.75-.66-1.5-.53-2.04,1.79,0,3.35-.88,4,.09-1.1-.05-1.2,.34-1.72,.64l1.89-.39c1.67,1.41-2.57,.44-2.59,1.47,3.67-.4,7.97-1.47,10.77-1.01,.56,1.37-6.58,.32-2.85,1.61l-4.34-.6c3.28,2.19-2.64-.19,.37,2.15,5.71,.5,6.41-.56,12.1-.05,1.3-.73-.4-1.13,.9-1.85,8.14-1.19,6.31,3.55,12.31,1.87,1.56-.87,2.2-2.59,6.43-1.57l-1.48,1.5c5.53,.29,3.21-2.13,8.99-.95-1.05,.58-4.36,.4-3.53,.6,3.73,1.31,2.68-.8,5.57-.73l.56,1.38c5.9-.06,12.42-.89,18.96-.97-.37,.39-1.5,.79,.01,1.25,8.25-.45,17.57,.66,25.49,1.69l3.07-1.09c.71,.03,1.29,.57,.52,.77,3.08,.53,.18-.74,1.68-1.16,1.76-.03,2.31,.74,1.18,1.06,5.49-.83,15.63-1.67,21.34-.24l-1.13,.31c4.47,.61,5.13-2.25,9.26-1.03l-.8,.18c9.71,.81,20.5,.08,27.86,2.09,1.47-1.65,9.6,1.06,10.31-1.28,5.52,1.35,3.91,1.72,11.71,2.76,2.09,.18,3.16-1.37,5.75-1.53l.02,1.23,3.55-1.18,1.82,1.54,2.43-.24c-.96-.1-2.03-.62-1.87-.97,3.8-.43,9.2,1.16,9.27,1.8l8.99-.75c-.22,.49-1.72,.61-2.92,.89,4.82-1.1,.83,1.33,5.24,.32-.58-.3,.34-.72,.45-.97,2.16,.82,7.13,.99,10.82,.8l-.73,.83c6.63,.44,14.01,.06,21.47,.32-2.66-.48-2-1.94,.19-2.01l.83,1.33c1.44-.76-2.27-.57,.66-1.46,2.78,.24,1.82,1.54,.21,1.91l3.4-.34c.19,.4-.61,.57-.84,1.06,1.42-.76,5.8,1.5,7.85,.16l.18,.39c7.45,.26,10.85-.08,16.92,.06,.16-1.12,2.52-.79,4.36-1.64,4.45,.51,9.37,1.55,14.75,1.63,3.8-.44,1.13-.92,2.86-1.53,.24,1.03,5.62,1.11,2.81,1.76,6.46,.04,8.25,.07,16.43-.5-.87-.45-1.86-.66-1.33-1,1.49-.12,3.35,.54,3.13,1.03l-.39,.09c9.21-1.24,21.04,3.66,28.41,1.76l-.41,.09,7.6-.87c3.47,.29-2.11,.7,.44,1.42,8.21-1.44,12.88,.65,19.64-.28,5.11,3.18,18.46,.35,25.43,2.5l-.38-.72c1.83-.64,2.18,.47,3.52,.68-.17-.56-1.95-.7-.81-1.05,15.4-.42,31.7,1.98,47.44,3.04,5.76,.35,3.37-3.59,10.59-1.7l-2.1,1.27c11.68-1.27,23.79,.7,35.21-.38-.69,.29-.72,.68-1.83,.65,2.38,1.02,8.9,.26,8.96-.52,1.77,.13,.39,.72,1.48,1.14,2.4,.62,6.09-1.08,7.35-.09,.21,.16-.69,.3-1.13,.36,1.58-.43,7.32,.3,5.84-.85,4.26,.63,8.19-.29,11.58,.43,2.25-1.19,7.31,.75,8.05-.99-.35,1.8,7.46,1.62,10.19,.82-.92,.53,2.34,.62,1.26,1.35,3.09,.04,5.92-.24,5.4-1.18,5.64,2.29,11.46-1.5,14.61,1.32,9.18-.81,17.68-1.32,25.93-1.6-.33,1.8-9.12,.02-8.79,1.92,7.84-.61,12.37-2.06,20.12-1.52,2,.27-1.15,.77-1.84,1.07,7.83-.64,15.11,.36,22.08-.53-.02,.17-.77,.34-1.48,.47,1.37-.04,3.18,.31,3.04-.52l-1.34,.21c-2.17-1.22,5.47-2.41,5.73-3.04-2.35,2.32,6.86,.68,3.13,3.6,.9-.14,2.04-.52,1.84-1.07,1.34,.18,1.76,.5,.39,1.11,4.91-.38,3.18-1.27,7.63-1.21-.02,.4-.92,.54-1.38,1.01,2.26-.75,4.53-1.51,8.29-1.14-.23,.24,.21,.55-.92,.54,6.46-.07,11.02-1.97,18.09-1.16-2.1,1.71,2.4,.59,2.77,2.08l3.81-.41-1.52-.74c3.34,.06,6.29-1.01,9.15-.52l-2.48,.61,6.25-.27-3.54-.58c3.38-.76-.35-1.89,4.08-1.46-.9,.15,3.34,.03,5.07,.91h-.01c1.65-.47,3.35-.96,5.81-.59,.64,.48-.52,1.65-.1,1.97,1.63-1.24,7.81-.33,9.88-1.65-.69,.31-.72,1.09-.5,1.26l1.37-1.01c1.54,.33,1.77,.49,1.52,1.11,4.65,.2-1.48-1.9,4.04-1.07-.43,.08-.23,.23-1.13,.38,5.54,.44,10.7-.68,15.79-.19,1.51,1.5-4.45,.39-2.72,1.65,7.34-.3,15.19-1.86,22.3-1.54l-1.32-.16c.97-2.12,5.3,1.03,8.88-.02-.88,.17-1.14,1.19-.91,.95,4.87,.28,9.94-.64,17.3-1.4l-.91,.56c2.87,.45,7.55,.19,10.66,.4,.91-.55,2.68-.49,1.59-1.27,9.6,2.94,18.18-2.04,26.7,.37-1.01,.03-2.4,.53-1.6,.51l7.2-.66c-.59-.91-.96-.54-2.49-1.23,.9-.57,2.92-1.04,4.71-1.07-3.23,.68,.07,1.49,1.48,1.96-.24-.28,.23-.6,.1-.89,3.81,1.52,.58-1.88,5.75-.94l-.26,.49c1.92-.31,3.67-1.01,5.75-.94,.89,1.04-2.03,.56-2.14,1.45,2.92-.16,5.69-2.21,8.36-1.23-1.23,.34-3.01,.4-4.24,.74,2.91,1.16,3.24,.83,5.38,.96l-.21-.02,4.96,.41-1.27-.3c3.55-2.92,7.42-.71,12.26-2.79-4.71,1.94-.75,1.04-1.07,2.26,1.27,.28,3.19,.57,2.66,.93,2.28-1.08,3.92,.59,7.13-.99,.16,.38,2.49-.08,2.01,.93,3.01-.44-.75-.65-.51-1.15,4.59-1.56,11.03,1.15,17.64-1.05,5.73-1.11,6.72-2.49,12.03-3.47,1.85,.51-1.39,1.51-1.39,1.51,2.95,.39,5.14,.15,7.86-.46-.53,.37,.06,.63,.93,1.01,2.2-.24,1.38-1.51,4.32-1.11-.47,.47-1.06,1.2-2.09,1.7,1.29-.26,2.56-.6,3.85-.97,1.28-.38,2.58-.75,3.91-1.04,.76,.62-1.55,1.16-2.46,1.68,3-.55,7.79-1.26,8.63-2.4l-1.97-.22c1.1-.14,.64,.87-.16,1.14-2.52,1.05-3.76-.07-3.94-.45l1.89-.41c-1.07-1.06-2.98-.81-5.11-.28-2.13,.54-4.48,1.28-6.41,1.35l1.49-1.76-3.86,1.62c-.87-.38-1.5-1.27,.38-1.64-2.81-.65-2.41,.74-4.84-.03-.27-.13-.16-.21,.08-.29l-2.67,.66c.51-.38-.52-1.14,1.15-1.01-4.89-.66-7.73,1.73-9.62,.58l.4-.13c-6.68,.97-.58,1.27-5.54,2.99l-3.55-2.85-.6,1.25c-.7-.01-2.07-.04-1.84-.54-2.54,.95,.47,.51-.99,1.37-3.39-.96-9.18,.94-10.02-.97-1.16,.98,3.22,.57-.31,1.38-1.11-2.04-4.11,.55-7.2-.27,.89-1.12,3.8-.68,.71-1.51-1.77,1.91-5.95-.12-8.51,.29-.07,1.46-5.57,.79-9.87,1.41,.26-.5-8.15-.54-12.18-.93l.11-.25c-.74,1.48-4.89,1.37-7.9,1.73,.1-.88,.63-1.24,2.25-1.67l-2.84,.07c-.66,.48-1.54,.75-3.37,.96l.69-1.11c-3.77,.14-7.57,1.45-12.45,.82-.25,1.03,3.93,2.77-1.2,3.56-.2-.55-.41-1.49,.93-1.75-.44,.08-1.56,.49-2.45,.28l2.03-.98c-2.22-.36-1.14,.8-2.91,.75,.02-.79-1.32-.54-1.08-1.17,.45-.09,1.55,.29,2.22-.03-2-.1-4.42-.52-5.23-1.1,.18,.45,.02,1.06-1.44,1.2-3.77,.14-1.31-.92-3.52-1.28-.9,.57-3.32,.05-3.37,1.23-1.11,0-1.32-.54-1.75-.85-1.95,.54-9.13,.26-6.91,1.49l.5,.08c-.09,.03-.2,.03-.32,.06h.02s-.02,0-.02,0c-6.39,1.25-13.32-.51-19.67,.07v-.4c-3.78,.51-8.44,.35-11.14,1.21-1.12,0-2.65-.71-2.18-1.18-2.9,.31-3.22,.75-7.42,.12,2.91-.7-1.01-.61,2.99-.52-3.77-.33-4.63-.95-8.67,.14,1.37-1.02-2.84-1.26-4.63-.95l2.64,.71c-2.01,.16-3.78,.07-5.57,0l.96-1.33c-7.71-1.57-13.91,2.77-19.78,.05-2.04,.93,4.19,.67,2.36,1.75-3.55-.19-7.24-2.11-8.35-2.11-4.86-.75-4.54,1.93-9.62,1.42,.65,.48,1.26,1.74-2.55,2.18-3.55-.18-4.36-2-2.11-2.38,.85-.04,1.26,.11,1.23,.27,1.15-.17,2.65-.37,1.25-.89l-.46,.47c-1.76-.49-6.64-.45-5.49-1.23-2.68,.44-1.15,.78,.83,1.03-4.55-.7-7.11-.07-11.8-.57,.74,.27,1.43,.83,.68,.82-6.87-.65-3.03,.88-7.7,1.04-2.64-.75,.96-1.72-3.73-1.15-2.86-.51-.6-1.26,.55-1.64-4.28,.88-7.98-.67-10.41-.86l2.25-.36c-1.35,.22-2.45,.2-3.57,.19l1.28,.96c-1.32-.18-2.44-.19-2.41-.58-1.37,.61,1.03,1.59-1.68,2.42-1.76-.49-5.37,.47-5.97-.8,5.54,.5-.6-1.27,4.09-1.42-.91,.14-2.01,.13-3.33-.06-.2-.14,.19-.26,.55-.33-5.29-1.2-2.45,1.39-7.95,1.29,.71-.7-1.26-1.36-2.16-1.22,2.21,.04,1.04,1.2-.99,1.72-3.52-.6-3.83,.36-5.68,.27l2.1,.29c-.72,.7-2.48,.58-4.94,.78-.2-.56,2.24-.35,1.36-.61-2.74,1.21-6.15-1.37-9.96-.58-1.75-.5-.15-1.34-1.69-1.68-4.27,.86-4.6-1.03-9.09-.34,1.28,.98,1.51,.75-1.66,1.62l7.37-.56-4.75,1.32c2.22,.05,4.7-.54,6.03-.35-2.26,.75-2.03,.51-.98,1.32-3.02-1.47-6.04,.75-9.54-.28l.15-2.36c-5.27-1.15-9.41,1.05-16.26,.33l2.2,.45c-.94,.92-4.24,.06-6.47,.4,.22-.79-1.16-1.1-2.1-1.61,.1,.59-5.02-.14-5.67,1.42l-3.04-1.09c-5.53-.52-6.37,2.12-11.69,1.74,1.62-.82-.79-1.43,2.79-1.97-1.78-.05-3.37-.22-3.41,.32-1.03-.52-4.95,.96-6.57,.18-.76,.33-1.02,1.15-3.01,1.04-.21-.16,.02-.39,.02-.39-.02,.39-3.14,.46-1.41,1.37-5.43-2.58-15.32-.14-20.04-2.36-3.89,.17-8.57,.31-12.09,.28,.23-.23,.02-.39,.68-.3-4.84-.85-3.04,2.19-8.55,1.24-2.79-1.34,2.95-.62,1.2-1.14-.7-2.62-6.68,.19-10.37-1.41l.9-.13c-2.82-.95-6.97,.82-11.61,.51,0,0,.23-.22,.04-.39-3.21,1.24-9.24,1.52-13.72,1.76,1.42-.98,2.05-.48,1.22-1.54-2.01,.09,.54,1.67-3.47,1.86-1.29-.59-4.16-1.16-4.51-2.27l3.78,.04c-1.9-1.48-4.89-.08-6.87-.38l.27-.62c-5.79,.05-5.91,1.62-12.13,1.34l.63,.49c-3.44,1.46-2.82-.95-6.24,.11l-.98-1.61c-2.25,.32-7.89,1.3-11.92,1.48,2.31-1.1,7.03-1.57,9.96-2.18-2.22-.08-7.55-.1-8.73,.64,.9-.13,2.04-.48,2.92-.21-2.76,1.16-6.37,1.67-10.79,1.51,.87-3.04-11.52-1.11-14.66-3.57-7.87,.9-15.52-.96-24.65-1.05,3.16,2.48-2.67-.01-2.18,2.45-2.13,.09-2.94,.03-3.12-.14l-6.4-1.66c-1.5-.76,2.04-.48,1.86-1.03-4.65-.33-1.92-1.1-4.98-1.84,.6,.89-1.66,1.2-4.3,.79l3.7,1.24c-6.54,1.1-5.56-2.23-12.15-1.15l2.1-.7c-3.38,.35-12.41-.41-15.77,1.45-.59-.3-1.35-.99,.14-1.12-8.03-.55-17.96,1.52-24.17,.1l.63-.58c-1.51,.12-2.65,1.04-4.51,.37,.11-.24,.62-.58-.07-.63-.8,.18-4.02,.92-5.99,.5l1.72-.62c-7.81-1.04-12.09,1.24-18.68,1.44,.08-1.76-6.08-2.53-9.15-2.92l.12-.25c-9.12-.52-15.56,.94-24.04,1.35-5.18-2.09-17.75-1.39-26.15-2.75,1.28,.36-.26,1.36-1.76,1.49-1.97-.42-5.51,1.04-5.15-.57l.7,.05c-1.44-1.63-5.52-1.35-8.7-1.5l-.59,2.09c-8.21-3.35-21.81,.41-26.25-2.49-2.02,.46-4.51,.37-6.51,.84l.14-1.13c-5.55-.47-8.32-.71-15.19-.66l1.43-.76c-3.87-.2-5,3.11-8.57,3.06l-1.02-1.72c-6.76-.19-13.55-1.89-20.28-.57,.12-.24,.33-.73,1.43-.76-3.18-.15-12.27-1.52-11.19,.83-.03-1.51-6.97-.36-10.64,.2l.6-1.1c-3.12,1.33-3.23,1.72-7.55,1.98-1.02-.18-.87-.92,.48-.59-3.38-.69-2.68,.97-6.78,.26l1.56-.66c-3.49-.19-3.23,.2-5.18,.98-2.21,.39-6.62-.47-7.11-1.49-.49,.6-2.43,1.37-4.48,1.02-.27-.39,.49-.6,.87-.71-5.82-.92-8.73,1.05-12.72-.16-.07-.37-.33-.56-.66-.68,4.64,.16,8.38,.32,8.03,.4,.03-1.03-3.72-1.31-.69-2.65-3.03,.69-8.23,2.23-11.87,1.64-.17-.1-.35-.21-.47-.37l.38-.11c-.84-.12-1.6-.05-2.32,.11-1.16-.2-1.9-.34-3.02-.39-.41-.86-4.29-.57-6.16-.65,.13,1.13-2.32,.89-.05,1.87-.3-.09,.36-.13,1.6-.14,.28-.03,.61-.03,.8-.1-.04,.03-.08,.06-.13,.1,1.23,.01,2.83,.03,4.65,.04-1.49,.53-3.05,.98-5.1,.3-.98,.7-2.05,1.41-2.66,1.75-2.52-1.63-7.43-2.6-8.1-3.59-5.73,.48-13.47,.08-17.11,2.13-1.63,.24-1.85-.64-2.45-.99,.94-.19,2.06-.14,2.57-.43-3.26,.47-9.63,0-10.43,1.47-4.08-.75,2.33-1.31-3.3-1.19l.77-.44c-11.03-2.61-18.06,3.46-30.28,.23,.85,.2,1.27,.29,1.44,.54-6.99-.8-14.2-.5-21.39-.36-7.19,.13-14.35,.27-21.26-.77-3.93-.42-4.35,.52-6.74,1.24l-.86-1.21c-1.36,.46-2.73,.96-4.09,1.44-5.79,1.12-10.12-2.84-17.45-.75l.97,.78c-2.65-.06-8.36,.77-7.95-.18-.27,.16-.84,.88-1.89,.49l-.1-.63-6.45,1.31c-5.06-.13,.67-2.56-6.73-2.21C4.01,1.36-.92,3.28,.15,3.63c1.11-.04,2.85,.21,2.98,.84l-2.47,.49c-.31,1.89-2.01,3.91,4.12,4.82l4.13-1.4,1.41,.82-3.53,.28c2.06,.72,3.28-.11,4.68-.72,.36,.46,.97,.76,1.81,.88,1.34-.68,2.71-1.29,4.07-1.94,.53,.71-1.8,1.51,1,1.81,1.91-.89-1.94-1.57,1.27-2.22,2.06,.78,1.49,1.49,3.85,.68,.35,.47-.14,.79-1.08,1.03,2.1-.65,5.59-.44,6.66-1.46,2.14,.97,7.17-.39,6.99,1.36,.66-.43,3.72-1.44,5.67-1.54-3.53,2.16,7.31,.01,6.38,2.29,2.62-1.94,9.53-.87,14.2-1.93-.26,.15-.78,.46-1.19,.36,2.63,.15,3.4,.72,5.09,1.08,.34-1.56,4.44-1.95,6.66-2.88,3.22,1.54-1.97,1.82-.96,3.28-.16-1.27,5.62-1.22,4.52-2.29,2.47,.96,2.13,.47,3.39,1.78,.45-1.96,2.3-.31,4.36-1.5,3.57,1,.9,1.84,4.84,1.28,1.86,.62-1.64,1.28-1.64,1.28Zm93.5-1.54s0,.02,0,.02c-.81,0-1.49,0-1.93,.01,.4,0,.96-.02,1.93-.03Zm7.86,.2c-.96-.07-2.15-.11-3.41-.14-.27-.4,.04-.79,.83-.74-.44,.25,1.41,.52,2.57,.88ZM172.31,.55c1.25-.13,1.66,.1,1.82,.34-.59,0-1.28,.03-2.18,.08-.04,.04-.11,.09-.15,.13,.12-.21,.27-.41,.51-.55Z"/>
      <path class="cls-1" d="M170.04,1.97c-.18,.02-.28,.06-.52,.07,.25,.11,.49,.2,.74,.27,.15-.12,.31-.24,.45-.34-.23,0-.46,0-.67,0Z"/>
      <path class="cls-1" d="M882.27,19.58l-.17-.02c.14,.04,.27,.09,.35,.16-.11-.05-.11-.09-.18-.13Z"/>
      <polygon class="cls-1" points="297.14 14.28 297.13 13.99 296.44 14.22 297.14 14.28"/>
      <path class="cls-1" d="M925.64,22.6c.09,.1,.25,.19,.58,.27-.03-.07-.27-.17-.58-.27Z"/>
      <path class="cls-1" d="M944.36,22.24l2.66,.31c-1.15-.19-1.99-.27-2.66-.31Z"/>
      <path class="cls-1" d="M958.76,22.3c.17-.21,.22-.36,.26-.49-.01,0-.02,0-.03,0l-.23,.5Z"/>
      <path class="cls-1" d="M730,25.38c-.19,0-.38,.02-.56,.04-1.3,.2-.42,.13,.56-.04Z"/>
      <path class="cls-1" d="M798.08,23.33c-.72,.2-1.44,.4-2.19,.53,1.21,.09,2.15,.11,2.19-.53Z"/>
      <path class="cls-1" d="M653.97,25.44s0,0,0-.02c-.16,0-.31,0-.47,0l.46,.03Z"/>
      <path class="cls-1" d="M792.73,23.83c1.21,.23,2.22,.18,3.16,.03-.99-.08-2.16-.2-3.16-.03Z"/>
      <path class="cls-1" d="M1021.13,19.24h.7c-.02-.08,.02-.15,.07-.2l-.76,.2Z"/>
      <path class="cls-1" d="M1021.9,19.04l.76-.2c-.35,.03-.66,.06-.76,.2Z"/>
      <path class="cls-1" d="M1024.25,18.43l-1.6,.41c.56-.04,1.25-.06,1.6-.41Z"/>
      <path class="cls-1" d="M1002.06,20.05l-.19,.42c.11-.09,.18-.23,.19-.42Z"/>
      <path class="cls-1" d="M996.28,20.53c1.38,0,3.52,.65,5.43,.28l.16-.33c-.87,.66-4.32-.71-5.59,.05Z"/>
      <path class="cls-1" d="M971.9,16.77l4.85,.11c-.87-.4-2.01-.93,.19-1.13-6.16-1.02,1.31,.91-5.04,1.03Z"/>
      <path class="cls-1" d="M956.87,16.82c2.59-.32-.06-.63,.07-.88-1.63,.47-2.03,.58-.07,.88Z"/>
      <path class="cls-1" d="M848.37,19.02l.26-1.02c-2.01,.16-.02,.4-.26,1.02Z"/>
      <polygon class="cls-1" points="827.63 24.4 829.59 25.02 830.51 24.08 827.63 24.4"/>
      <polygon class="cls-1" points="815.36 17.12 816.24 16.97 812.89 17.34 815.36 17.12"/>
      <path class="cls-1" d="M633.06,15.12l.58,1.27c1.36-.2,1.68-1.61-.58-1.27Z"/>
      <path class="cls-1" d="M554.32,14.41c-.84-.65-3.04-1.12-4.42-.54,1.77,.14,3.52,.67,4.42,.54Z"/>
      <polygon class="cls-1" points="318.34 4.86 319.94 4.49 316.95 4.75 318.34 4.86"/>
    </g>
  </g>
</svg>