<?xml version="1.0" encoding="UTF-8"?>
<svg id="Layer_2" data-name="Layer 2" xmlns="http://www.w3.org/2000/svg" viewBox="0 0 1013.83 19.85">
  <defs>
    <style>
      .cls-1 {
        fill: #98c6b3;
      }
    </style>
  </defs>
  <g id="Capa_1" data-name="Capa 1">
    <g>
      <path class="cls-1" d="M1013.61,11.04c.51-.38,.15-1.14-1.3-.89l-.95,1.38,2.26-.49Z"/>
      <path class="cls-1" d="M1003.57,9.19c-1.68,.75-3.61,1.99-2.41,3.14,1.63-1.37,2.08-.87,3.82-2.49,1.46-.24,2.59,.27,2.38,.77,.5-.37,2.3,.15,3.04-.73-1.98-.91-4.4-.8-6.88,.2-.56-.26-.06-.64,.05-.89Z"/>
      <path class="cls-1" d="M859.9,12.24l.93,.15c-.25-.08-.57-.13-.93-.15Z"/>
      <path class="cls-1" d="M770.88,12.21c.68-.03,.96-.16,.99-.29-.63,.09-1.15,.17-.99,.29Z"/>
      <path class="cls-1" d="M755.68,10.78c.33,.03,.6,.06,.9,.09-.34-.12-.69-.19-.9-.09Z"/>
      <path class="cls-1" d="M859.9,12.24l-2.38-.39c-.16,.43,1.22,.3,2.38,.39Z"/>
      <path class="cls-1" d="M983.95,13.56c.5-.09,.9-.23,1.27-.41-.41,.08-.8,.14-1.21,.2-.02,.07-.03,.14-.07,.21Z"/>
      <path class="cls-1" d="M899.11,10.38l.72-.02c.21-.16,.4-.34,.59-.55l-1.31,.58Z"/>
      <path class="cls-1" d="M929.2,9.33c-.68-.02-.88,1.11-1.13,1.61,.37-.48,.87-.72,1.46-.82,0-.21-.09-.47-.33-.78Z"/>
      <path class="cls-1" d="M976.97,9.34l.84-.19c-.22,.06-.59,.12-.84,.19Z"/>
      <path class="cls-1" d="M877.56,10.59c-.05-.17-.16-.31-.28-.4,0,.14,.11,.27,.28,.4Z"/>
      <path class="cls-1" d="M35.22,10.99c.02-.08-.01-.13,0-.2-.17,.12-.22,.2,0,.2Z"/>
      <path class="cls-1" d="M.17,7.13l.48-.09c.03-.22,.07-.43,.05-.63l-.53,.73Z"/>
      <path class="cls-1" d="M727.88,9.28c.05,0,.07,.01,.12,.02,.73-.13,.32-.1-.12-.02Z"/>
      <path class="cls-1" d="M472.53,6.82c2.87,1.06-4.73,1.2-.4,2.4-.4-.45,3.99-1.68,.4-2.4Z"/>
      <path class="cls-1" d="M983.16,13.45c-.41,.03-.82,.06-1.23,.07,.56,.01,.94-.01,1.23-.07Z"/>
      <path class="cls-1" d="M472.13,9.22h0s.45,.12,.45,.12c-.19-.05-.29-.08-.45-.12Z"/>
      <path class="cls-1" d="M663.79,9.54c.13,.2,.38,.35,.65,.5-.02-.12-.17-.26-.65-.5Z"/>
      <path class="cls-1" d="M711.52,11.49l-1.18-.16c.47,.11,.85,.14,1.18,.16Z"/>
      <path class="cls-1" d="M638.98,10.88c-.64-.09-.86-.25-1.74-.11,.08,.06,.16,.1,.27,.14,.32-.15,.74-.22,1.47-.03Z"/>
      <path class="cls-1" d="M613.18,10.57c.14,.09,.32,.15,.47,.23,.26-.02,.55-.03,.82-.05l-1.29-.18Z"/>
      <path class="cls-1" d="M113.49,9.84c-.56-.32-.91-.67-1.19-1.01,.39,.8-3.4,1.07,1.19,1.01Z"/>
      <path class="cls-1" d="M983.91,12.93c-.14,.29-.35,.44-.74,.52,.3-.03,.58-.06,.86-.1,.07-.17,.07-.33-.11-.42Z"/>
      <path class="cls-1" d="M637.83,19.73l-4.1-.22c1.15,.12,2.64,.2,4.1,.22Z"/>
      <path class="cls-1" d="M298.57,12.49l-.94,.12c.36,.03,.7,0,.94-.12Z"/>
      <path class="cls-1" d="M621.56,19.54c-.73-.41-1.5-.65-2.3-.81-.17,.09-.37,.16-.48,.28l2.78,.52Z"/>
      <path class="cls-1" d="M112.29,8.81s0,.01,0,.01c0,0,0,0,0-.01Z"/>
      <path class="cls-1" d="M85.31,11.45c3.9,.02,1.83-1.45,2.66-2.3,4.66-.44,2.16,1.08,3.74,1.83,2.91-.39,5.14-1.73,7.31-1.67,.16,.24,.58,.33,.09,.64,3.08-1.17,9.13-.03,12.72-1.49,.27,.13,.4,.26,.47,.37-.58-.74-.66-1.5-.54-2.03,1.75-.02,3.25-.92,3.91,.04-1.07-.03-1.16,.36-1.67,.66l1.84-.41c1.64,1.39-2.51,.47-2.51,1.5,3.58-.45,7.76-1.56,10.49-1.14,.56,1.36-6.41,.4-2.76,1.64l-4.24-.55c3.23,2.16-2.58-.16,.39,2.14,5.58,.44,6.25-.64,11.81-.2,1.26-.74-.41-1.12,.85-1.87,7.93-1.29,6.2,3.47,12.03,1.7,1.51-.89,2.12-2.61,6.25-1.65l-1.43,1.52c5.4,.22,3.11-2.17,8.76-1.07-1.01,.59-4.25,.46-3.44,.65,3.65,1.26,2.6-.84,5.42-.81l.57,1.37c5.76-.14,12.1-1.06,18.48-1.21-.36,.4-1.46,.81,.03,1.25,8.05-.56,17.15,.42,24.89,1.35l2.98-1.13c.69,.02,1.27,.55,.52,.77,3.01,.5,.17-.74,1.63-1.18,1.72-.05,2.26,.71,1.16,1.05,5.35-.9,15.23-1.88,20.82-.53l-1.1,.33c4.37,.55,4.98-2.32,9.02-1.15l-.78,.19c9.49,.69,20-.19,27.21,1.72,1.41-1.67,9.38,.93,10.04-1.41,5.4,1.28,3.84,1.67,11.46,2.61,2.04,.15,3.07-1.41,5.6-1.61l.04,1.23,3.45-1.22,1.79,1.51,2.37-.27c-.94-.09-1.99-.59-1.84-.95,3.71-.48,8.99,1.04,9.07,1.67l8.76-.86c-.2,.49-1.67,.63-2.83,.92,4.69-1.16,.82,1.32,5.12,.25-.57-.29,.32-.73,.43-.97,2.12,.79,6.97,.9,10.56,.66l-.71,.84c6.48,.35,13.67-.13,20.95,.04-2.6-.45-1.97-1.91,.17-2.01l.83,1.32c1.39-.78-2.22-.54,.63-1.47,2.71,.21,1.8,1.52,.23,1.91l3.31-.38c.19,.39-.59,.58-.81,1.07,1.37-.78,5.68,1.43,7.66,.06l.18,.39c7.27,.16,10.58-.22,16.51-.16,.14-1.12,2.45-.82,4.24-1.7,4.35,.45,9.16,1.43,14.41,1.45,3.7-.48,1.1-.93,2.77-1.56,.25,1.03,5.49,1.04,2.76,1.72,6.3-.04,8.05-.04,16.03-.71-.86-.44-1.82-.64-1.31-.98,1.45-.14,3.28,.5,3.06,.98l-.38,.1c8.97-1.36,20.57,3.4,27.73,1.41l-.4,.1,7.4-.96c3.39,.24-2.05,.73,.45,1.41,8-1.56,12.58,.49,19.16-.52,5.02,3.12,18.02,.14,24.83,2.19l-.38-.72c1.78-.67,2.13,.45,3.44,.63-.18-.56-1.91-.67-.8-1.04,15.02-.59,30.95,1.61,46.32,2.49,5.62,.28,3.25-3.63,10.32-1.81l-2.03,1.29c11.38-1.39,23.22,.41,34.35-.77-.67,.3-.69,.69-1.78,.67,2.33,.99,8.68,.17,8.73-.61,1.73,.11,.39,.71,1.45,1.13,2.35,.6,5.93-1.14,7.17-.17,.21,.16-.67,.3-1.1,.37,1.54-.44,7.15,.21,5.69-.92,4.17,.58,7.99-.39,11.31,.3,2.19-1.21,7.13,.68,7.84-1.06-.32,1.81,7.3,1.55,9.94,.73-.89,.54,2.29,.6,1.24,1.34,3.01,.01,5.77-.29,5.26-1.23,5.52,2.22,11.17-1.64,14.26,1.17,8.95-.89,17.23-1.46,25.28-1.82-.3,1.81-8.89,.1-8.56,2,7.64-.66,12.05-2.2,19.62-1.71,1.96,.26-1.12,.78-1.78,1.08,7.63-.7,14.74,.26,21.53-.68-.02,.17-.75,.35-1.44,.48,1.34-.05,3.11,.28,2.96-.54l-1.3,.21c-2.13-1.21,5.32-2.45,5.56-3.09-2.28,2.34,6.7,.61,3.08,3.57,.88-.15,1.99-.54,1.79-1.09,1.31,.16,1.72,.48,.39,1.1,4.79-.43,3.09-1.31,7.43-1.28-.02,.4-.89,.55-1.34,1.01,2.2-.77,4.41-1.54,8.07-1.19-.22,.24,.2,.55-.89,.54,6.3-.11,10.74-2.03,17.64-1.27-2.04,1.73,2.35,.56,2.72,2.06l3.72-.45-1.49-.72c3.25,.02,6.13-1.07,8.93-.59l-2.42,.62,6.1-.29-3.45-.56c3.29-.78-.36-1.89,3.98-1.48-.88,.15,3.25,.01,4.95,.89h-.01c1.61-.47,3.26-.98,5.67-.61,.63,.48-.5,1.65-.09,1.97,1.58-1.26,7.62-.35,9.63-1.7-.67,.32-.7,1.1-.48,1.26l1.33-1.02c1.51,.31,1.73,.47,1.49,1.1,4.54,.15-1.45-1.88,3.94-1.11-.42,.08-.22,.24-1.1,.4,5.41,.39,10.44-.72,15.41-.25,1.48,1.49-4.34,.4-2.65,1.65,7.16-.33,14.81-1.88,21.75-1.63l-1.29-.15c.94-2.13,5.17,.98,8.67-.06-.86,.17-1.11,1.19-.88,.95,4.75,.28,9.7-.65,16.88-1.4l-.88,.56c2.8,.46,7.37,.18,10.4,.36,.89-.56,2.62-.51,1.55-1.28,9.37,2.92,17.73-2.01,26.05,.41-.99,.03-2.34,.52-1.56,.51l7.03-.68c-.58-.91-.94-.53-2.43-1.21,.88-.57,2.85-1.05,4.6-1.1-3.15,.7,.06,1.48,1.45,1.96-.24-.28,.22-.6,.1-.89,3.72,1.54,.57-1.88,5.61-.91l-.25,.49c1.87-.3,3.58-.99,5.61-.91,.87,1.05-1.99,.55-2.09,1.44,2.84-.14,5.56-2.18,8.16-1.18-1.2,.33-2.94,.38-4.14,.71,2.84,1.18,3.16,.85,5.25,.99l-.21-.02,4.84,.44-1.24-.31c3.47-2.88,7.23-.76,11.97-2.76-4.6,1.9-.74,1.03-1.05,2.25,1.24,.29,3.11,.6,2.59,.96,2.23-1.06,3.82,.63,6.96-.92,.16,.38,2.43-.05,1.95,.95,2.94-.42-.72-.65-.49-1.15,4.49-1.5,10.75,1.25,17.21-.92,5.6-1.02,6.58-2.39,11.77-3.29,1.79,.54-1.37,1.49-1.37,1.49,2.87,.44,5.01,.23,7.67-.35-.53,.37,.05,.63,.89,1.03,2.15-.21,1.36-1.48,4.23-1.06-.46,.47-1.05,1.2-2.07,1.68,2.52-.48,4.98-1.38,7.59-1.89,.74,.64-1.52,1.13-2.43,1.63,2.93-.49,7.61-1.09,8.46-2.21l-1.91-.27c1.07-.12,.61,.89-.17,1.13-2.48,1-3.67-.15-3.83-.53l1.85-.36c-2.05-2.18-7.48,.87-11.25,.89l1.48-1.74-3.79,1.56c-.84-.39-1.45-1.29,.39-1.63-2.74-.69-2.36,.71-4.72-.1-.26-.13-.15-.22,.08-.29l-2.61,.62c.5-.37-.5-1.15,1.13-.99-4.77-.73-7.56,1.61-9.4,.44l.39-.12c-6.53,.88-.58,1.25-5.44,2.92l-3.44-2.85-.59,1.25c-.68-.02-2.02-.06-1.79-.56-2.49,.93,.45,.52-.98,1.36-3.3-.99-8.97,.85-9.78-1.07-1.13,.97,3.14,.6-.31,1.37-1.07-2.05-4.01,.51-7.02-.34,.88-1.11,3.72-.65,.7-1.5-1.73,1.89-5.81-.19-8.31,.25-.07,1.47-5.44,.79-9.64,1.38,.25-.5-7.95-.58-11.89-1l.11-.25c-.72,1.49-4.77,1.32-7.71,1.71,.09-.88,.62-1.24,2.2-1.68l-2.77,.08c-.64,.49-1.5,.76-3.29,.98l.67-1.12c-3.68,.17-7.39,1.45-12.15,.81-.25,1.03,3.83,2.78-1.17,3.56-.2-.55-.4-1.49,.91-1.75-.43,.08-1.52,.49-2.39,.27l1.98-.97c-2.17-.37-1.11,.8-2.84,.75,.02-.79-1.29-.54-1.05-1.17,.44-.08,1.51,.3,2.17-.03-1.95-.1-4.31-.53-5.1-1.11,.18,.45,.02,1.06-1.4,1.19-3.68,.13-1.28-.93-3.44-1.29-.88,.57-3.24,.04-3.28,1.23-1.08,.02-1.29-.53-1.71-.84-1.9,.56-8.9,.31-6.74,1.53l.49,.08c-.09,.03-.2,.03-.31,.06h.02s-.02,0-.02,0c-6.24,1.25-13-.5-19.2,.08v-.4c-3.69,.5-8.23,.37-10.87,1.26-1.1,.01-2.59-.69-2.13-1.16-2.83,.34-3.14,.77-7.24,.15,2.84-.71-.99-.6,2.91-.52-3.68-.32-4.52-.94-8.46,.16,1.34-1.02-2.78-1.26-4.53-.94l2.58,.71c-1.96,.16-3.68,.08-5.43,0l.93-1.34c-7.53-1.57-13.56,2.86-19.3,.17-1.99,.94,4.09,.64,2.31,1.73-3.46-.16-7.08-2.07-8.16-2.07-4.74-.73-4.42,1.95-9.38,1.46,.64,.47,1.24,1.74-2.47,2.19-3.47-.17-4.26-1.98-2.08-2.37,.83-.04,1.23,.11,1.2,.27,1.12-.17,2.59-.38,1.21-.89l-.45,.48c-1.72-.48-6.49-.42-5.37-1.2-2.62,.46-1.12,.78,.82,1.02-4.44-.68-6.94,0-11.52-.46,.73,.26,1.4,.82,.67,.81-6.71-.59-2.95,.9-7.5,1.1-2.58-.73,.93-1.73-3.65-1.13-2.79-.5-.59-1.26,.52-1.65-4.17,.9-7.79-.62-10.17-.79l2.2-.38c-1.31,.22-2.39,.21-3.48,.21l1.25,.95c-1.29-.17-2.38-.17-2.36-.57-1.33,.62,1.01,1.58-1.63,2.43-1.72-.49-5.24,.5-5.83-.76,5.41,.44-.59-1.27,3.98-1.46-.88,.15-1.96,.14-3.25-.03-.19-.14,.18-.26,.54-.33-5.17-1.14-2.38,1.42-7.74,1.38,.68-.71-1.24-1.35-2.11-1.2,2.16,.02,1.03,1.19-.96,1.72-3.44-.57-3.74,.39-5.54,.31l2.05,.27c-.7,.71-2.42,.6-4.82,.81-.2-.55,2.18-.37,1.32-.62-2.67,1.23-6.01-1.33-9.72-.51-1.72-.49-.16-1.34-1.67-1.67-4.16,.89-4.5-1-8.87-.27,1.25,.96,1.47,.73-1.61,1.64l7.19-.63-4.62,1.36c2.17,.03,4.58-.57,5.88-.4-2.2,.76-1.98,.53-.94,1.33-2.96-1.45-5.89,.8-9.31-.19l.12-2.36c-5.15-1.08-9.17,1.15-15.86,.49l2.15,.43c-.91,.93-4.14,.09-6.31,.45,.21-.79-1.14-1.09-2.07-1.59,.11,.59-4.9-.1-5.52,1.47l-2.98-1.07c-5.4-.48-6.19,2.19-11.39,1.87,1.58-.84-.78-1.43,2.71-2.01-1.74-.02-3.29-.18-3.33,.36-1.01-.5-4.82,1.01-6.41,.24-.74,.34-.98,1.16-2.93,1.07-.21-.16,.01-.39,.01-.39-.01,.39-3.06,.49-1.36,1.39-5.32-2.53-14.95,0-19.58-2.18-3.79,.22-8.36,.42-11.8,.43,.22-.23,.02-.39,.67-.3-4.73-.8-2.95,2.22-8.33,1.33-2.74-1.32,2.88-.65,1.16-1.16-.71-2.61-6.52,.26-10.13-1.31l.88-.14c-2.76-.92-6.79,.89-11.32,.63,0,0,.22-.23,.03-.39-3.12,1.28-9,1.64-13.37,1.93,1.37-.99,1.99-.51,1.18-1.55-1.96,.11,.55,1.67-3.36,1.89-1.26-.58-4.07-1.11-4.43-2.22h3.68c-1.86-1.46-4.77-.03-6.71-.31l.26-.62c-5.65,.11-5.75,1.68-11.82,1.47l.62,.48c-3.34,1.5-2.76-.92-6.09,.18l-.97-1.6c-2.19,.34-7.69,1.4-11.62,1.62,2.24-1.13,6.84-1.65,9.7-2.3-2.17-.05-7.37,0-8.51,.75,.88-.14,1.98-.5,2.84-.24-2.68,1.19-6.19,1.74-10.51,1.63,.82-3.05-11.25-.98-14.34-3.41-7.66,.99-15.15-.76-24.06-.75,3.11,2.44-2.6,.02-2.1,2.47-2.08,.12-2.87,.06-3.05-.1l-6.26-1.58c-1.48-.74,1.98-.5,1.8-1.05-4.54-.28-1.89-1.07-4.88-1.78,.6,.89-1.6,1.22-4.19,.84l3.62,1.2c-6.37,1.18-5.45-2.16-11.87-.99l2.04-.73c-3.29,.39-12.11-.26-15.37,1.64-.58-.29-1.33-.98,.12-1.13-7.84-.45-17.51,1.74-23.58,.4l.61-.59c-1.47,.14-2.57,1.07-4.39,.43,.1-.25,.6-.58-.08-.63-.78,.19-3.91,.97-5.84,.58l1.67-.64c-7.64-.94-11.78,1.4-18.2,1.67,.05-1.76-5.96-2.46-8.96-2.8l.11-.25c-8.91-.4-15.17,1.14-23.44,1.66-5.08-2.02-17.34-1.16-25.55-2.4,1.25,.35-.23,1.37-1.7,1.51-1.92-.4-5.37,1.11-5.03-.5l.69,.05c-1.42-1.61-5.4-1.27-8.5-1.38l-.55,2.1c-8.05-3.24-21.27,.7-25.64-2.14-1.97,.49-4.39,.43-6.34,.92l.13-1.13c-5.42-.4-8.12-.6-14.83-.46l1.38-.78c-3.78-.14-4.84,3.17-8.33,3.18l-1.02-1.71c-6.6-.1-13.25-1.71-19.79-.3,.11-.25,.31-.73,1.38-.78-3.1-.11-11.99-1.36-10.91,.98-.05-1.51-6.8-.27-10.38,.34l.57-1.1c-3.03,1.37-3.13,1.76-7.34,2.08-.99-.16-.86-.91,.46-.6-3.31-.64-2.6,1.01-6.61,.35l1.51-.69c-3.41-.14-3.15,.24-5.04,1.04-2.15,.41-6.47-.38-6.96-1.39-.47,.61-2.35,1.4-4.36,1.08-.27-.38,.47-.61,.84-.72-5.69-.84-8.5,1.17-12.41,.01-.08-.37-.33-.56-.65-.68,4.53,.1,8.18,.21,7.84,.29,.02-1.03-3.64-1.26-.71-2.64-2.95,.73-8,2.34-11.56,1.8-.17-.1-.34-.2-.47-.36l.37-.11c-.82-.11-1.56-.03-2.26,.13-1.14-.18-1.86-.32-2.95-.35-.41-.85-4.19-.51-6.02-.57,.14,1.13-2.25,.92-.02,1.87-.29-.08,.35-.13,1.56-.16,.28-.03,.6-.04,.78-.11-.04,.03-.08,.07-.13,.1,1.2,0,2.76-.01,4.54-.02-1.45,.55-2.96,1.02-4.97,.37-.95,.71-1.99,1.44-2.57,1.78-2.48-1.6-7.29-2.5-7.94-3.48-5.58,.56-13.14,.26-16.67,2.35-1.59,.26-1.82-.62-2.41-.96,.92-.2,2.01-.16,2.5-.46-3.17,.52-9.39,.13-10.16,1.6-3.99-.7,2.26-1.34-3.24-1.14l.74-.45c-10.79-2.47-17.58,3.68-29.54,.6,.83,.19,1.24,.28,1.41,.52-6.82-.71-13.86-.33-20.87-.1-7.01,.22-14,.43-20.75-.54-3.84-.38-4.24,.57-6.57,1.32l-.85-1.2-3.97,1.48c-5.64,1.17-9.9-2.74-17.03-.59l.95,.77c-2.59-.05-8.15,.82-7.76-.13-.26,.16-.81,.88-1.84,.5l-.11-.63-6.28,1.36c-4.94-.13,.63-2.56-6.58-2.2C3.91,3.43-.9,5.36,.15,5.71c1.08-.04,2.78,.21,2.91,.83l-2.4,.49c-.29,1.89-1.96,3.91,4.03,4.81l4.03-1.41,1.38,.81-3.45,.29c2.02,.72,3.21-.12,4.57-.73,.36,.46,.95,.75,1.78,.88,1.31-.69,2.64-1.31,3.96-1.97,.53,.71-1.75,1.52,.99,1.81,1.86-.9-1.9-1.56,1.22-2.23,2.02,.76,1.47,1.48,3.76,.66,.35,.47-.13,.79-1.04,1.04,2.04-.66,5.46-.47,6.49-1.51,2.09,.95,6.99-.46,6.83,1.3,.64-.44,3.61-1.47,5.52-1.59-3.43,2.2,7.13-.05,6.26,2.23,2.54-1.96,9.29-.97,13.84-2.09-.25,.15-.75,.47-1.15,.37,2.57,.13,3.32,.69,4.98,1.03,.31-1.56,4.31-2,6.47-2.96,3.16,1.5-1.9,1.85-.9,3.3-.17-1.27,5.47-1.29,4.39-2.34,2.42,.93,2.08,.45,3.33,1.74,.41-1.96,2.24-.34,4.24-1.55,3.49,.95,.9,1.83,4.73,1.22,1.82,.59-1.58,1.3-1.58,1.3Zm91.21-2.72s0,.02,0,.02c-.79,.01-1.46,.03-1.88,.04,.39-.01,.94-.03,1.88-.06Zm7.67,.1c-.93-.06-2.1-.08-3.33-.09-.26-.39,.03-.79,.8-.76-.42,.25,1.38,.5,2.52,.85ZM168.07,.8c1.22-.14,1.62,.08,1.78,.31-.57,.01-1.24,.04-2.13,.11-.04,.04-.11,.09-.15,.14,.12-.21,.25-.41,.49-.56Z"/>
      <path class="cls-1" d="M165.87,2.25c-.18,.02-.27,.07-.5,.08,.25,.1,.48,.19,.72,.26,.15-.12,.3-.24,.43-.35-.22,0-.45,0-.65,0Z"/>
      <path class="cls-1" d="M861,12.41l-.16-.02c.14,.04,.26,.09,.34,.16-.11-.05-.11-.09-.18-.13Z"/>
      <polygon class="cls-1" points="290.02 12.88 290.02 12.59 289.34 12.83 290.02 12.88"/>
      <path class="cls-1" d="M903.31,15.38c.08,.1,.24,.19,.56,.27-.03-.07-.27-.17-.56-.27Z"/>
      <path class="cls-1" d="M921.57,15.14l2.59,.33c-1.12-.2-1.94-.28-2.59-.33Z"/>
      <path class="cls-1" d="M935.62,15.23c.17-.2,.22-.35,.26-.49-.01,0-.02,0-.03,0l-.23,.5Z"/>
      <path class="cls-1" d="M712.45,19.02c-.19,0-.38,.02-.54,.05-1.27,.21-.41,.13,.54-.05Z"/>
      <path class="cls-1" d="M778.86,16.47c-.7,.21-1.4,.41-2.13,.54,1.18,.08,2.1,.1,2.13-.54Z"/>
      <path class="cls-1" d="M638.28,19.76s0,0,0-.02c-.16,0-.3,0-.46,0l.45,.03Z"/>
      <path class="cls-1" d="M773.64,16.99c1.18,.22,2.17,.17,3.09,.01-.97-.07-2.11-.19-3.09-.01Z"/>
      <path class="cls-1" d="M996.47,12.93h.68c-.02-.07,.02-.13,.07-.18l-.75,.18Z"/>
      <path class="cls-1" d="M997.22,12.75l.74-.18c-.35,.02-.64,.05-.74,.18Z"/>
      <path class="cls-1" d="M999.52,12.2l-1.56,.38c.55-.03,1.22-.04,1.56-.38Z"/>
      <path class="cls-1" d="M977.87,13.44l-.19,.42c.11-.09,.18-.23,.19-.42Z"/>
      <path class="cls-1" d="M972.23,13.83c1.35,.03,3.42,.71,5.29,.36l.16-.33c-.85,.65-4.2-.78-5.45-.03Z"/>
      <path class="cls-1" d="M948.47,9.82l4.74,.15c-.84-.4-1.95-.95,.19-1.13-6-1.08,1.27,.93-4.93,.98Z"/>
      <path class="cls-1" d="M933.8,9.73c2.53-.3-.05-.63,.07-.88-1.6,.45-1.98,.57-.07,.88Z"/>
      <path class="cls-1" d="M827.91,11.93l.25-1.03c-1.96,.17-.01,.4-.25,1.03Z"/>
      <polygon class="cls-1" points="807.7 17.37 809.61 17.99 810.51 17.05 807.7 17.37"/>
      <polygon class="cls-1" points="795.69 10.16 796.54 10.01 793.28 10.4 795.69 10.16"/>
      <path class="cls-1" d="M617.78,9.63l.58,1.27c1.33-.21,1.62-1.62-.58-1.27Z"/>
      <path class="cls-1" d="M540.95,9.78c-.83-.64-2.98-1.08-4.32-.49,1.73,.12,3.44,.63,4.32,.49Z"/>
      <polygon class="cls-1" points="310.6 3.18 312.16 2.79 309.24 3.09 310.6 3.18"/>
    </g>
  </g>
</svg>