<?xml version="1.0" encoding="UTF-8" standalone="no"?>
<svg
   id="Layer_2"
   data-name="Layer 2"
   viewBox="0 0 7215.5598 29415.964"
   version="1.1"
   sodipodi:docname="Asset 5 copy.svg"
   inkscape:version="1.3.2 (091e20e, 2023-11-25)"
   inkscape:export-filename="Asset 5-2.svg"
   inkscape:export-xdpi="200"
   inkscape:export-ydpi="200"
   width="7215.5596"
   height="29415.963"
   xmlns:inkscape="http://www.inkscape.org/namespaces/inkscape"
   xmlns:sodipodi="http://sodipodi.sourceforge.net/DTD/sodipodi-0.dtd"
   xmlns="http://www.w3.org/2000/svg"
   xmlns:svg="http://www.w3.org/2000/svg">
  <sodipodi:namedview
     id="namedview205"
     pagecolor="#ffffff"
     bordercolor="#000000"
     borderopacity="0.25"
     inkscape:showpageshadow="2"
     inkscape:pageopacity="0.0"
     inkscape:pagecheckerboard="0"
     inkscape:deskcolor="#d1d1d1"
     inkscape:zoom="0.085300966"
     inkscape:cx="1752.6179"
     inkscape:cy="4126.5652"
     inkscape:window-width="1920"
     inkscape:window-height="1027"
     inkscape:window-x="0"
     inkscape:window-y="62"
     inkscape:window-maximized="1"
     inkscape:current-layer="g205" />
  <defs
     id="defs182">
    <style
       id="style1">
      .cls-1 {
        fill: none;
      }

      .cls-2 {
        fill: #d07e6d;
      }

      .cls-3 {
        fill: url(#Nueva_muestra_de_motivo_2);
      }

      .cls-4 {
        opacity: .81;
      }
    </style>
    <pattern
       id="Nueva_muestra_de_motivo_2"
       data-name="Nueva muestra de motivo 2"
       x="0"
       y="0"
       width="72"
       height="72"
       patternTransform="translate(257.43 159.74) scale(9.33)"
       patternUnits="userSpaceOnUse"
       viewBox="0 0 72 72">
      <g
         id="g182">
        <rect
           class="cls-1"
           x="0"
           y="0"
           width="72"
           height="72"
           id="rect1" />
        <g
           id="g7">
          <path
             class="cls-2"
             d="M16.46,69.85c-.36,1.58,1.52,4.57-2.55,2.87l.51,1.39c-.81-.07-1.88-.43-2.03,.33,.35,.78,.46,1.65,1.52,2.21l-1.53-.25c-3.2-2.88,5.75-1.96,4.08-6.56Z"
             id="path1" />
          <path
             class="cls-2"
             d="M61.67,70.99c-.75-.2-1.93,.65-2.98,1.22l-1.75,4.75,1.88-1.11,.62,1.77,3.76-2.21-1.58,1.99c-2.55,.81-2.36-.58-2.8-1.54l-1.88,1.11c-.26-.43-.18-1.17-1.4-.77,4.53-2.29,2.38-3.9,3.63-5.85l2.5,.66Z"
             id="path2" />
          <path
             class="cls-2"
             d="M61.34,72.51c-.7,.64-.24,1.47-.09,2.24,1.28-1.69,5.54-1.97,2.9-5.25,.93,.17,.99,1.12,1.27,1.84-2.42,.04-2.03,4.93-5.04,2.93l.97-1.75Z"
             id="path3" />
          <polygon
             class="cls-2"
             points="69.75 71.25 68.03 71.12 72.53 72.62 72.86 72.06 70.08 70.69 69.75 71.25"
             id="polygon3" />
          <path
             class="cls-2"
             d="M46.45,77.2l-.7-.7,1-1,.7,.7-1,1,2,2c-.5,.6-1.3,1.1-1,2h-1c-.2-1.4,2.4-2.9,0-4h-1l2-6c-.3,2-3.7,4-1,6Z"
             id="path4" />
          <path
             class="cls-2"
             d="M22.68,68.39c-1.45,1.81-1.23,3.6-3.1,5.45l-1.4,.85,.98-.59,.4-1.67-.98,.59c.06,1.25-1.21,2.81-2.2,4.2l7.3-7.99-1-.83Z"
             id="path5" />
          <path
             class="cls-2"
             d="M44.62,71.37l-2,3c.4,2.1-.6-3.1-3-4l3,3,2-2Z"
             id="path6" />
          <path
             class="cls-2"
             d="M30.95,70.79c4.06-1.24,.07,2.47,.19,3.69-.91,1.25,.85-1.37,2.14-5.9-.64,.78-1.05,1.65-2.33,2.21Z"
             id="path7" />
        </g>
        <polygon
           points="-2.25 71.25 -3.97 71.12 .53 72.62 .86 72.06 -1.92 70.69 -2.25 71.25"
           id="polygon7" />
        <g
           id="g10">
          <path
             class="cls-2"
             d="M73.91,6.49l-1-.17v-1.39l1,.17v1.39l2.87,.49c.07,.78-.14,1.65,.72,2.21l-.72,.57c-1.15-1.03-.36-3.75-2.87-3.28l-.72,.57-2.87-6.06c1.22,1.81,.21,5.4,3.59,5.49Z"
             id="path8" />
          <path
             class="cls-2"
             d="M69.82,63.03c2.73,.52,4.43-.57,6.57-.87l-3.36,.75-1.37-.88c1.36-1.02-2,.38-1.84,1Z"
             id="path9" />
          <polygon
             class="cls-2"
             points="70.25 51.75 68.37 52.43 72.38 48.84 70.25 51.75"
             id="polygon9" />
          <polygon
             class="cls-2"
             points="69.4 41.06 68.92 40.75 73.27 40.32 73.29 39.39 75.47 39.18 74.39 38.82 69.4 41.06"
             id="polygon10" />
        </g>
        <g
           id="g166">
          <polygon
             class="cls-2"
             points="7 62.5 6.47 61.19 9.1 60.14 5.69 63.02 7 62.5"
             id="polygon11" />
          <path
             class="cls-2"
             d="M8.45,.2c-5,3.1,.9,6.6,1,10,1.4,.4,2-1.3,3-2,.3-.9-.5-1.4-1-2l-1,1c-.3-1.7,.8-4-1-5,.9,.3,1.4-.5,2-1-1.8,.7-.7,2.7-1,4,.7,1,2.4,1.6,2,3l-2,2,1,1c-.5,.6-1.3,1.1-1,2,1.6,1.6,3.9,4.6,6,2l-1,1c2.5,.5-3.1,.4-4-1-1-2.6-1.6-6.3-5-7l1,1c2.7-1.7-.7-3.3-1-5h-1C6.45,2.9,7.45,.7,8.45,.2Z"
             id="path11" />
          <path
             class="cls-2"
             d="M53.45,4.2l-.7-.7,1-1,.7,.7-1,1c-1-.7-1.6-2.4-3-2-.5,.6-1.3,1.1-1,2,2.6,2.5-1.3-.8,0-2,1.9-.6,2.8,.9,4,2Z"
             id="path12" />
          <path
             class="cls-2"
             d="M15.45,8.95c-.9-.3-1.4,.5-2,1-.3,.9,.5,1.4,1,2,2.1-.3,3.3-2.7,5-4-.6-1.2-1.9-1-3-1,1.1,0,2.4,.2,3-1l-1,1,1,1-3,3,1,1c0,2.5,.2-1-1-1-1.1,1.3-2.6,1.5-4,2l1-1-1-1c1.8-1.2,2.3-2.9,2-5,0,1.1-.2,2.4,1,3Z"
             id="path13" />
          <path
             class="cls-2"
             d="M57.95,14.45c.6,1.9-.9,2.8-2,4l1,1c-.5,.6-1.3,1.1-1,2-2-2.7-4,.7-6,1-1.2,1.4,2.2-1.4,1-3-.3,.9,.5,1.4,1,2l5-2-1-1,2-2-2-2h2Z"
             id="path14" />
          <path
             class="cls-2"
             d="M61.7,21.45c3.4,2.1,1.75,2.75,1.75,3.75l-2,2c2.7,4,4.8-7.2,7.3-3.7,2.5,1.3-.3,.3-1-1l-6.3,6.7,1-1-1-1c1.3-2.7,4.05-3.25,.25-6.75l1-1c.3,.9-.5,1.4-1,2Z"
             id="path15" />
          <path
             class="cls-2"
             d="M66.68,26.06c2.15,.69-1.89,3.41-2.82,5.14,1.16-.83,2.05-.72,3-.85,.64,.32-.32,1.19-.85,1.91-1.81,1.25-3.08,.67-4.63,.98l3.51,.33c.69-.73,1.17-1.57,2.48-2.04-3.71-1.18,.87-4.18,.41-6.79l-1.11,1.32Z"
             id="path16" />
          <path
             class="cls-2"
             d="M58.45,36.2c.6-.5,1.1-1.3,2-1l1,1,1-1v2c-1.2-2.1-3.3-2.3-5-1v-1l1,1Z"
             id="path17" />
          <path
             class="cls-2"
             d="M56.7,39.7c-.6-.5-1.3-.25-2.2,.05,1.9-1.2-1.9-3.8,0-5-1.3,1.6,1.5,2.95,2.2,4.95Z"
             id="path18" />
          <path
             class="cls-2"
             d="M59.9,51.4c1.1,0,2.4-.2,3,1l-.7-.7,2-2,.7,.7-3,3c.3-.9-.5-1.4-1-2h-1Z"
             id="path19" />
          <path
             class="cls-2"
             d="M21.45,60.2c-.6-1.2-1.9-1-3-1-2,1,.3,2.8,1,4l-.7-.7,1-1,.7,.7-1,1c-1.5-.1-.9-4.5-4-3l-1,1c.5,.6,1.3,1.1,1,2l-1,1,3,2c-.6-.5-1.1-1.3-2-1l-1,1c.3-.9-.5-1.4-1-2,.9,.3,1.4-.5,2-1-.5-1.4-.7-2.9-2-4,1.2,1,5.3,2.2,5-1,1.4-.4,2,1.3,3,2Z"
             id="path20" />
          <path
             class="cls-2"
             d="M12.45,62.2c-.5,.6-1.3,1.1-1,2-.6-.5-1.1-1.3-2-1l.7,.7-1,1-.7-.7,2-2,1,1,1-1Z"
             id="path21" />
          <path
             class="cls-2"
             d="M5.45,67.2c1.9,2.7,3.6-.9,6,0-.5,.6-1.3,1.1-1,2-.6-.5-1.1-1.3-2-1-.5,.6-1.3,1.1-1,2,1,0-5.7-2.7-1-6,0,1.1,.2,2.4-1,3Z"
             id="path22" />
          <path
             class="cls-2"
             d="M6.76,45.84c1.03,1.71,2.7,1.18,4.32,1.14l.09,1.41c.78,.02,1.68-.25,2.16,.57-.7-3.29,3.17-2.54,4.72-3.84,1.84,.03-2.5,.73-2.91-1.23,.87,.37,.72,1.3,.84,2.07l-4.81,2.43-.09-1.41-2.82,.18-.18-2.82-1.32,1.5Z"
             id="path23" />
          <path
             class="cls-2"
             d="M8.09,25.85l.81,1.16,2.32-1.62,.81,1.16,1.16-.81-.18,.98c1.6-.42-4.56,.5-7.07-.25,.83,.45,1.47-.25,2.15-.63Z"
             id="path24" />
          <path
             class="cls-2"
             d="M59.3,7.13c3.8,1.25-1.08,4.5,.81,6.66-1.44-2.21,1.74-4.58-.81-6.66Z"
             id="path25" />
          <polygon
             class="cls-2"
             points="63.5 16.75 61.96 18.03 65.25 11.75 63.5 16.75"
             id="polygon25" />
          <path
             class="cls-2"
             d="M9.75,29.75l1,1-3,3,1,1h-1v-2c.9,.3,1.4-.5,2-1,.3-.9-.5-1.4-1-2,.6-.5,1.1-1.3,2-1l-1,1Z"
             id="path26" />
          <path
             class="cls-2"
             d="M16,35.25c.6,.5,1.1,1.3,2,1,1.2-.6,1-1.9,1-3h1l-1,1,.7-.7,2,2-.7,.7c-.6-.5-1.1-1.3-2-1l-2,2,1,1-1,1c1.5-2.6-3-4,0-6-.5,.6-1.3,1.1-1,2Z"
             id="path27" />
          <polygon
             class="cls-2"
             points="7 37.25 9 36.25 11 38.25 7 37.25"
             id="polygon27" />
          <path
             class="cls-2"
             d="M15,37.25c-1,1.3-3.1,2.2-3,4v1h-2v-1c1.4,.4,2-1.3,3-2v-3c.6,.5,1.1,1.3,2,1Z"
             id="path28" />
          <path
             class="cls-2"
             d="M68.51,9.94l.97,.23,.14,1.67-.97-.23c-.15-1.99-.1-1.33,1.25-2.25-.47-.62,.69-2.34-.25-2.25l.74-.84-1.88,3.67Z"
             id="path29" />
          <path
             class="cls-2"
             d="M51.25,72.25c-1.1,.5,4.1-2.5,3-5,1.1,2.5-2,3.3-3,5Z"
             id="path30" />
          <path
             class="cls-2"
             d="M63.01,55.34v-1.41c2.33,.62,3.94-.74,4.21-2.86,1.47-1.5-2.32,1.79,.02,2.83-2.62-.9-4.02,1.38-5.63,2.88v1.42c4.25-.46-2.1,1.15,0-1.42v.99s-1.41,.01-1.41,.01v-.99c1.27,.41,2.04-.65,2.81-1.44Z"
             id="path31" />
          <path
             class="cls-2"
             d="M64,68.25l-3,5c-3.3,1.7,6.8-7.2-1-4l-.7,.7-1-1,.7-.7c1,2,2.8-.3,4-1-2.4-1.2-2.4-3.8,0-5-3,.9-1.5,4.4,1,6Z"
             id="path32" />
          <path
             class="cls-2"
             d="M55.75,56.75h1v2h-1c-.6-1.9,.9-2.8,2-4-.6-.5-1.1-1.3-2-1l1-1c-1-1-3.3-2.8-1-4-3.3,3.4,7.6,6.5,0,8Z"
             id="path33" />
          <path
             class="cls-2"
             d="M53.5,28v1c-.6-1.2-1.9-1-3-1l-1,1c2.7,.1,1.4-1.65,1.5-3.25,2.7,3-.8,.75,2.5,2.25Z"
             id="path34" />
          <path
             class="cls-2"
             d="M59.25,32.75c.6-.5,1.1-1.3,2-1-.6,.5-1.1,1.3-2,1l-3-3-2,2,1-2c1.8,.8,3.2,.9,4,3Z"
             id="path35" />
          <path
             class="cls-2"
             d="M64,6l1,1c-1.4-.4-2,1.3-3,2l2,2c1.3-1,2.2-3.1,4-3-1.6-.5-3.7,5.1-6,2,.7-1.8,2.1-4.2,3-5l-1,1Z"
             id="path36" />
          <path
             class="cls-2"
             d="M57.5,6c.2,1.5-1.7,2.3-1,4l1,1-.7-.7,1-1,.7,.7c-1.2,.6-1,1.9-1,3l-2-7h2Z"
             id="path37" />
          <path
             class="cls-2"
             d="M60.75,19c-1.2-.6-1-1.9-1-3,1.4,.4,2-1.3,3-2l-1-2c3.5,2.7-3.3,3.6-1,7Z"
             id="path38" />
          <path
             class="cls-2"
             d="M6,48.75l1.44,.25-1.44,1.15-.72-3.61c.86,.57,.65,1.43,.72,2.21Z"
             id="path39" />
          <path
             class="cls-2"
             d="M50.1,15.57c2.09,.06,1.02-4.78,4.12-7.87l-4.85-.2,3.38,.34,.62-1.42c1.11,2.8-.84,5.51-3.26,9.14Z"
             id="path40" />
          <path
             class="cls-2"
             d="M7.55,53.51c-.5-2.38,2.15-2.42,3.59-2.87v1.39c-2.37-1.03-4.02,0-4.31,2.05l-.72-.82,1.44,.25Z"
             id="path41" />
          <path
             class="cls-2"
             d="M4.13,54.72v1.39l2.87,.49v1.39l1.44,.25-.72,.57c1.58,.83-4.09-2.86-5.74-5.16,.43,.91,1.36,.86,2.15,1.06Z"
             id="path42" />
          <path
             class="cls-2"
             d="M16.56,55.5v-1.39l1.44,.25v1.39c2.73,1.02-5.6-2.49-4.31,2.05-1.87,1.07,2.01-.49,.72-1.97l-2.15,.33c1.36-.39,2.58-1.09,4.31-.66Z"
             id="path43" />
          <path
             class="cls-2"
             d="M51.01,33.12c1.65,.07,3.8,1.28,5.03,.16-.86,3.19,3.16,1.66,4.31,3.52-.43,.76-1.36,.39-2.15,.33,.14-1.65-2.58-2.95-4.31-3.52l-2.87-.49,.72,3.61-.72-5v1.39Z"
             id="path44" />
          <path
             class="cls-2"
             d="M17.44,24.13c-2.59,.53-.93,3.53-1.44,5.33-.43-.91-1.36-.86-2.15-1.07-.86,.27-.65,1.21-.72,1.97,.72,1.38,2.37,.89,3.59,1.31l-3.59,.08c-.07-.78,.14-1.65-.72-2.21,4.45-.91,2.51-4.24,5.03-6.8v1.39Z"
             id="path45" />
          <path
             class="cls-2"
             d="M5.66,38.86l-.97-.31,.2-1.38,.97,.31-.2,1.38,2.77,.9c-.04,.78-.38,1.61,.39,2.29l-.79,.46c-.99-1.19,.18-3.77-2.37-3.66l-.79,.46-1.84-5.46c.95,1.97-.7,4.42,2.63,4.99Z"
             id="path46" />
          <path
             class="cls-2"
             d="M11.42,34.09c.49-3.51-.27,2.19,2.17,.15l-3,.25,.83-.4Z"
             id="path47" />
          <path
             class="cls-2"
             d="M6.89,18.57c.07-.75-.14-1.7,.72-1.97-.07,.75,.14,1.7-.72,1.97l-4.31-.74v2.79l-.72-2.21c1.87-.38,2.94-1.1,5.03,.16Z"
             id="path48" />
          <path
             class="cls-2"
             d="M10.13,17.43c.71-.27,1.45-.89,2.08-.24l.42,1.39,1.25-.62-.82,2.02c-.14-2.58-1.81-3.59-3.76-2.93l.41-1.01,.42,1.39Z"
             id="path49" />
          <path
             class="cls-2"
             d="M19.9,30.37l1.13-.85-.28,1.98-2.69-2.4c.93-.17,1.32,.69,1.84,1.27Z"
             id="path50" />
          <path
             class="cls-2"
             d="M3.1,11.37l1.44,.25c-1.29,.47-.5,2.21-.72,3.36l2.87,.49c.22-1.56-.65-3.8,.72-4.75-1.51,.51,1.01,6.3-2.87,5.08-.79-1.88-1.51-4.64-1.44-5.82v1.39Z"
             id="path51" />
          <path
             class="cls-2"
             d="M1.91,6.49l-1-.17v-1.39l1,.17v1.39l2.87,.49c.07,.78-.14,1.65,.72,2.21l-.72,.57c-1.15-1.03-.36-3.75-2.87-3.28l-.72,.57L-1.68,1c1.22,1.81,.21,5.4,3.59,5.49Z"
             id="path52" />
          <path
             class="cls-2"
             d="M65.75,48c.07-.75-.14-1.7,.72-1.97-.07,.75,.14,1.7-.72,1.97l-4.31-.74v2.79l-.72-2.21c1.87-.38,2.94-1.1,5.03,.16Z"
             id="path53" />
          <path
             class="cls-2"
             d="M68.34,34.49c-.93,1.58-.14,4.57-3.59,2.87v1.39c-.79-.07-1.72-.43-2.15,.33,.07,.78-.14,1.65,.72,2.21l-1.44-.25c-2.15-2.88,6.46-1.96,6.46-6.56Z"
             id="path54" />
          <path
             class="cls-2"
             d="M16.46-2.15c-.36,1.58,1.52,4.57-2.55,2.87l.51,1.39c-.81-.07-1.88-.43-2.03,.33,.35,.78,.46,1.65,1.52,2.21l-1.53-.25c-3.2-2.88,5.75-1.96,4.08-6.56Z"
             id="path55" />
          <path
             class="cls-2"
             d="M67.58,12.8c-2.39,.53,.35,3.53,.5,5.33-.76-.91-1.68-.86-2.54-1.06-.76,.27-.21,1.21,0,1.97,1.22,1.38,2.7,.89,4.07,1.31l-3.56,.08c-.35-.78-.46-1.65-1.52-2.21,4.12-.91,.97-4.24,2.55-6.8l.51,1.39Z"
             id="path56" />
          <path
             class="cls-2"
             d="M69.75,64.42c-3.2-1.7-3.46,1.15-3.06,3.44,1.52,.64,1.98-.27,2.54-.9-.76,.27-.21,1.21,0,1.97l.51-.57,1.02,.82-.51,.57c3.86,.56-1.47,.09-2.03-1.64-3.97-1.42-.1,2.87-1.53,3.69l-.5-5.33,.36,.97-1.52-.25-.36-.97c4.17,1.39-.2-4.49,5.09-1.8Z"
             id="path57" />
          <path
             class="cls-2"
             d="M58.46,38.85c-.36,1.58,1.52,4.57-2.55,2.87l.51,1.39c-.81-.07-1.88-.43-2.03,.33,.35,.78,.46,1.65,1.52,2.21l-1.53-.25c-3.2-2.88,5.75-1.96,4.08-6.56Z"
             id="path58" />
          <path
             class="cls-2"
             d="M54.42,25.15c1.63,1.11,1.47,2.86,3.56,3.85l1.53,.25-1.07-.17-.51-1.39,1.07,.17c0,1.18,1.42,2.13,2.54,3.03l-8.13-4.59,1.02-1.15Z"
             id="path59" />
          <path
             class="cls-2"
             d="M61.47,20.06c-3.56,.87-.16,6.07-3.57,5.98l-1.07-.17-.51-1.39,1.07,.17,.51,1.39c3.61,1.24,.97-2.47,1.53-3.69l-1.52-.25,3.56-2.05Z"
             id="path60" />
          <path
             class="cls-2"
             d="M12.57,24.31l-.19-3.69c-3.19,2.9-4.25,1.2-6.16,1.55l1.61-.24-1.01,1.39c2.31-2.58,5.5,.53,7.66,1.31l1.01-1.39c-1.09,.91-1.99,.86-2.93,1.06Z"
             id="path61" />
          <path
             class="cls-2"
             d="M4.15,21.92l.02-.92,4.35-.44,.02-.92,2.18-.22-1.08-.35c2.4-.61-6.24,2.05-8.77,3.64,.67-.62,2.08-.62,3.28-.79Z"
             id="path62" />
          <path
             class="cls-2"
             d="M3.75,29.75l.31-1.42,1.08,1.49-3.63,.54c.61-.83,1.46-.58,2.24-.61Z"
             id="path63" />
          <polygon
             class="cls-2"
             points="11.97 45.07 13.62 45.56 9.56 43.13 9.12 43.6 11.53 45.54 11.97 45.07"
             id="polygon63" />
          <path
             class="cls-2"
             d="M17.75,51c-.84,.07-2.04,.43-1.92-.33,.43-1.18,2.2-2.13,3.64-3.03l-.3-.57-1.01,1.39,.71-.98-3.23,.49-.71,.98c.84-.06,2.04-.43,1.92,.33l-2.03,2.79-1.62,.25-1.01,1.39c2.97-2.99,6.16-1.56,7.89-4.92-.64,.78-1.06,1.65-2.33,2.21Z"
             id="path64" />
          <path
             class="cls-2"
             d="M79.35,31.91c-3.09,1.77-5.74,.55-9.33-.9-.29,2.04,4.96-.2,7.9,2.05l1.44-1.15Z"
             id="path65" />
          <path
             class="cls-2"
             d="M73.62,47.63c3.66,.56-1.51,.09-1.44-1.64-3.45-1.42-1.15,2.87-2.87,3.69l1.44-5.33v.97l-1.44-.25v-.97c3.66,1.39,1.44-4.49,5.74-1.8-2.58-1.69-3.88,1.15-4.31,3.44,1.29,.64,2.08-.27,2.87-.9v2.79Z"
             id="path66" />
          <path
             class="cls-2"
             d="M75.36,60.23c-.43-2.58-5.89,.53-8.62,1.31v-1.39c.43,.91,1.36,.86,2.15,1.07l2.87-3.69c1.08,2.9,3.38,1.2,5.03,1.56l-1.44,1.15Z"
             id="path67" />
          <path
             class="cls-2"
             d="M73.25,37.5c-1.65,.34-2.94-2.38-4.31-.74v-1.39l4.31,2.13Z"
             id="path68" />
          <path
             class="cls-2"
             d="M74.16,14.95c-.07-.78,.14-1.65-.72-2.21-2.51-1.34-1.72,1.66-2.87,2.29-1.79,1.43,.86-.41,0-1.39l-1.44-.25c1.01,2.4,4.52-3.05,2.15-5.9l2.87,7.45Z"
             id="path69" />
          <path
             class="cls-2"
             d="M72.68,52.53l-.51-1.39c2.75,1.03,4.02,0,3.56-2.05,1.07-1.21-1.88,1.33,1.01,2.78-3.15-1.36-3.87,.62-5.09,1.8l.51,1.39c4.42,.32-1.88,.75-.51-1.39l.35,.98-1.52-.25-.35-.98c1.52,.64,1.98-.27,2.54-.9Z"
             id="path70" />
          <path
             class="cls-2"
             d="M71.35,16.47l-1.31,.82c1.76-.64,1.89,.27,2.22,.9l-1.01,1.39c-.94-1.47,.44,2.84,2.52,1.48-4.75,.91,.56-3.92-2.4-4.59Z"
             id="path71" />
          <path
             class="cls-2"
             d="M72.64,24.47l-.71,.98c.84-.06,2.04-.43,1.92,.33l-2.03,2.79-1.62,.25-1.01,1.39c2.97-2.99,6.16-1.56,7.89-4.92-.64,.78-1.06,1.65-2.33,2.21-.84,.07-2.04,.43-1.92-.33l-.19-2.7Z"
             id="path72" />
          <path
             class="cls-2"
             d="M56.88,46.74l-1.31,.82c1.76-.64,1.89,.27,2.22,.9l-1.01,1.39c-.94-1.47,.44,2.84,2.52,1.47-4.75,.91,.56-3.92-2.4-4.59Z"
             id="path73" />
          <path
             class="cls-2"
             d="M57.03,72.84c.48-.75,1.38-1.7,.71-1.97l-1.62,.25,1.01-1.39-2.63,1.64c3.12-1.03,4.01,0,2.82,2.05l-.3-.57Z"
             id="path74" />
          <path
             class="cls-2"
             d="M58.7,44.54c4.06-1.24,.07,2.47,.19,3.69-.91,1.25,.85-1.37,2.14-5.9-.64,.78-1.05,1.65-2.33,2.21Z"
             id="path75" />
          <path
             class="cls-2"
             d="M61.67-1.01c-.75-.2-1.93,.65-2.98,1.22l-1.75,4.75,1.88-1.11,.62,1.77,3.76-2.21-1.58,1.99c-2.55,.81-2.36-.58-2.8-1.54l-1.88,1.11c-.26-.43-.18-1.17-1.4-.77,4.53-2.29,2.38-3.9,3.63-5.85l2.5,.66Z"
             id="path76" />
          <path
             class="cls-2"
             d="M67.09,2.91c-.49,.58-1.31,1.09-.9,1.89l1.18,.85-.99,.98,2.17-.12c-2.4-.97-2.81-2.87-1.56-4.51l-1.09,.06,1.18,.85Z"
             id="path77" />
          <path
             class="cls-2"
             d="M61.34,.51c-.7,.64-.24,1.47-.09,2.24,1.28-1.69,5.54-1.97,2.9-5.25,.93,.17,.99,1.12,1.27,1.84-2.42,.04-2.03,4.93-5.04,2.93l.97-1.75Z"
             id="path78" />
          <path
             class="cls-2"
             d="M64.37,44.04l.73,.68-1.37,1.46-.73-.69c.87-1.8,2.57-1.42,4.2-1.54-.09-.78,.09-1.7-.77-2.1l1.41-.04c-.04-1.41-.48-4.3,2.01-3.6-4.73,.21,1.08,9.94-5.48,5.83Z"
             id="path79" />
          <path
             class="cls-2"
             d="M58.34,59.5c-.96,3.22-6.01-2.22-6.02,1.22l.14,1.13,1.36,1.05-.14-1.13-1.36-1.05c-1.12-4.09,2.47,0,3.69-.09l.2,1.62,2.13-2.76Z"
             id="path80" />
          <path
             class="cls-2"
             d="M66.25,55.75c-.9-.3-1.4,.5-2,1,2.1,.3,4.4,3.9,6,0,.3,.9-.5,1.4-1,2-1.2-2.1-5.3,.6-5-3h2Z"
             id="path81" />
          <path
             class="cls-2"
             d="M60.16,61.82l-.26-1.39,1.39-.26,.26,1.39c2.74,.06-5.71-.51-3.65,3.56-1.54,1.73,1.79-1.2,.3-2.22l-1.95,1.09c1.2-.87,2.21-2,3.91-2.17Z"
             id="path82" />
          <path
             class="cls-2"
             d="M74.75,64.75c-1.4-.4-2,1.3-3,2,0,2.5,.2-1-1-1l-1,1,1-2c-.3,.9,.5,1.4,1,2l2-3,1,1Z"
             id="path83" />
          <polygon
             class="cls-2"
             points="64.3 62.61 62.95 59.93 65.19 62.16 65.64 63.05 64.75 63.5 64.3 62.61"
             id="polygon83" />
          <polygon
             class="cls-2"
             points="70.25 51.75 68.37 52.43 72.39 48.84 70.25 51.75"
             id="polygon84" />
          <path
             class="cls-2"
             d="M-2.18,63.03c2.73,.52,4.43-.57,6.57-.87l-3.36,.75-1.37-.88c1.36-1.02-2,.38-1.84,1Z"
             id="path84" />
          <polygon
             class="cls-2"
             points="-1.75 51.75 -3.63 52.43 .39 48.84 -1.75 51.75"
             id="polygon85" />
          <path
             class="cls-2"
             d="M3.73,74.14c-4.06,1.24-.07-2.47-.19-3.69l1.62-.25-2.82-2.05c3.25,.87-2.05,6.07,1.39,5.98Z"
             id="path85" />
          <path
             class="cls-2"
             d="M9.25,53.5c1.39,1.14,.64,3.3,.92,4.91l-.12-2.82-1.41,.06c-.77,1.87-.14-1.62,.61-2.15Z"
             id="path86" />
          <path
             class="cls-2"
             d="M3,44.75c.62-1.15,2.67-2.88,1.73-3.36l-1.73,3.36c2.38-1.79-1.6,3.28,4.24-1.88-1.44,.9-3.09,2.08-4.24,1.88Z"
             id="path87" />
          <polygon
             class="cls-2"
             points="69.75 71.25 68.03 71.12 72.53 72.62 72.86 72.06 70.08 70.69 69.75 71.25"
             id="polygon87" />
          <polygon
             class="cls-2"
             points="69.75 -.75 68.03 -.88 72.53 .62 72.86 .06 70.08 -1.31 69.75 -.75"
             id="polygon88" />
          <path
             class="cls-2"
             d="M50.17,70.24c.22-1.08,.28-2.39,1.58-2.74l-.83,.55-1.56-2.36,.83-.55,2.34,3.54c-.82-.47-1.47,.21-2.16,.58l-.2,.98Z"
             id="path88" />
          <polygon
             class="cls-2"
             points="12.66 68.77 11.92 70.73 15.16 70.28 12.66 68.77"
             id="polygon89" />
          <path
             class="cls-2"
             d="M68,28.5l2-3,1,1c-1.4-.4-2,1.3-3,2Z"
             id="path89" />
          <path
             class="cls-2"
             d="M70,4.12c0,2.5,.2-1-1-1l-1,1,1-2c-.3,.9,.5,1.4,1,2Z"
             id="path90" />
          <path
             class="cls-2"
             d="M72.82,35.25c-1.35-.91-4.39-.29-3.85-3.19,.25,1.07,.36,2.38,1.67,2.68,.95,.08,1.25-.81,1.71-1.44l1.67,2.68-1.21-.74Z"
             id="path91" />
          <polygon
             class="cls-2"
             points="74.39 38.82 69.4 41.06 68.92 40.75 73.27 40.32 74.39 38.82"
             id="polygon91" />
          <polygon
             class="cls-2"
             points="-2.6 41.06 -3.08 40.75 1.27 40.32 1.29 39.39 3.47 39.18 2.39 38.82 -2.6 41.06"
             id="polygon92" />
          <polygon
             class="cls-2"
             points="53.24 23.98 55.28 22.49 52.24 23.39 53.24 23.98"
             id="polygon93" />
          <polygon
             class="cls-2"
             points="54.03 54.49 54.06 52.21 52.77 52.4 54.03 54.49"
             id="polygon94" />
          <path
             class="cls-2"
             d="M46.45,5.2l-.7-.7,1-1,.7,.7-1,1,2,2c-.5,.6-1.3,1.1-1,2h-1c-.2-1.4,2.4-2.9,0-4h-1l2-6c-.3,2-3.7,4-1,6Z"
             id="path94" />
          <path
             class="cls-2"
             d="M44.45,18.45l-2.01,.05-.74,.95c.1-1.8-2-2.7-3-4l-1,1c-.2-1.4,3.9-2.9,0-4h-1l1-3c.6,3.4,1.3,8.65,6.75,9Z"
             id="path95" />
          <path
             class="cls-2"
             d="M51,9.75c-4.05,.77-5.03,5.93-8.39,5.76l-.97-.2,.28-1.39,.97,.2,.47,1.14c2.91,1.31,2.36-2.41,3.61-3.6l-1.39-.28,5.41-1.63Z"
             id="path96" />
          <path
             class="cls-2"
             d="M42.95,22.45l4.45-.83c-1.2,2.7,2.45,2.63,3.55,3.83l-1-1-1,1c1.5-2.1-6.92-4.21-9.42-4.21l.5-1.75c-.3,.9,2.42,2.36,2.92,2.96Z"
             id="path97" />
          <path
             class="cls-2"
             d="M27.45,23.2c-2.5-1.1-3.3,2-5,3,.3-.9-.5-1.4-1-2-.9-.3-1.4,.5-2,1-.4,1.4,1.3,2,2,3l-3-2c.5-.6,1.3-1.1,1-2,4.3,1.9,5.1-1.6,9-2l-1,1Z"
             id="path98" />
          <path
             class="cls-2"
             d="M41.45,23.2c-1.9,.6-3.4,3.2-5,0l-1,1c-.6-.5-1.1-1.3-2-1-.5,.6-1.3,1.1-1,2l-1-1c.3-3.3,6.7,2.3,10-1Z"
             id="path99" />
          <path
             class="cls-2"
             d="M27.45,32.2c.3-.9-.5-1.4-1-2l-4,2,4,4c.5-.6,1.3-1.1,1-2l1,1c-.9-.3-1.4,.5-2,1,0,2.6,2.5,1.6,3,4-3.6-1.3-2.5-7.1-7-8,1.2-1.6,5.3-.6,4-4l1,4Z"
             id="path100" />
          <path
             class="cls-2"
             d="M44.45,34.7c3.8,.4,.5-5.6,5-4l-5,4Z"
             id="path101" />
          <path
             class="cls-2"
             d="M32.1,41.38l-.74,1.21,2.41,1.48-.74,1.2,1.2,.74-.97,.23c1.03,1.3-2.28-3.98-2.59-6.58-.08,.94,.81,1.25,1.43,1.71Z"
             id="path102" />
          <path
             class="cls-2"
             d="M34.45,36.2c1.3-2,3.5-.5,5,0l-1,1c-1.2-2.1-3.3-2.3-5-1v-1l1,1Z"
             id="path103" />
          <path
             class="cls-2"
             d="M45.39,40.98c-1.2-2.96-2.11,1.51-5.1,.11-1.04,.73,1.24-.69,6.43-1.9-.6,.5-1.47,.86-1.33,1.79Z"
             id="path104" />
          <path
             class="cls-2"
             d="M35.45,43.7l1,1h-2l2-3c.3,.9-.5,1.4-1,2Z"
             id="path105" />
          <path
             class="cls-2"
             d="M32.45,48.2c1.7-1.3-4.2-2.7-5-6l-4,3,3-2-1-1c3.8,.5,5.1,2.9,7,6Z"
             id="path106" />
          <path
             class="cls-2"
             d="M45.45,45.7c.3-.9-.5-1.4-1-2l1,1,1-2-1,3Z"
             id="path107" />
          <path
             class="cls-2"
             d="M48.45,48.2c1-.7,1.6-2.4,3-2l-3,2c.4-1.9-3,1.9-1-3,0,1.1-.2,2.4,1,3Z"
             id="path108" />
          <path
             class="cls-2"
             d="M22.45,48.2c0,1.1,.2,2.4-1,3l2,2c2.1-1.2,2.3-3.3,1-5l1,3c-1.6,3.2-3.1,.6-5,0-1.2,1.7,5.1-2.9,0-3-2.4,2.1,.8,.1,0-1,.6,.5,1.1,1.3,2,1Z"
             id="path109" />
          <path
             class="cls-2"
             d="M41.2,54.95c-1.6-.7-.7-3.4-3-3l1-1,2,4Z"
             id="path110" />
          <path
             class="cls-2"
             d="M43.95,52.95c-2,2.5,1.3-.3-1-1,1.4,.4,2-1.3,3-2l-2-1h2l-2,4Z"
             id="path111" />
          <path
             class="cls-2"
             d="M29.65,55.9c1.3,1,2.2,3.1,4,3-3,1.8,1.4,3,1,5-.9,.3-1.4-.5-2-1,1.3-1.1,0-3.6-1-5l-2-2-2,3,3-4-1,1Z"
             id="path112" />
          <path
             class="cls-2"
             d="M35.45,56.95c-4.37,5.12,4.47-2.88-1-1.75l5,.75-4,1Z"
             id="path113" />
          <path
             class="cls-2"
             d="M36.45,59.7c3.3,2.7-2.3,5.3,1,8h-2c.3-2.7,3.7-5.3,1-8h-1l6-3-5,3Z"
             id="path114" />
          <path
             class="cls-2"
             d="M30.95,60.2c-2.7,2.2-1.2,6.2-5,8-1.4,1.7,2.8-2.2,3-4,0-1.6-.4-4.3,2-4Z"
             id="path115" />
          <path
             class="cls-2"
             d="M48.75,62.94c-1.59-1.1-2.63,.93-3.88,1.41-1.12,3.17-.39,4.61,2.53,5.53,.91-.25,.88-1.2,1.1-1.95-.25-.91-1.2-.88-1.95-1.1,.91-.26,.88-1.2,1.1-1.95-.63,2.11,1.68,3.57,.31,5.82l-4.45-3.03c1.38-.45,.93-2.2,1.37-3.34l-3.05,.85,6.36-3.09,.56,.83Z"
             id="path116" />
          <path
             class="cls-2"
             d="M40.45,48.2c-.6-.5-1.1-1.3-2-1,1.9-1.2-1.9-3.8,0-5-1.3,1.6,1.3,4,2,6Z"
             id="path117" />
          <path
             class="cls-2"
             d="M43.12,24.57c-2.43,3.33,1.47,6.82-1.1,8.99l-.84,.52-.74-1.2,.84-.52,.74,1.2c3.02-1.03,.08-3.37,.18-5.09l-1.2,.74,2.12-4.64Z"
             id="path118" />
          <path
             class="cls-2"
             d="M29.79,9.13l-.48,1.33,2.66,.96-.48,1.33,1.33,.48-.9,.43c1.27,1.06-3.05-3.43-3.89-5.91,.11,.94,1.05,1.05,1.76,1.38Z"
             id="path119" />
          <polygon
             class="cls-2"
             points="35.5 5.75 31.5 2.75 35.5 .75 32.5 2.75 35.5 5.75"
             id="polygon119" />
          <path
             class="cls-2"
             d="M49.12,51.08c-.62,.72-.07,1.49,.17,2.23,1.07-1.83,5.28-2.59,2.28-5.55,.95,.06,1.11,1,1.47,1.68-2.4,.31-1.46,5.13-4.67,3.49l.76-1.85Z"
             id="path120" />
          <path
             class="cls-2"
             d="M49.75,55.25l1-1,1,1-1,1c1.5,2.3-2.8-5-5-1-2.3-.3,2,.8,2-1l-2-1c1.4,.5,2.9,.7,4,2Z"
             id="path121" />
          <polygon
             class="cls-2"
             points="46 28.5 45 29.5 46 26.5 47 26.5 47 28.5 46 28.5"
             id="polygon121" />
          <path
             class="cls-2"
             d="M22.75,8.5c.1,1.8-2,2.7-3,4l2-2-1-1c-1.9,.7,1.1-1.2,2-1Z"
             id="path122" />
          <polygon
             class="cls-2"
             points="23.75 17.5 20.75 17.5 23.75 16.5 24.75 16.5 24.75 17.5 23.75 17.5"
             id="polygon122" />
          <path
             class="cls-2"
             d="M31,20c.5-.6,1.3-1.1,1-2-1.1-2.4-2.6,.2-4,0-2.5,0,1,.2,1-1l-1-1c-.9,2.3,5.9,.4,6-3l-3,7Z"
             id="path123" />
          <path
             class="cls-2"
             d="M39.75,28.5c-.9-2.7-4-1.4-6,0,.6,1.2,1.9,1,3,1-.9-.3-1.4,.5-2,1h1v1h-1c2.6,2.5-1.3-.8,0-2-1.8-3-3,1.4-5,1l5-3-.7,.7-1-1,.7-.7c2,3.1,4.4-2.4,6,2Z"
             id="path124" />
          <path
             class="cls-2"
             d="M36.18,10.1c-.43-.91-1.37-.86-2.16-1.07v1.39c-1.44-1.22-2.3-3.74-4.31-3.52,.86-.27,.65-1.21,.72-1.97-.79,1.61,1.44,2.61,2.15,3.85,1.22,.42,2.87-.07,3.59,1.31Z"
             id="path125" />
          <path
             class="cls-2"
             d="M48.08,34.08c2.24,1.21,2.39,2.81,3.05,4.42l1.53,.25c.36,.78,.46,1.65,1.52,2.21-3.76-1.06-1.33,2.87-2.04,4.26,.81,1.84-.3-2.41-2.54-3.03,.76,.91,1.68,.86,2.54,1.06l.51-4.51-1.53-.25-1.01-2.79-3.05-.49,1.02-1.15Z"
             id="path126" />
          <path
             class="cls-2"
             d="M28.85,67.17c1.09-.91,1.99-.86,2.93-1.07l-1.62,.25,2.33-2.21-3.64,3.03Z"
             id="path127" />
          <path
             class="cls-2"
             d="M24.65,56.42c-.86,.27-.65,1.21-.72,1.96"
             id="path128" />
          <path
             class="cls-2"
             d="M33.55,70.82c.84-.07,2.04-.43,1.92,.33,1-2.07,5.56-2.02,6.57-4.1-1.71,2.06-5.65,2.53-8.49,3.77Z"
             id="path129" />
          <path
             class="cls-2"
             d="M44,60.75c-.84,.07-2.04,.43-1.92-.33,.43-1.18,2.2-2.13,3.64-3.03l-.3-.57-1.01,1.39,.71-.98-3.23,.49-.71,.98c.84-.06,2.04-.43,1.92,.33l-2.03,2.79-1.62,.25-1.01,1.39c2.97-2.99,6.16-1.56,7.89-4.92-.64,.78-1.06,1.65-2.33,2.21Z"
             id="path130" />
          <path
             class="cls-2"
             d="M22.68-3.61C21.23-1.8,21.46,0,19.58,1.85l-1.4,.85,.98-.59,.4-1.67-.98,.59c.06,1.25-1.21,2.81-2.2,4.2l7.3-7.99-1-.83Z"
             id="path131" />
          <path
             class="cls-2"
             d="M21.45,45.04l-1.7-.29-1.87-2.68-1.7-.29-.94-1.34-.38,.52c-1.71-1.59,5.3,4.26,8.84,6.22-1.3-.58-1.65-1.4-2.25-2.15Z"
             id="path132" />
          <path
             class="cls-2"
             d="M24.65,56.42c-.79-.07-1.72-.43-2.15,.33,.5-2.07-4.09-2.02-3.59-4.1,.21,2.06,3.81,2.53,5.74,3.77Z"
             id="path133" />
          <path
             class="cls-2"
             d="M27.17,46.08c1.79,1.21,1.36,2.81,1.44,4.42l1.44,.25c.07,.78-.14,1.65,.72,2.21-3.37-1.06-2.37,2.87-3.59,4.26,.14,1.84,.57-2.41-1.44-3.03,.43,.91,1.36,.86,2.15,1.06l2.15-4.51-1.44-.25v-2.79l-2.87-.49,1.44-1.15Z"
             id="path134" />
          <path
             class="cls-2"
             d="M38.19,48.17c-2.59-1.7-3.88,1.15-4.31,3.44,1.29,.64,2.08-.27,2.87-.9-.86,.27-.65,1.21-.72,1.97l.72-.57,.72,.82-.72,.57c3.66,.56-1.51,.09-1.44-1.64-3.45-1.42-1.15,2.87-2.87,3.69l1.44-5.33v.97l-1.44-.25v-.97c3.66,1.39,1.44-4.49,5.74-1.8Z"
             id="path135" />
          <path
             class="cls-2"
             d="M25,60.75l1,1h-2l2-3c.3,.9-.5,1.4-1,2Z"
             id="path136" />
          <path
             class="cls-2"
             d="M17.42,68.46l3.27-3.34c.75,3,3.22,1.57,4.82,2.11l-1.4-.4-.16,1.38c-.14-2.61-5.91-.13-8.71,.34l.16-1.38c.33,.95,1.26,1.01,2.02,1.3Z"
             id="path137" />
          <path
             class="cls-2"
             d="M24.99,64.83c.35-3.53-.19,2.2,2.21-.32l-3.04,.88,.82-.57Z"
             id="path138" />
          <path
             class="cls-2"
             d="M20.58,39.26c1.12,.41,2.53,.73,2.71,1.97l2.75-.95c-.48-2.23-2.56-3.19-4.76-2.72l3.42,.28c2.71,2.56-.49,2.85-1.78,4.24,1.31,1.65-1.15-5.41-3.07-1.12,1.3,2.82,.39-.64-1.02-.38,.72-.32,1.72-.45,1.73-1.32Z"
             id="path139" />
          <path
             class="cls-2"
             d="M16.4,21.97l2.87-3.69c1.08,2.9,3.38,1.2,5.03,1.56l-1.44-.25v1.39c-.43-2.58-5.89,.53-8.62,1.31v-1.39c.43,.91,1.36,.86,2.15,1.07Z"
             id="path140" />
          <path
             class="cls-2"
             d="M27.21,19.91l.78,1.33,2.2-1.38,.78,1.33,1.1-.69-.16,1.01c1.52-.23-4.34-.09-6.74-1.22,.8,.59,1.39-.06,2.04-.37Z"
             id="path141" />
          <polygon
             class="cls-2"
             points="29.14 25.66 29.73 24.4 29.75 27.75 28.86 27.96 28.25 25.87 29.14 25.66"
             id="polygon141" />
          <path
             class="cls-2"
             d="M48.53,39.43c-.07-.75,.14-1.7-.72-1.97l-1.44,.25v-1.39l-1.44,1.64c2.37-1.03,4.02,0,4.31,2.05l.72-.82-1.44,.25Z"
             id="path142" />
          <path
             class="cls-2"
             d="M39.41,33.58c-.43-.91-1.37-.86-2.15-1.06l1.44,.25-.72-2.21,1.44,3.03Z"
             id="path143" />
          <path
             class="cls-2"
             d="M40.88,38.39v-1.39l1.44,.25v1.39c2.73,1.02-5.6-2.49-4.31,2.05-1.87,1.07,2.01-.49,.72-1.97l-2.15,.33c1.36-.39,2.59-1.09,4.31-.66Z"
             id="path144" />
          <path
             class="cls-2"
             d="M47.25,20.25c-1.2-.6-1-1.9-1-3,1.4,.4,2-1.3,3-2l-1-2c3.5,2.7-3.3,3.6-1,7Z"
             id="path145" />
          <path
             class="cls-2"
             d="M26.08,7.51c-.73-.19-1.7-.12-1.83-1.01l.46-1.38-1.38-.21,1.84-1.17c-1.38,2.18-.61,3.97,1.37,4.57l-.92,.58,.46-1.38Z"
             id="path146" />
          <path
             class="cls-2"
             d="M33.71,7.01c-.49,.58-1.31,1.09-.9,1.89l1.18,.85-.99,.98,2.17-.13c-2.4-.96-2.81-2.87-1.56-4.51l-1.09,.06,1.18,.85Z"
             id="path147" />
          <path
             class="cls-2"
             d="M54.4,14.14l.72,.82c-1.29-.64-2.08,.27-2.87,.9v1.39c2.01-1.47-2.51,2.84-3.59,1.47,4.09,.91,2.3-3.92,5.74-4.59Z"
             id="path148" />
          <path
             class="cls-2"
             d="M43.9,25.37c.39-.64,1.08-1.04,2.06-1.23l.72,.82c-1.29-.64-2.08,.27-2.87,.9l.09-.49Z"
             id="path149" />
          <path
             class="cls-2"
             d="M27.5,14c-.2-1.15-1.62-2.88-.5-3.36l.5,3.36c-1.73-1.79,.4,3.28-3.56-1.88,1.12,.9,2.34,2.08,3.56,1.88Z"
             id="path150" />
          <path
             class="cls-2"
             d="M22.45,14.57c-.2-.75-.76-1.7,0-1.97,.2,.75,.76,1.7,0,1.97l-4.58-.74,1.01,2.79-1.52-2.21c1.73-.38,2.54-1.1,5.09,.16Z"
             id="path151" />
          <path
             class="cls-2"
             d="M37.02,21.46c2.34-1.85-4.97-5.29-1.24-7.22l1.24,7.22Z"
             id="path152" />
          <path
             class="cls-2"
             d="M36.66,2.23c1.12,.9,2.54,1.85,2.54,3.03l3.05,.49c-.15-2.19-2.18-4.02-4.57-4.67l3.56,1.88c2.44,3.54-.97,2.27-2.55,2.87,1.12,2.08-.35-5.3-3.05-2.46,.91,3.1,.51-.38-1.02-.82,.81,.06,1.88,.43,2.04-.33Z"
             id="path153" />
          <path
             class="cls-2"
             d="M48.05,59.93c2.15,4.12,7.68,4.75,8.57,7.99l.1,.91-1.6-.56-.1-.91,1.6,.56c.49-2.58-3.39-2.81-5.09-4.28l.14,1.3-3.63-5.01Z"
             id="path154" />
          <path
             class="cls-2"
             d="M42.25,48.75c-.6,1.05,2.62-4.67,.26-6.06,2.35,1.39-.44,4.1-.26,6.06Z"
             id="path155" />
          <path
             class="cls-2"
             d="M40.31,10.47c.81,.07,1.88,.43,2.04-.33,0-1.18-1.42-2.13-2.54-3.03l.51-.57,.51,1.39-.35-.97,3.05,.49,.36,.98c-.81-.07-1.88-.43-2.04,.33l1.01,2.79,1.53,.25,.51,1.39c-1.88-2.99-5.59-1.56-6.1-4.91,.36,.78,.46,1.65,1.52,2.21Z"
             id="path156" />
          <path
             class="cls-2"
             d="M27.07,4.06l-.19-3.69c-3.19,2.9-4.25,1.2-6.16,1.55l1.61-.24-1.01,1.39c2.31-2.58,5.5,.53,7.66,1.31l1.01-1.39c-1.09,.91-1.99,.86-2.93,1.06Z"
             id="path157" />
          <polygon
             class="cls-2"
             points="20.65 5.32 21.55 7.04 21.96 4.5 21.66 3.93 20.34 4.75 20.65 5.32"
             id="polygon157" />
          <path
             class="cls-2"
             d="M16.38,77.21l7.3-7.99-1-.83c-1.45,1.81-1.23,3.6-3.1,5.45l-3.2,3.37Z"
             id="path158" />
          <polygon
             class="cls-2"
             points="44.86 62.21 45.57 60.25 42.34 60.74 44.86 62.21"
             id="polygon158" />
          <polygon
             class="cls-2"
             points="29.75 71 30.46 69.03 27.23 69.52 29.75 71"
             id="polygon159" />
          <path
             class="cls-2"
             d="M47.55,59.11c.84-.07,2.04-.43,1.92,.33,1-2.07,5.56-2.02,6.57-4.1-1.71,2.06-5.65,2.53-8.49,3.77Z"
             id="path159" />
          <path
             class="cls-2"
             d="M29.87,34.01l.05,1.63,3.79,3.51,.05,1.63,.6-.23-1.32-2.8c-.35,.63-1.18-.38-1.87-.94-.77-1.19-.62-2.08-.71-3.03-.69-.56-1.52-1.57-1.87-.94l1.26,1.17Z"
             id="path160" />
          <polygon
             class="cls-2"
             points="33 32.84 33 34.25 31.58 31.42 32.29 30.71 33.71 32.13 33 32.84"
             id="polygon160" />
          <polygon
             class="cls-2"
             points="23.87 28.23 23.11 29.78 26.18 26.17 25.78 25.66 23.47 27.72 23.87 28.23"
             id="polygon161" />
          <path
             class="cls-2"
             d="M44.62-.62l-2,3c.4,2.1-.6-3.1-3-4l3,3,2-2Z"
             id="path161" />
          <path
             class="cls-2"
             d="M30.95-1.21c4.06-1.24,.07,2.47,.19,3.69-.91,1.25,.85-1.37,2.14-5.9-.64,.78-1.05,1.65-2.33,2.21Z"
             id="path162" />
          <polygon
             class="cls-2"
             points="40.3 66.06 39.52 66.53 38.16 64.82 38.44 65.92 40.3 66.06"
             id="polygon162" />
          <polygon
             class="cls-2"
             points="42.99 70.28 43.28 69.49 41.99 69.69 42.99 70.28"
             id="polygon163" />
          <path
             class="cls-2"
             d="M34.12,18.94c.6,.44,.94,1.17,1.04,2.16l-.88,.64c.75-1.23-.08-2.1-.64-2.94l.48,.13Z"
             id="path163" />
          <path
             class="cls-2"
             d="M36.28,7.49c-2.7-2.3,1.7,1.4,1-2l-1,3v-1Z"
             id="path164" />
          <polygon
             class="cls-2"
             points="45.09 19.79 45.58 20.18 45.04 20.79 44.04 20.75 44.09 19.75 45.09 19.79"
             id="polygon164" />
          <polygon
             class="cls-2"
             points="41.09 44.04 41.58 44.43 41.04 45.04 40.04 45 40.09 44 41.09 44.04"
             id="polygon165" />
          <polygon
             class="cls-2"
             points="41.03 50.49 40.95 49.87 41.77 49.81 42.45 50.55 41.71 51.22 41.03 50.49"
             id="polygon166" />
        </g>
        <g
           id="g177">
          <path
             class="cls-2"
             d="M7.35,31.91c-3.09,1.77-5.74,.55-9.33-.9-.29,2.04,4.96-.2,7.9,2.05l1.44-1.15Z"
             id="path166" />
          <path
             class="cls-2"
             d="M1.62,47.63c3.66,.56-1.51,.09-1.44-1.64-3.45-1.42-1.15,2.87-2.87,3.69l1.44-5.33v.97l-1.44-.25v-.97c3.66,1.39,1.44-4.49,5.74-1.8-2.58-1.69-3.88,1.15-4.31,3.44,1.29,.64,2.08-.27,2.87-.9v2.79Z"
             id="path167" />
          <path
             class="cls-2"
             d="M3.36,60.23c-.43-2.58-5.89,.53-8.62,1.31v-1.39c.43,.91,1.36,.86,2.15,1.07L-.23,57.53c1.08,2.9,3.38,1.2,5.03,1.56l-1.44,1.15Z"
             id="path168" />
          <path
             class="cls-2"
             d="M1.25,37.5c-1.65,.34-2.94-2.38-4.31-.74v-1.39l4.31,2.13Z"
             id="path169" />
          <path
             class="cls-2"
             d="M2.16,14.95c-.07-.78,.14-1.65-.72-2.21-2.51-1.34-1.72,1.66-2.87,2.29-1.79,1.43,.86-.41,0-1.39l-1.44-.25C-1.86,15.79,1.66,10.34-.71,7.49l2.87,7.45Z"
             id="path170" />
          <path
             class="cls-2"
             d="M.68,52.53l-.51-1.39c2.75,1.03,4.02,0,3.56-2.05,1.07-1.21-1.88,1.33,1.01,2.78-3.15-1.36-3.87,.62-5.09,1.8l.51,1.39c4.42,.32-1.88,.75-.51-1.39l.35,.98-1.52-.25-.35-.98c1.52,.64,1.98-.27,2.54-.9Z"
             id="path171" />
          <path
             class="cls-2"
             d="M-.65,16.47l-1.31,.82c1.76-.64,1.89,.27,2.22,.9l-1.01,1.39c-.94-1.47,.44,2.84,2.52,1.48-4.75,.91,.56-3.92-2.4-4.59Z"
             id="path172" />
          <path
             class="cls-2"
             d="M.64,24.47l-.71,.98c.84-.06,2.04-.43,1.92,.33L-.18,28.56l-1.62,.25-1.01,1.39c2.97-2.99,6.16-1.56,7.89-4.92-.64,.78-1.06,1.65-2.33,2.21-.84,.07-2.04,.43-1.92-.33l-.19-2.7Z"
             id="path173" />
          <path
             class="cls-2"
             d="M2.75,64.75c-1.4-.4-2,1.3-3,2,0,2.5,.2-1-1-1l-1,1,1-2c-.3,.9,.5,1.4,1,2l2-3,1,1Z"
             id="path174" />
          <polygon
             class="cls-2"
             points="-1.75 51.75 -3.63 52.43 .39 48.84 -1.75 51.75"
             id="polygon174" />
          <polygon
             class="cls-2"
             points="-2.25 71.25 -3.97 71.12 .53 72.62 .86 72.06 -1.92 70.69 -2.25 71.25"
             id="polygon175" />
          <polygon
             class="cls-2"
             points="-2.25 -.75 -3.97 -.88 .53 .62 .86 .06 -1.92 -1.31 -2.25 -.75"
             id="polygon176" />
          <path
             class="cls-2"
             d="M.82,35.25c-1.35-.91-4.39-.29-3.85-3.19,.25,1.07,.36,2.38,1.67,2.68,.95,.08,1.25-.81,1.71-1.44l1.67,2.68-1.21-.74Z"
             id="path176" />
          <polygon
             class="cls-2"
             points="2.39 38.82 -2.6 41.06 -3.08 40.75 1.27 40.32 2.39 38.82"
             id="polygon177" />
        </g>
        <g
           id="g181">
          <path
             class="cls-2"
             d="M51.25,.25c-1.1,.5,4.1-2.5,3-5,1.1,2.5-2,3.3-3,5Z"
             id="path177" />
          <path
             class="cls-2"
             d="M64-3.75l-3,5c-3.3,1.7,6.8-7.2-1-4l-.7,.7-1-1,.7-.7c1,2,2.8-.3,4-1-2.4-1.2-2.4-3.8,0-5-3,.9-1.5,4.4,1,6Z"
             id="path178" />
          <path
             class="cls-2"
             d="M57.03,.84c.48-.75,1.38-1.7,.71-1.97l-1.62,.25,1.01-1.39-2.63,1.64c3.12-1.03,4.01,0,2.82,2.05l-.3-.57Z"
             id="path179" />
          <path
             class="cls-2"
             d="M3.73,2.14c-4.06,1.24-.07-2.47-.19-3.69l1.62-.25L2.34-3.84C5.58-2.97,.29,2.23,3.73,2.14Z"
             id="path180" />
          <polygon
             class="cls-2"
             points="69.75 -.75 68.03 -.88 72.53 .62 72.86 .06 70.08 -1.31 69.75 -.75"
             id="polygon180" />
          <path
             class="cls-2"
             d="M16.38,5.22l7.3-7.99-1-.83C21.23-1.8,21.46,0,19.58,1.85l-3.2,3.37Z"
             id="path181" />
        </g>
        <polygon
           class="cls-2"
           points="-2.25 -.75 -3.97 -.88 .53 .62 .86 .06 -1.92 -1.31 -2.25 -.75"
           id="polygon181" />
      </g>
    </pattern>
  </defs>
  <g
     id="FONDO"
     transform="translate(-0.00346798,0.04)">
    <g
       class="cls-4"
       id="g205"
       inkscape:export-filename="g205.svg"
       inkscape:export-xdpi="200"
       inkscape:export-ydpi="200"
       transform="matrix(2.0152793,0,0,2.0152793,-0.00352096,0.04061117)">
      <path
         class="cls-3"
         d="m 3580.39,8122.09 c -8.64,-7.83 -17.14,-15.82 -25.95,-23.46 -63.24,-54.86 -126.76,-109.39 -189.75,-164.52 -56.56,-49.5 -99.4,-109.17 -129.22,-178.2 -19.01,-44.01 -31.97,-89.75 -39.73,-137.03 -5.36,-32.68 -8.33,-65.63 -11.9,-98.52 -2.73,-25.15 -6.01,-50.24 -9.02,-75.37 -2.2,-18.36 -4.47,-36.71 -6.49,-55.09 -4.68,-42.56 -9.18,-85.15 -13.86,-127.72 -3.94,-35.79 -7.58,-71.63 -12.23,-107.33 -3.02,-23.15 -7.59,-46.1 -11.55,-69.12 -5.28,-30.76 -7.19,-61.88 -9.87,-92.92 -2.76,-32.01 -4.86,-64.08 -8.24,-96.02 -5.74,-54.26 -9.84,-108.55 -9.85,-163.18 -0.01,-37.95 -1.23,-75.88 -3.78,-113.82 -2.94,-43.81 0.14,-87.43 10.61,-130.49 18.16,-74.69 35.19,-149.65 52.97,-224.43 8.11,-34.12 14.61,-68.54 19.72,-103.19 3.98,-27.02 4.56,-54.3 2.9,-81.61 -0.72,-11.84 -3.5,-23.17 -8.5,-33.79 -8.58,-18.22 -22.81,-28.72 -43.36,-29.52 -6.8,-0.27 -13.63,0.13 -20.43,-0.19 -20.3,-0.93 -38.21,5.76 -54.85,16.74 -34.47,22.73 -64.42,50.23 -88.38,84.01 -16.33,23.03 -32.77,45.98 -48.75,69.25 -7.15,10.41 -13.4,21.45 -19.87,32.32 -3.48,5.85 -6.51,11.98 -9.86,17.9 -36.46,64.36 -45.69,71.49 -97.34,118.94 -14.39,13.22 -31.47,22.84 -47.7,33.58 -11.35,7.51 -22.82,14.93 -33.5,23.32 -26.72,20.98 -45.45,47.9 -56.29,80.07 -4.34,12.88 -8.21,26.02 -11,39.31 -6.19,29.52 -11.56,59.21 -17.27,88.83 -1.66,8.6 -3.13,17.23 -5.05,25.77 -8.99,39.87 -17.6,79.83 -27.31,119.51 -10.65,43.52 -24.84,86.01 -40.56,127.95 -5.46,14.55 -11.92,28.81 -19.03,42.64 -14.24,27.7 -29.06,55.11 -43.98,82.44 -8.89,16.27 -19.6,31.39 -31.7,45.44 -12.15,14.09 -22.13,29.6 -31.14,45.8 -1.89,3.4 -3.87,6.76 -5.66,10.22 -24.29,46.85 -53.6,90.32 -86.95,131.21 -29.56,36.25 -55.2,75.39 -81.26,114.18 -11.48,17.08 -20.44,35.39 -26.51,55.07 -7.17,23.26 -14.21,46.55 -21.31,69.83 -6.81,22.35 -13.28,44.81 -20.54,67.01 -5.15,15.77 -9.53,31.65 -12.44,47.99 -7.83,44.09 -16.09,88.1 -23.72,132.22 -2.32,13.4 -3.38,27.04 -4.63,40.61 -1.76,19.1 2.69,36.4 13.86,52.42 14.01,20.1 29.7,38.56 48.24,54.52 30.24,26.04 60.37,52.22 91.03,77.76 66.59,55.48 135.39,108.07 206.21,158.05 59.89,42.26 123.41,77.83 191.76,104.48 28.14,10.97 56.69,20.98 86.8,24.69 23.16,2.86 46.52,3.97 69.8,5.83 2.91,0.23 5.84,0.35 8.75,0.32 40.1,-0.43 79.52,5.18 118.68,13.23 98.14,20.17 195.78,42.43 292.16,69.98 7.48,2.14 15.11,3.87 22.39,6.57 11.84,4.38 23.85,8.59 35.07,14.29 33.11,16.82 62.17,39.91 92.27,61.35 3.81,2.71 4.31,8.53 1.7,13.21 -2.16,3.85 -6.15,6.29 -9.37,5.52 -3.77,-0.91 -7.5,-1.94 -11.22,-3.03 -57.86,-17.02 -115.33,-35.19 -171.86,-56.32 -50.14,-18.74 -101.08,-34.87 -153.27,-47.13 -62.14,-14.6 -124.99,-19.18 -188.42,-14.05 -38.87,3.14 -76.93,11.38 -113.57,25.29 -64.76,24.59 -116.71,65.42 -155.43,122.94 -5.43,8.07 -10.81,16.23 -15.49,24.74 -39.92,72.55 -76.81,146.55 -106.16,224.11 -24.19,63.92 -42.06,129.59 -51.57,197.31 -3.65,25.99 -6.25,52.27 -7.03,78.49 -2.31,77.29 14.08,150.82 47.71,220.43 6.35,13.14 13.31,25.99 20.1,38.92 34.46,65.6 63.66,133.51 88.93,203.13 3.32,9.13 5.92,18.53 8.78,27.83 2.92,9.46 3.24,19.21 2.45,28.95 -1.26,15.5 -8.56,27.61 -21.49,36.33 -12.45,8.39 -26.73,12.14 -41.12,13.98 -23.13,2.95 -46.1,7.61 -69.57,7.86 -8.75,0.09 -17.51,0.7 -26.23,1.52 -26.25,2.46 -52.43,2.1 -78.71,-0.03 -35.92,-2.91 -71.98,-3.34 -107.95,-1.5 -42.93,2.2 -85.05,9.68 -125.6,24.35 -55.05,19.9 -101.99,52.1 -141.63,95.09 -7.26,7.87 -14.15,16.12 -21.84,23.54 -39.71,38.34 -87.47,52.95 -141.8,46.7 -19.33,-2.22 -38.29,-6.59 -56.91,-12.54 -35.2,-11.26 -70.48,-22.28 -105.82,-33.09 -22.31,-6.82 -44.74,-13.29 -67.23,-19.51 -18.77,-5.19 -37.95,-8.22 -57.31,-10.63 -23.65,-2.95 -46.71,0.07 -69.44,5.45 -32.88,7.79 -61.33,24.27 -85.93,47.4 -12.09,11.37 -23.14,23.68 -32.52,37.4 -43.8,64.07 -77.3,132.77 -93.86,209.1 -5.79,26.69 -9.43,53.58 -10.46,80.94 -2.18,57.99 5.35,114.47 22.41,169.95 15.17,49.34 32.88,97.75 51.08,146.01 10.3,27.32 21.19,54.41 31.38,81.78 4.8,12.89 10.38,25.12 19.66,35.5 5.89,6.58 9.77,14.43 13.21,22.57 28.45,67.22 57.61,134.14 82.86,202.67 4.04,10.96 7.75,22.04 11.53,33.09 2.89,8.47 3.24,17.22 2.12,25.98 -2.67,20.84 -23.29,35.08 -38.53,32.7 -4.32,-0.67 -9.82,-4.53 -10.5,-8.73 -0.62,-3.83 -1.41,-7.71 -1.33,-11.55 0.16,-7.78 0.67,-15.56 1.36,-23.32 3.59,-40.67 -3.67,-79.41 -19.77,-116.8 -38.73,-89.99 -100.43,-158.96 -186.83,-205.52 -27.46,-14.8 -55.85,-27.47 -85.12,-38.24 -21.02,-7.74 -41.54,-16.53 -61.13,-27.52 -50.46,-28.32 -89.94,-67.7 -119.06,-117.57 -12.79,-21.91 -23.34,-44.89 -31.55,-68.92 -3.77,-11.05 -7.5,-22.12 -10.98,-33.26 -7.84,-25.15 -17.54,-49.47 -29.91,-72.79 -16.01,-30.2 -28.05,-61.94 -36.21,-95.26 -14.73,-60.15 -12.41,-119.56 5.38,-178.68 15.33,-50.97 40.3,-97 71.61,-139.63 24.2,-32.95 49.59,-65.01 74.34,-97.56 41.24,-54.24 82.95,-108.14 123.37,-163 25.39,-34.46 49.18,-70.13 72.99,-105.72 28.7,-42.91 58.07,-85.29 91.1,-125.03 28.07,-33.77 58.51,-65.2 91.97,-93.65 39.55,-33.63 73.12,-72.71 104.04,-114.16 8.11,-10.88 15.14,-22.67 21.79,-34.53 16.53,-29.47 24.94,-61.1 23.83,-95.1 -1.24,-37.96 -2.19,-75.93 -3.52,-113.88 -1.19,-34.05 -2.52,-68.11 -4.16,-102.14 -2.95,-61.26 -4.43,-122.59 -9.69,-183.73 -1,-11.64 -1.02,-23.35 -1.88,-35 -6.19,-83.05 -22.6,-163.8 -54.99,-240.86 -42.45,-100.99 -107.92,-184.25 -193.97,-251.6 -25.33,-19.82 -52.08,-37.54 -79.4,-54.48 -42.36,-26.27 -81.52,-56.6 -115.91,-92.86 -51.3,-54.1 -86.5,-117.01 -104.7,-189.52 -17.04,-67.86 -15,-135.08 5.72,-201.68 26.88,-86.42 76.25,-157.06 149.71,-210.31 41.64,-30.19 87.82,-50.09 138.78,-57.85 29,-4.42 58.19,-4.38 87.2,0.56 10.53,1.79 20.98,4.21 31.33,6.88 57.15,14.72 115.22,18.66 173.78,13.33 51.91,-4.73 100.85,-20.32 147.18,-44.26 35.69,-18.44 68.18,-41.48 97.69,-68.59 47.39,-43.54 91.63,-90.06 130.86,-141.21 31.99,-41.72 63.82,-83.55 96.14,-125.01 15.18,-19.47 25.64,-41.08 33.92,-64.2 19.92,-55.63 29.01,-112.96 29.31,-171.89 0.14,-27.43 -4.18,-54.39 -8.77,-81.21 -6.57,-38.37 -14.58,-76.49 -22.03,-114.7 -3.35,-17.2 -7.08,-34.33 -10.19,-51.57 -4.86,-26.89 -11.5,-53.27 -21.14,-78.87 -19.57,-51.97 -41.45,-102.94 -65.32,-153.07 -11.32,-23.78 -25.05,-46.2 -38.42,-68.83 -7.62,-12.89 -17.86,-22.74 -30.42,-30.81 -89.42,-57.46 -185.89,-97.08 -290.4,-117.34 -45.09,-8.74 -90.57,-12.87 -136.27,-14.03 -36.94,-0.94 -73.86,1.75 -110.59,6.6 -160.73,21.23 -308.39,78.74 -447.2,160.89 -51.14,30.26 -100.16,63.7 -147.83,99.17 -38.26,28.47 -76.69,56.7 -116.58,82.9 -29.3,19.24 -59.18,37.51 -90.38,53.53 -7.79,4 -15.65,7.85 -23.54,11.65 -32.58,15.69 -66.91,19.81 -102.45,15.04 -23.61,-3.17 -44.82,-12.67 -64.35,-26.02 -29.73,-20.34 -50.88,-47.89 -65.89,-80.28 -9.02,-19.45 -16.07,-39.69 -21.45,-60.47 -9.55,-36.96 -14.97,-74.54 -13.13,-112.71 2.41,-49.86 12.21,-98.43 29.26,-145.43 0.63,-1.74 2.09,-3.2 3.29,-4.69 1.45,-1.8 3.42,-2.12 5.18,-0.52 2.12,1.93 4.32,3.96 5.82,6.36 7.73,12.37 15.27,24.87 22.83,37.34 5.04,8.32 9.61,16.95 15.1,24.97 28.42,41.53 68.56,62.05 118.17,65.11 30.53,1.88 60.44,-2.57 89.05,-12.67 96.09,-33.91 164.42,-97.86 203.52,-192.28 7.82,-18.9 12.25,-38.85 15.15,-59.24 3.3,-23.19 4.4,-46.48 6.09,-69.78 3.88,-53.49 3.19,-107.05 3.67,-160.6 0.16,-18.5 0,-37.04 1.19,-55.49 3.16,-49.03 14.29,-96.21 35.46,-140.7 30.2,-63.45 76.85,-111.85 136.51,-148.19 3.32,-2.02 6.75,-3.89 10.24,-5.61 34.66,-17 62.7,-12.49 88.95,11.15 31.86,28.69 54.74,62.99 65.78,104.8 5.74,21.72 9.36,43.76 10.78,66.16 0.61,9.71 1.03,19.47 0.88,29.2 -0.38,25.41 2.47,50.55 5.6,75.68 1.94,15.51 6.02,30.52 11.39,45.19 5.55,15.15 14.78,27.11 28.78,35.54 34.17,20.59 67.85,42.02 102.3,62.1 62.27,36.3 126.43,68.9 193.3,95.99 11.72,4.75 23.39,9.69 35.35,13.74 46.5,15.75 91.93,12.79 136,-8.9 40.47,-19.92 71.66,-50.03 94.38,-88.71 20.7,-35.24 24.35,-73.64 16.76,-113.06 -7.99,-41.49 -24.25,-80.07 -45.65,-116.34 -15.97,-27.08 -37.24,-49.84 -61.29,-69.99 -21.68,-18.17 -45.06,-33.96 -68.89,-49.12 -22.17,-14.1 -44.37,-28.15 -66.31,-42.62 -22.83,-15.06 -43.68,-32.57 -62.3,-52.67 -28.35,-30.6 -48.4,-65.79 -57.67,-106.62 -2.79,-12.27 -4.26,-24.96 -5.15,-37.53 -2.8,-39.27 1.58,-77.8 14.29,-115.15 15.49,-45.52 42.26,-83.19 80.78,-111.96 45.29,-33.82 96.16,-54.02 152.11,-62.88 41.14,-6.52 81.52,-2.56 121.91,4 33.63,5.47 66.46,14.59 99.24,23.84 32,9.04 64.62,14.58 97.93,13.5 83.81,-2.72 160.81,-26.59 229.09,-76.15 37.62,-27.31 67.56,-61.38 88.73,-103.02 22.16,-43.6 39.69,-88.69 47.95,-137.23 11.42,-67.15 3.84,-131.81 -22.93,-194.35 -8.83,-20.63 -19.71,-40.17 -30.9,-59.57 -44.89,-77.88 -80.84,-159.67 -107.65,-245.52 -20.08,-64.27 -34.1,-129.85 -43.25,-196.49 -2.64,-19.27 -5.07,-38.69 -5.78,-58.1 -4.23,-116.6 32.39,-218.6 112.46,-303.66 63.94,-67.92 142.45,-110.66 234.35,-127.77 73.11,-13.62 145.55,-10.18 216.05,13.86 114.55,39.04 218.68,96.73 308.79,178.32 98.78,89.45 168.58,198.05 212.45,323.66 11.31,32.37 18.58,65.7 20.49,99.79 3.14,56.03 -10.79,108.15 -40.88,155.6 -9.37,14.77 -19.68,29.01 -30.35,42.89 -14.83,19.29 -30.34,38.06 -45.66,56.97 -46.13,56.94 -84.71,118.84 -119.72,183.04 -14.94,27.4 -26.57,56.3 -36.32,85.96 -3.34,10.16 -7.1,20.19 -11.05,30.13 -1.4,3.54 -3.8,6.72 -5.97,9.91 -2.37,3.47 -9.44,5.58 -13.16,3.59 -6.83,-3.66 -13.79,-7.25 -20.05,-11.77 -11.83,-8.54 -23.13,-17.82 -34.77,-26.62 -24.88,-18.8 -50.67,-36.21 -78.2,-50.94 -28.44,-15.22 -58.07,-27.38 -89.56,-34.62 -38.26,-8.8 -76.7,-12.12 -115.76,-4.91 -72.68,13.4 -123.53,54.49 -153.45,121.39 -21.16,47.32 -22.16,96.3 -6.56,145.43 5.28,16.64 12.09,32.91 19.49,48.74 16.07,34.38 32.37,68.7 49.75,102.43 12.92,25.07 27.59,49.24 41.67,73.7 16.02,27.84 32.85,55.23 48.26,83.39 19.68,35.97 35.61,73.58 44.89,113.72 1.97,8.53 3.13,17.25 5.32,25.71 7.05,27.32 20.72,50.28 44.93,65.92 40.05,25.88 79.9,52.06 120.29,77.4 52.2,32.75 108.12,57.42 166.96,75.79 47.38,14.79 95.24,27.76 143.31,39.94 75.5,19.13 149.53,42.98 223.05,68.47 18.34,6.36 36.3,14.05 53.91,22.25 27.68,12.89 51.74,30.72 71.11,54.73 12.87,15.95 27.55,30.17 44.23,42.24 26.58,19.22 55.81,31.27 88.79,33.43 v 1116.06 c -12.58,-0.23 -22.9,4.91 -29.99,14.92 -12.92,18.23 -25.84,36.55 -37.43,55.64 -23.71,39.07 -46.5,78.71 -69.77,118.05 -6.97,11.78 -12.39,24.15 -16.35,37.28 -9.27,30.71 -18.91,61.3 -28.39,91.95 -15.23,49.26 -28.39,99.05 -37.85,149.76 -8.93,47.85 -15.79,95.94 -15.82,144.77 -0.01,16.54 0.1,33.07 0.25,49.61 0.38,40.07 6.55,79.42 15.35,118.37 13.82,61.16 36.83,118.79 68.44,172.89 9.86,16.87 18.4,34.19 25.08,52.53 3.66,10.03 7.92,19.86 12.24,29.64 14.52,32.91 29.41,65.65 43.72,98.65 19.35,44.62 39.27,88.94 62.95,131.48 1.93,3.47 3.67,6.77 7.57,8.29 v 280.48 z"
         id="path182"
         style="opacity:0.600297" />
      <path
         class="cls-3"
         d="m 1933.71,0 c -0.03,7.96 -3.08,15.15 -5.42,22.58 -7.31,23.19 -14.85,46.34 -21.18,69.81 -25.88,95.93 -67.93,184.23 -124.33,265.79 -13.28,19.2 -27.36,37.87 -41.52,56.44 -36.27,47.56 -65.51,98.88 -85.13,155.56 -14.4,41.61 -23.02,84.35 -27.32,128.14 -7.55,76.84 -24.23,151.71 -49.64,224.63 -38.81,111.39 -96.39,212.43 -167.79,305.91 -14.77,19.34 -29.79,38.5 -44.05,58.22 -74.54,103.05 -134.03,214.41 -182.26,331.94 -24.77,60.36 -46.27,121.87 -65.62,184.18 -10.16,32.71 -17.42,66.03 -19.97,100.01 -6.65,88.76 17.78,167.48 79.13,233.37 6.63,7.12 13.67,13.87 20.75,20.54 107.02,100.92 218.27,196.86 335.83,285.37 67.13,50.54 138.59,93.72 216.14,126.43 28.7,12.11 57.61,23.73 88.52,29.05 18.2,3.13 36.45,6.24 54.81,8.12 28.06,2.86 56.22,4.66 84.34,6.89 23.32,1.85 46.25,6.09 69.02,11.36 127.96,29.61 254.75,63.39 379.52,104.63 28.97,9.57 55.92,22.53 80.47,40.4 24.39,17.75 48.41,36.01 72.46,54.22 7.93,6.01 7.86,15.6 0.15,22.47 -1.32,1.18 -3.46,2.14 -5.16,2.05 -2.84,-0.14 -5.72,-0.99 -8.45,-1.92 -62.52,-21.53 -125.31,-42.32 -186.41,-67.77 -52.09,-21.7 -104.77,-41.78 -158.77,-58.38 -48.49,-14.91 -97.82,-25.83 -148.14,-31.65 -35.8,-4.14 -71.89,-3.64 -107.9,-2.14 -43.02,1.79 -84.95,9.63 -125.91,22.84 -77.5,24.98 -140.38,70.27 -188.53,135.97 -6.9,9.41 -13.8,18.9 -19.79,28.89 -48.59,81.05 -93.69,163.93 -130.6,251.06 -30.07,71 -53.75,144.04 -67.86,219.94 -8.36,44.99 -14.43,90.25 -14.69,136.24 -0.44,76.14 15.07,148.82 44.75,218.66 6.47,15.22 13.63,30.15 20.87,45.02 39.27,80.65 71.7,164.01 98.99,249.42 3.25,10.18 6.52,20.47 8.37,30.96 1.67,9.5 2.4,19.4 1.8,29.01 -1.31,21 -11.69,36.75 -30.41,46.63 -11.29,5.96 -23.4,9.56 -36.02,11.3 -73.6,10.14 -147.57,11.07 -221.35,4.48 -45.69,-4.08 -91.24,-5.65 -136.97,-4.5 -43.06,1.08 -84.98,9.1 -126.01,22.11 -60.49,19.18 -113.02,51.59 -158.7,95.38 -9.83,9.43 -19.05,19.5 -28.83,28.98 -48,46.54 -105.14,64.17 -171.17,54.74 -22.29,-3.19 -43.85,-8.82 -65,-16.14 -34,-11.77 -67.73,-24.34 -101.77,-35.98 -35.88,-12.27 -71.82,-24.45 -108.08,-35.53 -28.88,-8.83 -58.43,-14.35 -88.97,-14.26 -60.28,0.19 -112.19,21.13 -156.28,61.68 -10.7,9.84 -20.82,20.61 -29.66,32.13 -55.07,71.78 -96.48,150.6 -120.47,238.16 -3.3,12.06 -6.05,24.27 -9.25,37.19 -1.69,-1.87 -3.46,-2.91 -3.51,-4.03 -0.42,-8.75 -0.67,-17.51 -0.67,-26.26 C 0.04,4287.42 0,4024.5 0.08,3761.58 c 0.01,-39.86 -2.39,-31.97 21.76,-63.66 30.12,-39.52 62.31,-77.29 97.47,-112.48 22.04,-22.06 44.86,-43.26 69.44,-62.44 45.53,-35.54 85.05,-77.06 121.84,-121.34 13.7,-16.49 26.09,-33.92 36.88,-52.51 20.53,-35.35 30.89,-73.37 30.66,-114.22 -0.79,-135.35 -1.9,-270.69 -2.44,-406.04 -0.2,-49.71 -1.97,-99.36 -6.41,-148.8 -13.06,-145.4 -56.9,-279.85 -144.85,-398.08 -50.45,-67.82 -111.44,-124.66 -180.5,-173.05 -10.36,-7.26 -20.74,-14.49 -31.33,-21.41 -7.95,-5.2 -12.4,-12.03 -12.31,-21.71 0.06,-6.81 -0.26,-13.63 -0.26,-20.44 -0.02,-250.26 -0.05,-500.52 0.03,-750.78 0.01,-38.04 -2.29,-34.43 32.04,-49.47 51.71,-22.66 105.95,-32.01 162.3,-28.1 23.36,1.62 46.29,6.23 68.7,12.91 26.15,7.79 52.58,14.3 79.5,18.46 47.22,7.31 94.39,10.29 142.38,5.04 98.8,-10.79 185.66,-48.66 262.37,-110.74 54.59,-44.18 104.97,-92.96 150.71,-146.25 55.16,-64.26 109.8,-128.99 161.14,-196.39 22.41,-29.41 44.75,-58.98 65.21,-89.75 69.8,-104.98 150.66,-200.78 238,-291.35 66.24,-68.69 135.27,-134.54 204.19,-200.5 33.75,-32.31 67.42,-64.71 100.92,-97.28 30.04,-29.19 58.41,-59.96 85.27,-92.11 5.61,-6.72 11.04,-13.62 16,-20.82 1.44,-2.09 0.99,-5.5 1.4,-8.31 54.5,0 109,0 163.5,0 z"
         id="path183"
         style="opacity:0.600297" />
      <path
         class="cls-3"
         d="m 1939.55,14596.39 c 3.4,-14.17 6.84,-28.34 10.2,-42.52 16.73,-70.68 45.11,-136.62 81.17,-199.41 7.75,-13.5 15.98,-26.74 24.32,-39.89 9.41,-14.85 20.57,-28.31 33.1,-40.68 34.76,-34.34 77.07,-51.98 125.17,-56.11 16.43,-1.41 33.06,-0.81 49.59,-0.8 42.81,0.03 85.65,1.23 128.44,0.11 49.84,-1.31 98.62,-9.85 145.61,-27.29 73.8,-27.4 131.52,-74.59 173.06,-141.35 9.74,-15.65 18.13,-32.23 26.11,-48.88 43.78,-91.39 79.99,-185.89 114.36,-281.13 5.28,-14.65 10.54,-29.3 15.5,-44.06 15.59,-46.43 24.88,-94.16 26.25,-143.08 1.17,-41.83 1.61,-83.77 0.03,-125.58 -1.82,-48.14 3.82,-95.19 14.33,-141.9 5.13,-22.78 10.56,-45.49 15.59,-68.29 4.66,-21.1 12.88,-40.81 22.87,-59.82 13.64,-25.97 23.78,-53.24 31.68,-81.46 7.13,-25.46 11.45,-51.44 12.09,-77.73 1.47,-60.24 -17.75,-112.95 -60.95,-155.82 -33.04,-32.79 -72.47,-55.53 -116.05,-71.14 -27.48,-9.85 -55.77,-17.07 -84.08,-24.18 -14.13,-3.55 -28.16,-7.63 -42.04,-12.07 -14.86,-4.76 -28.87,-11.53 -42.24,-19.66 -26.54,-16.15 -46.88,-38.07 -59.56,-66.37 -27.08,-60.44 -51.51,-121.87 -68.03,-186.24 -10.94,-42.63 -16.71,-85.99 -18.8,-129.79 -1.54,-32.19 1.26,-64.27 10.15,-95.42 7.06,-24.73 19.5,-46.49 37.92,-64.79 18.51,-18.38 40.7,-29.85 65.67,-36.09 10.35,-2.58 21.04,-4.54 31.66,-5.11 33.04,-1.78 66.03,-2.21 99.08,1.64 54.2,6.32 107.43,17.82 160.79,28.62 53.38,10.79 106.72,21.73 160.46,30.53 16.3,2.67 32.79,4.52 49.27,5.76 23.49,1.76 46.63,-1.64 69.32,-7.55 40.48,-10.56 71.44,-34.37 94.21,-69.18 13.98,-21.38 23.53,-44.79 30.17,-69.33 3.55,-13.12 5.84,-26.59 8.45,-39.95 10.32,-52.81 12.66,-106.23 11.91,-159.87 -0.07,-4.87 -0.35,-9.73 -0.42,-14.6 -1.04,-65.65 -12.17,-129.77 -30.2,-192.7 -33.37,-116.48 -87.15,-222.86 -161.94,-318.06 -84.21,-107.18 -189.71,-186.45 -317.23,-235.55 -51.95,-20 -105.61,-33.06 -160.89,-40.29 -48.56,-6.35 -97.16,-6.7 -145.63,-2.54 -52.41,4.5 -103.68,16.1 -154.17,31.13 -95.83,28.51 -184.97,71.31 -269.15,124.88 -46.03,29.29 -89.72,61.81 -132.48,95.68 -31.27,24.77 -63.04,48.94 -95.09,72.7 -27.38,20.3 -56.37,38.21 -86.39,54.41 -14.61,7.88 -29.77,14.04 -46.04,17.95 -42.8,10.29 -80.97,0.11 -115.71,-25.25 -19.97,-14.57 -35.08,-33.59 -46.65,-55.39 -15.65,-29.48 -26.11,-60.86 -31.74,-93.64 -3.78,-22.02 -6.8,-44.26 -5.66,-66.81 1.97,-39.05 8.14,-77.35 19.86,-114.7 0.29,-0.92 0.9,-1.73 1.27,-2.63 1.73,-4.22 6.58,-5.41 9.07,-2.02 6.32,8.61 12.62,17.25 18.61,26.09 3.82,5.63 6.96,11.71 10.58,17.48 29.25,46.61 71.83,66.16 126.1,62.91 29.62,-1.77 57.57,-9.33 84.08,-22.18 56.93,-27.6 100.54,-69.43 130.91,-124.91 21.05,-38.45 29.1,-80.25 30.31,-123.6 1.49,-53.56 0.51,-107.11 -1.41,-160.64 -0.91,-25.33 -1.01,-50.63 1.29,-75.89 7.73,-84.61 43.32,-154.66 109.26,-208.74 12.8,-10.5 26.08,-20.36 41,-27.78 7.93,-3.95 16.13,-6.55 25.04,-7.23 14.15,-1.07 27.07,2.04 38.59,10.37 25.76,18.61 45.56,42.17 59.15,70.99 7.95,16.87 13.34,34.62 16.19,52.88 3.3,21.12 7.07,42.3 6.81,63.83 -0.23,19.62 3.61,38.76 6.94,57.92 1.66,9.52 4.93,18.81 8.01,28.02 5.47,16.34 15.62,28.78 30.95,37.21 27.28,15 54.04,30.96 81.47,45.66 57.51,30.82 116.49,58.49 177.93,80.66 7.32,2.64 14.58,5.46 21.98,7.86 51.87,16.77 99.84,8.65 143.9,-23.11 19.96,-14.39 36.59,-32.15 49.77,-52.86 20.14,-31.62 28.53,-65.69 20.26,-103.12 -15.47,-69.99 -48.42,-128.9 -107.31,-171.67 -21.3,-15.47 -43.86,-28.9 -66.56,-42.15 -15.97,-9.32 -31.91,-18.69 -47.59,-28.47 -19.89,-12.41 -38.17,-26.88 -54.46,-43.82 -47.09,-48.97 -63.97,-107.83 -56.34,-174.36 1.77,-15.4 4.71,-30.73 9.39,-45.7 12.91,-41.26 36.01,-75.54 70.47,-101.44 50.44,-37.9 107.16,-58.39 170.7,-59.2 39.25,-0.5 77.43,6.48 115.49,14.76 13.3,2.89 26.58,5.89 39.8,9.11 31.67,7.71 63.88,7.89 95.79,4.15 54.87,-6.44 105.91,-24.62 152.15,-55.41 18.71,-12.46 35.91,-26.7 51.29,-43.12 13.37,-14.27 25.17,-29.75 34.32,-47.05 19.22,-36.3 33.89,-74.28 41.91,-114.74 14.38,-72.57 4.31,-141.36 -31.29,-206.24 -6.55,-11.93 -13.95,-23.41 -21.1,-35 -57.62,-93.5 -100.29,-193.28 -126.44,-300.09 -8.11,-33.13 -14.85,-66.55 -19.07,-100.31 -12.65,-101.26 9.33,-193.75 74.06,-273.99 56.49,-70.03 129.36,-114.25 217.64,-131.8 63.15,-12.55 125.8,-9.51 187.27,10.64 13.86,4.54 27.59,9.48 41.44,14.04 4.55,1.5 9.3,2.38 13.96,3.54 v 882.33 c -33.22,-8.55 -66.88,-10.72 -101.04,-7.69 -20.57,1.83 -40.03,7.12 -58.63,15.86 -74.4,34.95 -118.96,122.71 -93.65,210.27 5.15,17.83 12.58,34.69 21.1,51.03 29.59,56.81 59.09,113.65 95.36,166.67 16.43,24.02 31.58,48.92 45.12,74.74 14.47,27.6 26.46,56.14 33.41,86.65 1.51,6.62 3.26,13.22 5.53,19.61 5.29,14.9 13.72,27.93 25.81,38.15 8.1,6.85 16.67,13.29 27.01,16.67 V 12376 c -18.75,26.74 -29.75,56.71 -35.54,88.56 -3.83,21.05 -6.13,42.32 -6.2,63.85 -0.1,32.12 -0.52,64.27 -1.87,96.36 -2.08,49.65 -1.65,99.23 -0.05,148.89 1.13,35.11 4.55,69.92 8.85,104.67 6.58,53.1 14.12,106.07 20.79,159.16 2.43,19.3 3.77,38.75 5.23,58.16 1.46,19.51 -1.32,38.85 -2.7,58.27 -2.35,33.14 -8.38,65.58 -16.37,97.73 -17.71,71.3 -46.24,138.27 -81.28,202.61 -8.84,16.24 -17.91,32.35 -26.93,48.49 -23.29,41.69 -43.31,84.92 -60.74,129.36 -28.98,73.85 -47.59,150.29 -53.98,229.33 -4.71,58.34 -3.69,116.92 6.33,174.7 8.17,47.16 10.62,94.74 14.42,142.23 2.1,26.18 3.15,52.41 5.84,78.59 4.09,39.77 10.44,79.1 19.25,118.02 15.99,70.65 40.92,137.95 76.96,200.96 3.86,6.75 7.46,13.65 11.19,20.49 H 1939.55 Z"
         id="path184"
         style="opacity:0.600297" />
      <path
         class="cls-3"
         d="m 3031.5,0 c -4.6,8.95 -12.74,14.59 -19.94,21.02 -55.3,49.38 -105.69,103.4 -152.17,161.1 -31.79,39.46 -60.89,80.77 -85.67,125.07 -33.06,59.1 -56.45,121.7 -67.78,188.55 -8.33,49.14 -10.98,98.64 -5.56,148.32 2.23,20.42 2.66,40.86 1.27,61.22 -3.52,51.53 -11.31,102.4 -24.8,152.39 -13.44,49.83 -29.5,98.78 -46.99,147.29 -22.12,61.34 -42.22,123.29 -57.86,186.65 -10.73,43.49 -19.17,87.45 -24.8,131.84 -6.38,50.26 -9.34,100.84 -6.2,151.5 6.1,98.18 28.88,192.16 72.67,280.62 5.18,10.46 10.3,20.97 15.97,31.17 9.02,16.23 15.95,33.26 21.88,50.84 5.59,16.57 12.2,32.8 18.66,49.07 14.72,37.06 29.8,73.98 44.38,111.1 14.94,38.03 29.97,76.01 47.4,113 19.56,41.5 43.1,80.51 70.52,117.37 115.01,154.6 232.75,307.09 353.58,457.17 97.63,121.27 196.22,241.76 294.76,362.29 30.17,36.91 61.54,72.83 92.5,109.09 1.74,2.04 4.7,3.04 7.09,4.52 v 245.42 c -16.11,-20.83 -28.16,-44.15 -40.38,-67.27 -15.92,-30.11 -30.84,-60.75 -46.11,-91.2 -22.24,-44.38 -44.42,-88.79 -66.6,-133.2 -13.16,-26.35 -30.19,-49.61 -51.26,-70.45 -98.98,-97.91 -199.59,-194.11 -301.81,-288.6 -120.08,-111.01 -240.97,-221.14 -361.26,-331.94 -59.42,-54.74 -118.41,-109.95 -177.34,-165.22 -51.65,-48.44 -93.07,-104.55 -124.24,-168.2 -28.04,-57.24 -46.5,-117.48 -56.67,-180.35 -6.07,-37.52 -9.43,-75.28 -11.72,-113.21 -2.23,-36.91 -5.87,-73.73 -8.91,-110.59 -0.24,-2.91 -0.7,-5.8 -0.91,-8.71 -2.58,-35.92 -4.95,-71.86 -7.73,-107.77 -2.7,-34.93 -5.81,-69.83 -8.76,-104.75 -0.25,-2.91 -0.71,-5.8 -0.91,-8.71 -2.61,-39.83 -5.19,-79.65 -7.77,-119.48 -0.5,-7.77 -0.54,-15.6 -1.52,-23.31 -3.69,-29.06 -3.5,-58.28 -4.3,-87.48 -1.41,-50.89 4.39,-101.04 13.82,-150.91 15.36,-81.26 30.12,-162.64 45.95,-243.82 20.11,-103.13 40.82,-206.15 61.72,-309.13 11.8,-58.16 23.8,-116.3 36.97,-174.17 13.41,-58.94 32.05,-116.28 56.66,-171.61 24.65,-55.44 55.04,-107.34 93.63,-154.29 3.7,-4.51 7.51,-9.01 10.55,-13.96 1.34,-2.19 0.89,-5.48 1.25,-8.28 h 408.75 z"
         id="path185"
         style="opacity:0.600297" />
      <path
         class="cls-3"
         d="m 3580.39,8683.04 c -39.41,-14.27 -80.04,-15.25 -120.99,-10.27 -48.54,5.89 -96.93,6.27 -145.52,0.24 -36.84,-4.57 -73.69,-3.65 -110.51,2.19 -34.81,5.52 -68.35,14.82 -100.55,29.15 -77.34,34.42 -136.04,89.43 -178.32,162.31 -30.65,52.83 -49.4,109.84 -58.2,170.22 -2.53,17.34 -4.83,34.64 -5.12,52.26 -1.16,70.82 19.31,134.13 63.43,189.83 36.36,45.9 67.57,95.21 94.94,146.98 9.57,18.11 17.74,36.77 24.58,56.09 7.88,22.25 11.91,45.28 13.37,68.58 1.78,28.47 -3.61,56.2 -13.09,83.1 -7.81,22.17 -18.69,42.78 -31.61,62.35 -18.87,28.57 -40.95,54.47 -65.74,77.99 -28.93,27.46 -63.13,44.99 -102.18,53.3 -19.13,4.07 -38.38,6.15 -57.92,6.07 -26.28,-0.11 -52.42,-0.99 -78.6,-4.39 -40.51,-5.25 -81.18,-8.77 -122.2,-7.94 -81.77,1.65 -160.15,18.2 -235.16,50.78 -58.44,25.38 -111.67,59.15 -160.63,99.8 -11.23,9.33 -22.08,19.13 -33.45,28.27 -16.87,13.57 -35.39,23.81 -56.96,28.27 -12.61,2.61 -25.03,3.21 -37.63,0.92 -15.36,-2.8 -30.12,-7.51 -44.69,-13.18 -35.39,-13.77 -71.58,-24.92 -108.72,-33.17 -35.28,-7.84 -71,-11.61 -106.93,-13.94 -27.31,-1.77 -54.55,0.63 -81.46,4.92 -45.9,7.33 -81.61,30.7 -104.41,71.74 -21.88,39.39 -37.09,81.37 -45.71,125.69 -3.73,19.16 -5.75,38.43 -6.25,57.98 -0.93,36.42 4.68,71.71 15.66,106.36 11.47,36.24 25.14,71.63 40.21,106.47 15.45,35.73 31.52,71.2 47.11,106.87 18.35,41.96 34.4,84.7 45.67,129.21 12.77,50.44 18.33,101.51 14.83,153.39 -1.18,17.44 -3.51,34.91 -6.94,52.04 -3.44,17.19 -9.96,33.55 -19.88,48.24 -0.94,1.4 -3.18,2.67 -4.8,2.65 -1.64,-0.02 -3.78,-1.36 -4.76,-2.77 -1.62,-2.33 -2.94,-5.09 -3.57,-7.85 -1.5,-6.63 -2.69,-13.34 -3.69,-20.07 -2.43,-16.36 -4.21,-32.83 -7.11,-49.11 -3.08,-17.25 -7.92,-34.09 -14.3,-50.48 -48.7,-125.19 -98.37,-249.96 -156.51,-371.16 -19.83,-41.35 -36.09,-84.05 -46.78,-128.74 -8.39,-35.11 -13.97,-70.59 -14.52,-106.81 -0.92,-61.35 11.55,-119.94 36.19,-175.92 15.75,-35.77 35.72,-69.16 59.73,-100.06 11.98,-15.42 25.14,-29.72 40.22,-42.19 22.22,-18.36 47.16,-30.59 75.86,-35.09 12.65,-1.98 25.11,-2.34 37.74,-0.56 27.22,3.84 53.06,12.03 77.67,24.18 9.6,4.74 19.11,9.64 28.62,14.56 44.51,22.99 91.65,37.85 141.19,44.72 27.05,3.75 54.37,3.07 81.62,2.39 28.35,-0.71 56.13,-5.34 83.55,-12.26 8.47,-2.14 16.89,-4.71 25.04,-7.84 37.92,-14.58 66.55,-39.6 84.61,-76.31 4.72,-9.6 9.19,-19.37 14.55,-28.6 13.19,-22.73 31.92,-39.13 57.28,-47.02 7.36,-2.29 15.09,-3.81 22.76,-4.63 21.43,-2.29 42.77,-0.16 64.02,2.61 50.14,6.54 100.26,13.24 150.41,19.74 6.74,0.87 13.59,0.92 20.38,1.42 17.46,1.28 34.91,2.7 52.38,3.87 49.57,3.34 99.2,4.16 148.78,1.12 18.38,-1.13 36.66,-4.33 54.39,-10.07 40.07,-12.97 66.36,-39.46 78.36,-79.78 8.7,-29.22 10.68,-59.29 9.52,-89.61 -2.6,-67.76 -17.39,-133.09 -40.98,-196.38 -13.93,-37.36 -28.87,-74.42 -45.1,-110.84 -24.76,-55.57 -41.25,-113.33 -49.43,-173.46 -2.62,-19.25 -3.42,-38.8 -4.16,-58.25 -3.77,-97.89 13.17,-191.91 53.66,-281.37 35.15,-77.66 85.67,-143.5 152.33,-196.68 37.62,-30.02 78.86,-53.46 125.49,-66.64 20.66,-5.84 41.56,-9.73 63.1,-10.81 44.25,-2.21 87.15,3.42 129.26,17.62 63.58,21.45 127.41,42.16 191.38,62.42 33.36,10.57 67.22,19.57 100.92,29.07 4.58,1.29 9.51,1.34 14.28,1.96 v 64.28 z"
         id="path186"
         style="opacity:0.600297" />
      <path
         class="cls-3"
         d="m 3580.39,4808.98 c -15.12,3.48 -29.5,9.36 -44.8,12.51 -36.12,7.44 -69.5,0.63 -101.24,-16.74 -12.86,-7.04 -24.19,-16.21 -34.6,-26.56 -27.98,-27.79 -49.02,-60.2 -64.5,-96.37 -13.47,-31.45 -22.31,-64.25 -28.3,-97.84 -5.63,-31.6 -9.49,-63.42 -12.74,-95.37 -2.56,-25.18 -5.38,-50.3 -5.87,-75.59 -0.3,-15.54 -0.1,-31.13 0.73,-46.66 1.52,-28.51 12.91,-52.8 34.11,-71.86 10.8,-9.71 22.46,-18.65 34.56,-26.69 14.56,-9.67 29.92,-18.13 45.07,-26.88 30.37,-17.54 59.51,-36.83 86.35,-59.5 24.61,-20.79 46.86,-43.78 66.37,-69.47 9.41,-12.4 17.84,-25.35 24.87,-39.23 v 181.14 c -9.23,2.37 -12.31,10.3 -15.78,17.75 -1.42,3.04 0.66,5.24 2.93,6.95 3.79,2.85 8.02,4.59 12.86,4.52 v 140.24 c -8.93,-5.7 -17.7,-11.68 -26.84,-17.01 -9.14,-5.34 -18.6,-10.16 -28.05,-14.95 -3.59,-1.82 -8.38,0.3 -9.67,3.68 -4.18,10.93 -6.99,22.16 -6.96,33.92 0.03,14.51 -0.06,29.03 0.6,43.51 0.9,19.49 5.49,38.39 12.74,56.36 11.84,29.36 30.08,53.8 58.18,69.79 v 210.36 z"
         id="path187"
         style="opacity:0.600297" />
      <path
         class="cls-3"
         d="m 3580.39,7584.51 c -7.38,-12.54 -14.73,-25.09 -22.14,-37.6 -32.28,-54.52 -60.65,-111.02 -84.68,-169.65 -20.03,-48.88 -33.23,-99.46 -39.41,-152.07 -5.15,-43.76 -5.15,-87.26 -0.97,-131.06 7.17,-75.16 26.59,-147.33 51.67,-218.14 10.39,-29.34 22.18,-58.18 33.57,-87.16 1.36,-3.46 4.12,-6.39 6.4,-9.44 0.4,-0.53 1.71,-0.66 2.51,-0.52 0.91,0.16 2.27,0.66 2.5,1.33 0.92,2.73 2.1,5.58 2.07,8.38 -0.17,18.49 0.55,37.09 -1.2,55.44 -5.49,57.34 -5.86,114.8 -3.11,172.18 3.34,69.54 17.74,136.93 46.52,200.74 1.02,2.25 4.14,3.56 6.28,5.3 v 362.28 z"
         id="path188"
         style="opacity:0.600297" />
      <path
         class="cls-3"
         d="m 2987.99,4694.72 c 4.12,-0.66 7.8,0.51 10.49,3.54 5.79,6.52 11.3,13.29 16.93,19.95 28.23,33.46 59.34,63.9 94,90.72 63.91,49.45 135.55,82.22 214.05,100.57 31.21,7.3 62.78,12.77 94.69,14.55 57.91,3.23 109.14,-13.03 150.12,-56.03 3.97,-4.17 8.08,-8.2 12.13,-12.29 v 111.02 c -50.24,-7.86 -104.73,-8.32 -150.89,-0.67 -30.08,4.98 -58.83,14.81 -83.49,32.72 -24.95,18.12 -50.65,21.92 -79.89,14.08 -24.62,-6.6 -47.94,-15.73 -70.11,-28.12 -35.13,-19.63 -65.81,-44.92 -93.24,-74.18 -50.01,-53.36 -87.04,-114.33 -106.85,-185.16 -2.88,-10.29 -5.01,-20.78 -7.48,-31.18 l -0.44,0.47 z"
         id="path189"
         style="opacity:0.600297" />
      <path
         class="cls-3"
         d="m 3580.39,10155.53 c -1.26,-1.4 -3.03,-2.58 -3.71,-4.22 -36.16,-86.66 -68.89,-174.61 -98.27,-263.79 -3.93,-11.94 -7.35,-24.06 -10.6,-36.2 -7.01,-26.21 3.32,-61.59 39.01,-75.22 21.96,-8.39 44.6,-12.68 68.19,-8.36 1.86,0.34 3.59,1.41 5.38,2.14 z"
         id="path190"
         style="opacity:0.600297" />
      <path
         class="cls-3"
         d="m 3580.39,5241.38 c -14.39,-9.96 -28.74,-19.98 -43.19,-29.86 -35.32,-24.17 -70.7,-48.24 -105.93,-72.53 -1.01,-0.7 -0.81,-3.37 -0.8,-5.12 0,-0.35 1.71,-1.04 2.59,-0.99 2.89,0.19 5.78,0.57 8.64,1.04 5.75,0.94 11.46,2.32 17.24,2.89 6.77,0.67 13.62,1.18 20.4,0.86 34.03,-1.61 67.82,-5.25 101.05,-13.14 v 116.86 z"
         id="path191"
         style="opacity:0.600297" />
      <path
         class="cls-3"
         d="m 568.13,6731.4 c 78.96,-1.95 158.28,11.64 236.62,32.72 37.55,10.11 75.24,19.73 113,29.05 30.25,7.47 61.07,11.92 92.01,15.37 28.03,3.13 56.04,6.5 84.14,8.81 44.67,3.66 89.34,4.31 134.02,-0.93 25.14,-2.95 50.09,-6.49 74.76,-12.37 38.06,-9.07 74.55,-22.23 109.18,-40.36 88.81,-46.5 179.72,-88.62 270.49,-131.08 53.76,-25.15 107.71,-49.81 162.8,-71.93 5.37,-2.15 10.95,-3.85 16.56,-5.25 1.3,-0.32 3.91,1.09 4.48,2.36 0.64,1.42 0.3,4.25 -0.76,5.29 -4.83,4.76 -9.86,9.37 -15.18,13.56 -52.75,41.56 -105.43,83.22 -158.42,124.46 -68.04,52.96 -141.79,95.82 -223.2,124.93 -43.16,15.44 -87.25,27.03 -132.66,33.68 -46.18,6.76 -92.22,14.49 -138.45,20.84 -27.92,3.84 -56.18,5.22 -84.13,8.88 -47.5,6.22 -95.15,5.49 -142.81,4.26 -15.54,-0.4 -31.04,-2.16 -46.55,-3.33 -2.91,-0.22 -5.8,-0.69 -8.71,-0.88 -36.88,-2.46 -73.77,-4.83 -110.65,-7.36 -12.61,-0.86 -25.2,-2.1 -37.79,-3.16 -9.69,-0.82 -19.38,-1.71 -29.08,-2.42 -9.7,-0.71 -19.49,-0.67 -29.12,-1.93 -41.66,-5.44 -83.5,-4.5 -125.34,-4.22 -25.7,0.17 -50.01,6.28 -73.55,16.3 -17.09,7.27 -33.31,16.11 -48.49,26.71 -57.05,39.83 -100.95,90.98 -131.06,153.82 -9.7,20.25 -17,41.32 -21.36,63.45 -4.37,22.18 -5.27,44.37 -2.76,66.82 3.25,29.01 4.46,58.19 8.68,87.15 9.74,66.74 25.69,131.71 51.92,194.01 45.51,108.12 117.27,194.3 215.21,258.67 12.19,8.01 24.72,15.51 37.21,23.06 28.13,16.99 50.11,39.56 65.65,68.79 32.15,60.5 57.36,123.54 71.21,190.79 9.25,44.92 14.94,90.37 12.93,136.3 -2.81,64.55 -14.3,127.55 -36.72,188.37 -10.11,27.42 -21.65,54.2 -34.42,80.49 -14.46,29.76 -28.9,59.55 -42.31,89.79 -19.39,43.7 -34.15,88.93 -43.03,136.07 -9.17,48.69 -30.04,92.4 -59.67,131.86 -10.5,13.99 -21.9,27.38 -33.77,40.23 -29.76,32.22 -62.64,61.2 -95.28,90.42 -0.72,0.64 -1.5,1.43 -2.38,1.65 -2.64,0.66 -5.34,1.34 -8.01,1.33 -0.44,0 -1.5,-3.54 -1.21,-5.26 2.26,-13.42 5.39,-26.72 7.11,-40.21 4.55,-35.74 7.3,-71.47 5.42,-107.7 -3.83,-73.91 -22.6,-143.9 -51.15,-211.7 -12.46,-29.59 -24.59,-59.33 -36.51,-89.15 -17.77,-44.44 -39.95,-86.4 -66.42,-126.37 -69.35,-104.7 -140.82,-207.93 -212.05,-311.34 -16.56,-24.05 -32.94,-48.23 -49.66,-72.17 -5.8,-8.31 -8.85,-17.17 -8.71,-27.27 0.11,-7.79 -0.11,-15.58 -0.11,-23.37 0,-278.5 -0.01,-556.99 0,-835.49 0,-43.91 -0.44,-34.71 14.93,-70.25 4.25,-9.82 8.86,-19.49 13.25,-29.25 34.89,-77.43 92.63,-131.16 170.4,-163.83 32.32,-13.58 65.69,-24.28 99.3,-34.13 43.92,-12.86 88.65,-22.37 133.88,-29.13 44.33,-6.62 88.98,-9.52 136.31,-8.49 z"
         id="path192"
         style="opacity:0.600297" />
      <path
         class="cls-3"
         d="m 3301.95,3736.09 c -4.14,-0.8 -7.03,-3.43 -8.76,-6.99 -5.53,-11.37 -10.81,-22.85 -16.18,-34.3 -11.57,-24.67 -22.79,-49.5 -34.77,-73.97 -21.08,-43.08 -47.73,-82.29 -79.96,-118.02 -58.73,-65.12 -120.69,-126.99 -184.75,-186.77 -46.96,-43.82 -94.63,-86.89 -141.84,-130.45 -46.3,-42.71 -101.11,-64.61 -163.73,-67.29 -15.54,-0.67 -31.12,-0.26 -46.68,-0.14 -6.8,0.05 -13.61,0.54 -20.41,0.96 -58.45,3.64 -116.52,1.78 -174.49,-7.99 -39.48,-6.66 -79.43,-5.25 -119.22,0 -27.08,3.57 -53.72,8.87 -79.73,17.15 -108.58,34.58 -191.09,102.18 -250.31,198.88 -31.28,51.07 -52.33,106.35 -65.85,164.6 -8.84,38.09 -13.47,76.53 -12.83,115.75 1.06,65.18 20,124.43 56.37,178.29 4.36,6.45 9.06,12.67 13.57,19.01 38.43,54.07 71.95,111.04 100.83,170.75 8.91,18.42 16.49,37.36 22.97,56.78 14.13,42.37 17.38,85.74 11.28,129.75 -3.9,28.18 -13.56,54.69 -26.56,79.97 -14.77,28.73 -33.04,55.15 -54.52,79.15 -15.56,17.38 -31.76,34.31 -48.81,50.21 -38.95,36.32 -85.45,56.51 -138.23,63.3 -31.1,4 -61.9,4.01 -93.08,0.76 -28.08,-2.92 -55.93,-6.99 -83.81,-11.21 -39.47,-5.97 -79.18,-8.68 -119.17,-9.06 -144.31,-1.37 -276.21,38.96 -397.34,116.51 -28.73,18.39 -56.03,38.69 -82.57,60.09 -9.08,7.32 -18.33,14.51 -27.98,21.03 -12.96,8.76 -27.17,15 -42.22,19.47 -27.27,8.1 -53.96,5.06 -80.25,-3.91 -12.87,-4.39 -25.45,-9.68 -37.98,-14.98 -41.29,-17.47 -83.7,-31.46 -127.27,-42.05 -46.51,-11.3 -93.8,-16.48 -141.49,-18.62 -24.4,-1.1 -48.75,0.79 -72.73,4.63 -41.9,6.72 -77.09,26.19 -103.48,60.04 -6.56,8.41 -12.61,17.36 -17.79,26.67 -30.53,54.95 -52.27,113.17 -60.1,175.72 -5.59,44.67 -3.84,89.35 7.29,133.38 10.75,42.53 24.48,84.09 40.23,124.96 17.49,45.4 35.82,90.47 53.79,135.67 17.63,44.34 33.56,89.21 45.08,135.61 12.49,50.3 19.71,101.28 19.47,153.08 -0.16,35.09 -4.7,69.89 -12.05,104.23 -4.52,21.15 -13.71,40.48 -24.68,59 -2.29,3.87 -6.78,6.09 -9.6,4.83 -3.71,-1.65 -6.25,-4.37 -7.34,-8.34 -0.26,-0.94 -0.5,-1.89 -0.6,-2.85 -2.13,-19.35 -4.28,-38.69 -6.32,-58.05 -2.86,-27.15 -7.26,-53.97 -16.28,-79.88 -47.66,-136.93 -96.02,-273.6 -152.9,-407.07 -8.77,-20.59 -17.74,-41.1 -26.05,-61.88 -17.75,-44.37 -31.31,-89.94 -40.25,-136.98 -25.79,-135.69 -0.82,-261.13 74.86,-376.49 18.72,-28.53 39.22,-55.7 63.97,-79.43 12.69,-12.17 26.19,-23.31 41.26,-32.37 38.23,-22.97 78.95,-31.31 123.2,-22.19 23.07,4.75 45.06,12.18 66.15,22.29 14.02,6.72 27.68,14.25 41.19,21.96 50.28,28.71 103.56,49.28 160.6,59.57 48.11,8.67 96.45,11.9 145.19,5.28 17.34,-2.36 34.87,-3.24 51.91,-7.63 9.41,-2.42 18.97,-4.41 28.19,-7.42 47.5,-15.49 83.54,-44.77 106.72,-89.45 5.82,-11.21 11.64,-22.52 18.61,-33.02 15.56,-23.46 36.73,-39.93 63.87,-48.33 15.07,-4.66 30.6,-5.96 46.15,-5.37 14.55,0.56 29.18,1.82 43.53,4.19 48.91,8.1 97.67,17.17 146.6,25.18 22.05,3.61 44.35,5.72 66.56,8.29 27.04,3.13 54.06,6.78 81.19,8.87 42.66,3.28 85.32,7.74 128.18,6.37 19.42,-0.62 38.85,-2.37 58.17,-4.59 10.56,-1.22 21.09,-3.82 31.27,-6.97 42.77,-13.22 72.29,-40.88 87.84,-82.97 8.13,-22.01 13.08,-44.81 14.49,-68.29 3.82,-63.55 -0.76,-126.36 -15.13,-188.5 -11.87,-51.31 -27.8,-101.3 -46.24,-150.54 -9.21,-24.6 -18.74,-49.09 -28.51,-73.48 -21.84,-54.53 -36.11,-111.09 -43,-169.27 -3.88,-32.8 -7.05,-65.83 -6.15,-99.03 3.25,-119.62 29.59,-233.26 87.48,-338.7 46.71,-85.1 109.72,-155.66 189.81,-210.59 43.74,-30 91.24,-51.98 143.43,-62.79 38.31,-7.93 76.74,-10.66 115.93,-5.24 35.94,4.98 70.46,14.19 104.13,27.22 77.1,29.84 154.66,58.4 232.99,84.86 116.17,39.24 233.73,73.69 354.01,97.88 45.86,9.22 83.05,31.92 114.89,64.84 18.3,18.92 34.44,39.7 49.58,61.21 48.8,69.38 81.45,145.76 99.68,228.58 7.97,36.22 11.41,73.02 16.34,109.65 4.8,35.68 9.38,71.38 14.39,107.03 1.89,13.46 4.7,26.79 7.09,40.18 l -0.3,-0.26 z"
         id="path193"
         style="opacity:0.600297" />
      <path
         class="cls-3"
         d="m 705.89,5483.25 c 1.01,17.84 2.12,32.41 2.62,47.01 1.54,44.95 -1.02,89.45 -13.28,133.1 -16.77,59.69 -47.76,110.43 -93.72,151.97 -20.29,18.34 -42.46,34.13 -66.28,47.57 -14.51,8.19 -29.7,14.32 -46.5,16.23 -22.46,2.56 -42.49,-2.95 -59.9,-17.29 -19.06,-15.69 -33.46,-35.18 -44.84,-56.97 -1.32,-2.52 -1.86,-5.5 -2.47,-8.33 -1.68,-7.79 2.22,-16.35 9.63,-19.31 8.09,-3.23 16.44,-5.89 24.85,-8.18 9.37,-2.55 18.98,-4.2 28.4,-6.61 14.18,-3.62 27.78,-8.85 40.85,-15.47 45.64,-23.11 73.2,-60.11 82.96,-110.05 7.47,-38.21 12.55,-76.87 16.28,-115.6 3.56,-36.98 1.05,-73.58 -8.44,-110.01 -17.69,-67.9 -39.2,-134.5 -63.65,-200.19 -15.28,-41.03 -31.27,-81.8 -47.09,-122.63 -13.37,-34.51 -25.35,-69.43 -34.05,-105.47 -7.34,-30.41 -11.91,-61.3 -12.87,-92.38 -1.67,-54.12 7.53,-106.69 28.94,-156.68 10.02,-23.39 23.07,-45 41.06,-63.35 27.17,-27.72 59.73,-42.69 98.88,-43 23.59,-0.19 46.44,3.03 68.73,11.08 24.82,8.95 48.33,20.52 71.06,33.76 26.11,15.2 50.92,32.34 74.92,50.66 15.51,11.84 31.68,22.54 49.09,31.42 36.66,18.69 75.42,25.23 116.09,20.33 27.52,-3.31 52.64,-13.66 75.92,-28.38 9.85,-6.23 19.29,-13.18 28.47,-20.37 54.41,-42.62 108.11,-86.1 158.67,-133.31 20.94,-19.55 44.26,-35.03 72.56,-41.64 8.48,-1.98 17.14,-3.65 25.8,-4.31 10.65,-0.81 21.45,-1.22 32.07,-0.39 35.28,2.73 69.76,-2.23 104.37,-8.32 34.54,-6.08 68.22,-15.72 102.57,-22.43 15.26,-2.98 30.59,-5.78 46.01,-7.68 13.52,-1.67 27.15,-1.15 40.74,0.74 28.95,4.03 57.39,10.17 85.47,18.34 33.6,9.78 67.35,19.1 101.18,28.03 32.2,8.5 65.09,11.19 98.36,10.01 56.13,-1.98 103.9,-22.7 142.92,-63.3 21.11,-21.96 37.35,-47.29 51.25,-74.22 11.62,-22.53 21.15,-45.97 29.54,-69.85 13.55,-38.55 26.77,-77.22 40.32,-115.77 1.58,-4.49 4.12,-8.71 6.74,-12.71 0.76,-1.16 3.75,-2.05 5.01,-1.48 3.45,1.55 7.01,3.47 9.62,6.13 2.64,2.69 4.55,6.29 6.14,9.78 15.98,34.92 25.43,71.72 26.76,109.95 1.45,41.74 -8.76,81.25 -31.13,116.82 -23.93,38.06 -51.99,72.89 -85.4,103.15 -15.93,14.43 -33.24,27 -52.47,36.73 -37.59,19 -76.97,26.94 -118.72,17.88 -31.35,-6.81 -62.64,-13.92 -93.83,-21.39 -43.54,-10.42 -87.36,-19.38 -131.78,-24.93 -32.88,-4.1 -66.01,-4.37 -99.1,-3.03 -84.85,3.43 -161.93,30.69 -232.24,77.5 -39.6,26.36 -70.38,61.04 -92.7,103.21 -19.21,36.28 -34.88,73.83 -44.16,113.98 -21,90.81 -4.04,173.79 50.71,249.07 21.92,30.13 48.17,56.12 77.67,78.72 14.66,11.23 29.95,21.68 45.31,31.95 39.83,26.62 75.13,58.39 109.22,91.98 42.75,42.13 41.5,108.55 15.05,153.97 -12.06,20.7 -30.26,32.5 -54.27,34.83 -33.02,3.21 -66.23,4.88 -99.04,-0.12 -79.32,-12.09 -139.04,-52.51 -175.17,-125.45 -14.82,-29.92 -23.92,-61.64 -29.04,-94.51 -4.2,-26.92 -7.16,-54.03 -11.79,-80.87 -8.87,-51.38 -31.41,-95.89 -69.29,-132.13 -32.71,-31.3 -71.71,-49.64 -116.55,-55.44 -24.56,-3.18 -48.5,0.58 -72.04,7.53 -24.56,7.25 -46.56,19.56 -67.18,34.5 -21.35,15.48 -40.7,33.24 -58.4,52.76 -20.3,22.38 -38.89,46.13 -55.74,71.23 -27.54,41.04 -44.32,86.26 -53.52,134.67 -6.4,33.7 -7.44,67.69 -7.43,101.78 0,19.47 0.88,38.93 1.28,55.14 z"
         id="path194"
         style="opacity:0.600297" />
      <path
         class="cls-3"
         d="m 2941.39,12060.4 c -30.79,0.51 -67.42,-4.5 -103.96,-10.05 -47.1,-7.16 -94.21,-14.5 -141.67,-18.64 -31.98,-2.79 -64.04,-2.6 -95.93,3.51 -31.99,6.12 -61.99,16.84 -88.59,35.64 -15.85,11.21 -30.94,23.59 -45.68,36.24 -14.01,12.03 -27.05,25.2 -40.67,37.71 -6.44,5.91 -13.17,11.49 -19.88,17.1 -2.88,2.41 -7.68,1.55 -10.4,-1.53 -1.28,-1.46 -2.71,-2.8 -3.86,-4.36 -20.96,-28.61 -36.28,-59.79 -43.29,-94.81 -12.43,-62.14 3.69,-115.55 48.87,-159.98 18.96,-18.64 41.38,-32.24 65.5,-43.1 31.07,-14 63.03,-25.67 95.48,-36 51.93,-16.54 104.82,-29.36 157.92,-41.44 16.11,-3.67 32.28,-7.24 48.12,-11.89 21.58,-6.33 41.87,-15.69 59.99,-29.3 20.82,-15.63 36.17,-35.43 43.88,-60.4 6.37,-20.65 8.76,-41.8 5.09,-63.45 -4.24,-25 -10.53,-49.43 -18.57,-73.47 -17.36,-51.92 -41.38,-100.72 -68.31,-148.21 -22.36,-39.42 -56.42,-63.76 -99.14,-76.23 -27.06,-7.9 -54.89,-12.78 -82.67,-17.65 -28.78,-5.04 -57.86,-7.67 -86.92,-9.97 -33.96,-2.69 -67.99,-2.58 -101.98,1.14 -28.04,3.07 -55.94,6.46 -83.58,12.44 -84.94,18.38 -162.14,53.78 -232.46,104.53 -13.41,9.67 -26.51,19.79 -39.46,30.07 -48.22,38.24 -100.32,70.3 -155.03,98.29 -45.73,23.4 -93.98,29.63 -144.55,22.91 -45.93,-6.11 -89.02,-20.14 -129.02,-43.54 -28,-16.38 -52.55,-36.8 -72.25,-62.76 -1.74,-2.29 -3.09,-4.91 -4.42,-7.47 -0.32,-0.61 -0.12,-1.9 0.34,-2.4 0.52,-0.56 1.91,-1.05 2.43,-0.74 5.81,3.47 11.52,7.11 17.25,10.7 31.22,19.56 65.05,30.16 102.05,30.53 87.91,0.87 164,-28.15 226.7,-90.26 29.75,-29.47 59.8,-58.54 92.24,-85.06 100.64,-82.28 213.28,-142.27 336.98,-181.76 43.59,-13.92 87.86,-25.13 132.89,-33.2 43.25,-7.75 86.92,-9.59 130.78,-9.01 97.67,1.3 187.9,28.19 271.29,78.61 78.33,47.36 145.86,106.73 200.17,180.77 50.68,69.09 86.02,145.54 108.92,227.87 15.94,57.31 26.47,115.63 30.52,175.07 1.39,20.38 4.66,40.62 3.85,61.15 -1.35,34.18 -5.45,67.93 -16.8,100.37 -27.29,77.99 -81.69,126.01 -161.79,145.02 -28.24,6.7 -44.62,7.77 -90.36,7.03 z"
         id="path195"
         style="opacity:0.600297" />
      <path
         class="cls-3"
         d="m 1886.13,10698.92 c -0.02,23.43 1.11,43.78 3.79,64.12 2.67,20.25 4.66,40.67 5.49,61.07 1.93,47.15 -3.9,93.32 -21.61,137.39 -24.96,62.11 -68.6,107.74 -125.97,140.93 -15.55,9 -32.27,13.24 -50.35,11.72 -9.9,-0.83 -19.16,-3.56 -27.39,-9.09 -21.5,-14.43 -37.64,-33.55 -48.69,-56.95 -2.89,-6.13 -0.09,-14.46 6.22,-17.59 6.06,-3.01 12.36,-5.7 18.8,-7.73 9.26,-2.92 18.82,-4.87 28.13,-7.68 13.07,-3.94 25.52,-9.41 37.36,-16.28 36.95,-21.45 58.61,-53.7 64.84,-95.56 4.72,-31.74 7.68,-63.77 10.59,-95.74 3.22,-35.34 -1.7,-69.88 -12.02,-103.77 -18.72,-61.5 -41,-121.7 -65.97,-180.91 -13.23,-31.38 -26.76,-62.64 -40.18,-93.94 -13.83,-32.24 -25.59,-65.13 -34.03,-99.27 -9.44,-38.22 -12.33,-76.89 -9.25,-115.92 2.55,-32.18 10.11,-63.4 23.21,-93.05 8.73,-19.75 20.07,-37.81 35.77,-52.87 22.77,-21.83 49.87,-33.11 81.45,-34.03 20.73,-0.6 40.61,3.27 60.13,9.8 22.22,7.43 43.58,16.92 63.62,28.96 21.67,13.01 42.94,26.72 63.98,40.74 21.19,14.13 43.25,26.12 68.04,32.66 39.16,10.33 77.03,7.39 113.61,-10.41 14.97,-7.29 28.56,-16.56 41.33,-27.22 44.09,-36.81 87.38,-74.53 128.41,-114.76 5.56,-5.45 11.01,-11.02 16.75,-16.28 26.22,-24.03 57.23,-37.86 92.71,-36.49 51.44,1.98 100.36,-9.6 149.3,-22.65 19.72,-5.26 39.57,-10.05 59.42,-14.8 25,-5.98 50.24,-5.18 75.4,-1.41 26.95,4.04 53.38,10.67 79.67,17.79 28.19,7.63 56.57,14.39 85.54,18.13 28.11,3.62 56.11,3.76 84.16,-2.05 39.64,-8.21 72.38,-27.55 98.71,-58.05 12.13,-14.05 22.35,-29.45 30.99,-45.88 9.98,-18.98 18.85,-38.47 25.36,-58.92 11.5,-36.15 22.72,-72.39 34.09,-108.59 2.04,-6.49 4.14,-12.97 6.4,-19.39 1.62,-4.59 8.39,-5.64 12.19,-1.82 2.7,2.72 5.74,5.46 7.4,8.8 19.37,39.09 29.47,80.09 26.16,124.11 -1.93,25.77 -9.1,49.79 -21.92,71.97 -20.07,34.71 -43.91,66.66 -73.24,94.17 -8.49,7.96 -17.72,15.24 -27.22,21.97 -32.27,22.86 -68.35,32.46 -107.63,28.23 -18.33,-1.97 -36.5,-5.58 -54.66,-8.88 -35.39,-6.42 -70.57,-14.19 -106.12,-19.43 -31.7,-4.67 -63.67,-8.35 -95.91,-7.36 -75.53,2.31 -145.67,22.45 -209.84,62.83 -43.96,27.66 -77.73,64.17 -99.53,111.69 -13.44,29.3 -24.85,59.14 -30.9,90.94 -15.45,81.24 0.82,154.64 53.57,219.12 24.26,29.66 53.25,53.97 85.27,74.78 8.97,5.83 18.2,11.26 27.24,16.98 33.03,20.89 62.45,46.15 91.28,72.5 39.46,36.08 36.98,98.92 14.85,134.5 -9.24,14.86 -22.23,24.36 -39.57,27.21 -34.71,5.71 -69.29,8.07 -104.41,1.45 -61.27,-11.54 -107.31,-43.58 -137.67,-98.03 -12.89,-23.12 -21.73,-47.86 -27.13,-73.7 -4.57,-21.89 -8.26,-43.98 -12.07,-66.02 -5.2,-30.09 -15.02,-58.44 -32.01,-83.93 -25.74,-38.6 -59.88,-66.27 -105.37,-78.15 -33.89,-8.85 -67.37,-7.33 -100.14,5.72 -15.47,6.16 -29.73,14.36 -43.16,24.16 -15.8,11.52 -30.02,24.79 -43.31,39.04 -24,25.72 -44.8,53.9 -62.46,84.29 -19.29,33.19 -30.83,69.07 -36.64,107.05 -3.7,24.17 -5.42,48.34 -4.86,69.77 z"
         id="path196"
         style="opacity:0.600297" />
      <path
         class="cls-3"
         d="m 2421.23,11365.94 c 94.42,0.41 169.34,28.21 233.9,83.87 17.05,14.7 32.23,31.03 43.69,50.6 28.03,47.89 29.81,97.73 10.58,148.86 -8.49,22.58 -23.85,39.9 -44.04,52.99 -11.5,7.46 -23.83,13.24 -36.74,17.65 -10.11,3.45 -20.36,6.66 -30.77,9.06 -50.37,11.61 -98.96,28.65 -147.01,47.42 -0.91,0.35 -1.78,0.8 -2.68,1.14 -31.73,12.2 -64.41,22.2 -93.38,40.79 -4.71,3.02 -12.77,-0.61 -14.04,-6.21 -1.06,-4.66 -2.02,-9.63 -1.53,-14.31 2.36,-22.25 5.53,-44.42 7.8,-66.68 1.28,-12.56 1.53,-25.23 1.97,-37.85 0.34,-9.88 -2.3,-19.3 -5.33,-28.58 -6.42,-19.62 -19.19,-33.69 -38.02,-41.88 -7.08,-3.08 -14.6,-5.78 -22.19,-6.95 -26,-4.02 -52.09,-6.82 -78.45,-2.85 -13.45,2.03 -27.08,2.93 -40.5,5.12 -32.84,5.36 -64.14,15.77 -94.23,29.95 -15.84,7.46 -31.73,14.83 -47.72,21.95 -10.66,4.75 -21.37,9.46 -32.35,13.37 -28.44,10.12 -57.22,10.54 -85.93,1.13 -19.5,-6.39 -37.89,-15.19 -54.5,-27.44 -4.94,-3.64 -5.07,-8.73 -0.03,-11.69 8.38,-4.92 16.82,-9.75 25.38,-14.34 41.15,-22.07 82.47,-43.83 123.5,-66.12 43.66,-23.71 85.55,-50.26 125.84,-79.36 19.72,-14.24 39.45,-28.52 59.81,-41.82 18.72,-12.22 37.9,-23.83 57.55,-34.5 37.15,-20.17 77.11,-31.84 118.94,-37.72 23.17,-3.26 46.29,-6.15 60.49,-5.59 z"
         id="path197"
         style="opacity:0.600297" />
      <path
         class="cls-3"
         d="m 516.46,9458.67 c -0.23,-63.98 6.06,-112.04 20.22,-158.99 18.31,-60.74 49.66,-114.05 92.75,-160.34 50.44,-54.19 103.56,-105.64 160.46,-153.08 49.36,-41.15 97.73,-83.38 142.96,-129.11 64.67,-65.37 121.47,-136.73 166.03,-217.45 12.78,-23.14 29.23,-43.61 46.18,-63.72 2.73,-3.24 7.35,-4.79 10.3,-3.45 3.98,1.81 5.4,5.41 5.66,9.42 1.55,23.35 2.38,46.77 -0.47,70.01 -6.32,51.56 -20.18,101.03 -42.56,148.04 -25.29,53.12 -58.55,100.9 -96.8,145.38 -48.25,56.11 -98.77,110.14 -149.65,163.85 -22.09,23.32 -44.4,46.43 -66.43,69.81 -36.8,39.04 -70.68,80.4 -98.94,126.15 -30.4,49.21 -53.09,101.56 -66.16,158.14 -8.84,38.23 -12.35,76.9 -11.56,115.9 0.44,21.6 -2.03,42.81 -5.02,63.94 -3,21.15 -8.01,42.03 -12.48,62.95 -0.54,2.55 -2.91,4.97 -4.97,6.87 -3.97,3.67 -12.4,2.67 -15.65,-1.99 -16.68,-23.95 -33.61,-47.81 -45.44,-74.66 -3.9,-8.84 -6.88,-18.27 -8.87,-27.72 -11.48,-54.38 -18.92,-109.27 -19.55,-149.95 z"
         id="path198"
         style="opacity:0.600297" />
      <path
         class="cls-3"
         d="m 302.12,9107.06 c 1.87,4.71 1.92,9.56 0.34,14.26 -2.17,6.44 -4.71,12.76 -7.16,19.1 -20.7,53.6 -37.16,108.45 -47.68,164.97 -11.42,61.38 -17.06,123.3 -12.9,185.7 6.54,98 30.71,191.61 72.47,280.59 3.68,7.84 6.76,15.97 9.98,24.02 0.12,0.29 -1.16,1.5 -1.93,1.69 -0.83,0.21 -2.1,0.03 -2.73,-0.51 C 264.25,9755.61 221,9709.84 186.84,9656 c -28.39,-44.76 -49.07,-92.7 -58.32,-145.13 -6.26,-35.49 -9.82,-71.11 -6.2,-107.31 2.52,-25.17 5.04,-50.22 11.43,-74.8 18.67,-71.89 56.42,-131.84 112.96,-179.68 17.75,-15.02 37.27,-27.95 55.98,-41.83 0,0 -0.57,-0.2 -0.57,-0.2 z"
         id="path199"
         style="opacity:0.600297" />
      <path
         class="cls-3"
         d="m 3078.12,4461.83 c 0,-3.89 0.12,-7.78 -0.02,-11.67 -2.4,-65.95 15.59,-126.87 46.15,-184.48 9.55,-18 20.53,-35.28 31.39,-52.55 5.15,-8.19 11.11,-15.99 17.49,-23.28 21.14,-24.11 42.41,-48.11 64.08,-71.73 14.66,-15.98 26.23,-33.67 33.81,-54 2.38,-6.37 4.64,-12.83 7.6,-18.94 14.11,-29.16 21.34,-60.41 27.92,-91.83 3.6,-17.15 5.49,-34.49 5.23,-52.11 -0.26,-17.49 0.36,-35 0.65,-52.5 0.18,-10.83 2.38,-21.2 7.04,-31.04 4.86,-10.26 19.39,-12.28 26.96,-3.52 2.51,2.9 4.95,6.09 6.48,9.56 16.91,38.43 30.68,77.73 33.47,120.14 1.21,18.42 3.37,36.72 1.32,55.29 -2.38,21.54 -7.85,41.96 -18.04,61.12 -5.02,9.44 -10.15,18.85 -14.53,28.59 -6.53,14.52 -16.49,26.08 -28.11,36.73 -13.59,12.46 -26.71,25.48 -39.41,38.84 -10.13,10.66 -20.85,20.57 -33.73,27.53 -11.46,6.2 -20.07,15.09 -28.28,24.78 -37.06,43.77 -62.85,93.37 -77,148.96 -4.57,17.95 -7.36,36.18 -7.32,54.79 0.06,29.17 -0.06,58.34 -0.13,87.51 -0.02,7.78 -0.09,15.55 -0.21,23.33 -0.15,9.27 -4.05,16.78 -10.68,23.15 -7.33,7.04 -17.93,8.51 -26.8,3.42 -12.54,-7.18 -20.75,-17.63 -22.79,-32.07 -1.36,-9.6 -1.99,-19.34 -2.31,-29.04 -0.38,-11.66 -0.09,-23.33 -0.09,-35 h -0.15 z"
         id="path200"
         style="opacity:0.600297" />
      <path
         class="cls-3"
         d="m 1.77,4796.65 c 1.7,0.92 3.12,1.22 3.27,1.83 23.38,97.54 56.55,192.02 89.13,286.69 3.16,9.19 6.83,18.23 9.58,27.54 3.91,13.25 9.67,25.41 18.68,35.95 6.4,7.49 10.81,16.07 14.3,25.24 32.48,85.41 66.22,170.35 93.92,257.5 2.06,6.48 4.06,12.99 6.1,19.48 3.57,11.38 3.84,23.05 2.05,34.66 -2.85,18.51 -20.74,39.39 -48.78,35.93 -4.71,-0.58 -10.09,-6.59 -11.09,-12.26 -1.37,-7.78 -0.65,-15.41 0.66,-23.17 1.77,-10.52 3.27,-21.14 4.04,-31.78 2.61,-36.39 -2.41,-71.84 -14.75,-106.15 -30.22,-84.04 -76.81,-156.88 -146.64,-213.77 -23.18,-18.88 -22.1,-15.23 -22.14,-46.48 -0.12,-90.47 -0.05,-180.94 0,-271.41 0,-6.53 -0.7,-13.2 1.67,-19.8 z"
         id="path201"
         style="opacity:0.600297" />
      <path
         class="cls-3"
         d="m 3185.77,8749.49 c -0.76,1.8 -1,4.23 -2.27,5.07 -8.12,5.33 -16.51,10.23 -24.72,15.41 -41.44,26.15 -78.65,57.1 -108.82,96.06 -34.62,44.7 -56.73,94.89 -66.72,150.53 -9.03,50.29 -8.66,100.69 -1.57,151.08 3.11,22.12 7.62,44.05 11.39,66.09 0.13,0.76 -0.73,2.37 -1.25,2.43 -1.73,0.19 -4.16,0.56 -5.21,-0.38 -30.61,-27.56 -49.5,-61.99 -59.1,-101.79 -9.8,-40.67 -7.6,-81.27 2.49,-121.37 18.96,-75.4 56.38,-140.43 112.45,-194.42 20.43,-19.67 43.26,-36.11 68.51,-49.17 16.52,-8.54 33.89,-14.73 51.93,-18.9 7.42,-1.72 15.17,-3.7 22.9,-0.63 z"
         id="path202"
         style="opacity:0.600297" />
      <path
         class="cls-3"
         d="m 2988.43,4694.24 c 0.28,-1.54 0.55,-3.07 0.83,-4.61 0.14,0.83 0.54,1.73 0.36,2.48 -0.21,0.88 -0.93,1.63 -1.53,2.52 -0.1,0.08 0.35,-0.39 0.35,-0.39 z"
         id="path203"
         style="opacity:0.600297" />
      <path
         class="cls-3"
         d="m 3302.25,3736.35 c -0.76,0.87 -0.09,-0.31 -0.31,-0.24 0,-0.02 0.31,0.24 0.31,0.24 z"
         id="path204"
         style="opacity:0.600297" />
      <path
         class="cls-3"
         d="m 302.69,9107.26 1.26,1.45 c 0,0 -1.65,-1.48 -1.74,-1.57 -0.09,-0.09 0.48,0.11 0.48,0.11 z"
         id="path205"
         style="opacity:0.600297" />
    </g>
  </g>
</svg>
